<svg width="379" height="211" viewBox="0 0 379 211" fill="none" xmlns="http://www.w3.org/2000/svg">
<path d="M276.712 189.27L266.203 197.319C265.965 197.503 265.843 197.778 265.839 198.145L265.798 204.488C265.797 204.69 265.761 204.888 265.692 205.067C265.623 205.245 265.523 205.399 265.402 205.515C265.281 205.631 265.141 205.705 264.994 205.733C264.847 205.76 264.698 205.739 264.558 205.672L260.884 203.937C260.673 203.833 260.57 203.628 260.574 203.322L260.783 195.796C260.792 195.459 260.673 195.27 260.426 195.227C257.289 194.676 254.193 193.981 251.137 193.143C232.592 188.058 213.879 183.873 195.49 177.907C195.463 177.899 195.435 177.899 195.408 177.907C195.382 177.915 195.356 177.931 195.335 177.954C195.313 177.976 195.295 178.005 195.282 178.039C195.269 178.072 195.262 178.108 195.261 178.146L195.133 185.195C195.129 185.413 195.089 185.628 195.016 185.822C194.942 186.016 194.837 186.184 194.708 186.315C194.579 186.445 194.43 186.533 194.272 186.573C194.115 186.613 193.952 186.603 193.798 186.544L190.717 185.351C190.499 185.269 190.309 185.085 190.178 184.831C190.048 184.576 189.986 184.267 190.003 183.956C190.138 181.508 190.203 178.513 190.198 174.97C190.158 116.729 190.149 58.4979 190.171 0.275726C190.171 0.122751 190.227 0.0431953 190.34 0.0370763L191.452 0.000382573C191.551 -0.00573642 191.6 0.0615456 191.6 0.202282L191.573 182.827C191.573 183.078 191.633 183.324 191.743 183.525C191.854 183.727 192.009 183.875 192.187 183.946L192.807 184.203C192.865 184.226 192.927 184.23 192.986 184.215C193.046 184.2 193.102 184.166 193.151 184.116C193.199 184.066 193.238 184.002 193.265 183.928C193.292 183.854 193.306 183.772 193.306 183.689C193.319 123.95 193.351 64.0968 193.4 4.1307C193.4 2.83347 193.438 1.5791 193.515 0.367544C193.52 0.29695 193.544 0.231449 193.583 0.183907C193.621 0.136366 193.672 0.110187 193.724 0.11052L282.32 0.165589C282.478 0.165589 282.556 0.269636 282.556 0.477682L282.59 192.895C282.59 193.446 282.392 193.773 281.997 193.877C279.968 194.41 275.937 194.364 277.042 189.646C277.164 189.132 277.054 189.007 276.712 189.27ZM264.107 2.8452C264.107 2.60907 264.038 2.38265 263.915 2.21569C263.792 2.04872 263.626 1.95491 263.453 1.95491H262.94C262.767 1.95491 262.601 2.04872 262.478 2.21569C262.355 2.38265 262.287 2.60907 262.287 2.8452V202.496C262.287 202.732 262.355 202.958 262.478 203.125C262.601 203.292 262.767 203.386 262.94 203.386H263.453C263.626 203.386 263.792 203.292 263.915 203.125C264.038 202.958 264.107 202.732 264.107 202.496V2.8452ZM260.379 2.77209L195.301 2.67108C195.229 2.67108 195.193 2.72007 195.193 2.81797L195.16 5.74591C195.16 5.88664 195.209 5.95699 195.308 5.95699C214.852 5.98759 234.415 5.99066 253.995 5.96618C255.056 5.96618 257.121 6.14058 260.19 6.48936C260.334 6.5016 260.408 6.40983 260.412 6.21402L260.466 2.90054C260.471 2.81488 260.442 2.77209 260.379 2.77209ZM265.468 194.832C265.469 194.882 265.479 194.931 265.498 194.974C265.517 195.016 265.544 195.052 265.576 195.076C265.608 195.1 265.644 195.112 265.681 195.111C265.718 195.11 265.754 195.096 265.785 195.071L280.898 182.505C280.929 182.48 280.954 182.445 280.971 182.404C280.989 182.362 280.999 182.315 280.999 182.267L280.972 2.95567C280.972 2.88021 280.95 2.80786 280.911 2.7545C280.872 2.70114 280.819 2.67114 280.763 2.67114L265.697 2.55187C265.642 2.55187 265.589 2.58181 265.55 2.63517C265.51 2.68853 265.488 2.76094 265.488 2.8364L265.468 194.832ZM202.19 25.7182L207.927 24.5801C207.994 24.5661 208.062 24.5711 208.127 24.5948C208.192 24.6186 208.253 24.6606 208.307 24.7183C208.36 24.776 208.404 24.8481 208.436 24.9301C208.468 25.0121 208.487 25.1023 208.493 25.195C208.565 26.4556 208.273 27.5172 207.617 28.38C207.446 28.6125 207.253 28.6492 207.037 28.4901C206.291 27.9333 205.406 27.7283 204.381 27.8751C204.146 27.9108 203.923 28.037 203.738 28.2388C203.554 28.4407 203.415 28.71 203.339 29.0152C203.262 29.3204 203.251 29.6488 203.307 29.9622C203.363 30.2756 203.483 30.5608 203.653 30.7847C204.125 31.4027 204.667 31.6078 205.278 31.3997C206.215 31.0693 206.565 29.5181 207.32 29.2335C209.033 28.5727 210.037 27.1225 210.104 24.5342C210.244 19.2351 210.322 13.9024 210.34 8.53608C210.34 8.25461 210.235 8.1139 210.023 8.1139L195.321 7.92114C195.133 7.91502 195.038 8.04043 195.038 8.29743L194.998 57.3564C194.999 57.3934 195.006 57.4298 195.018 57.4623C195.031 57.4949 195.049 57.5227 195.071 57.5434C195.093 57.5642 195.118 57.5772 195.144 57.5814C195.17 57.5856 195.196 57.5808 195.22 57.5675C196.91 56.6374 198.665 56.0072 200.485 55.6768C201.577 55.4748 202.128 54.5111 202.137 52.7856C202.222 40.5231 202.141 31.6659 201.894 26.2138C201.88 25.9263 201.979 25.7611 202.19 25.7182ZM213.591 8.3659C213.591 8.33456 213.587 8.30352 213.578 8.27453C213.569 8.24553 213.556 8.21918 213.54 8.19694C213.524 8.1747 213.505 8.15699 213.483 8.1449C213.462 8.1328 213.439 8.12657 213.416 8.12647L211.852 8.11902C211.829 8.11891 211.807 8.12494 211.785 8.13683C211.764 8.14872 211.745 8.16623 211.728 8.18831C211.712 8.2104 211.699 8.23665 211.69 8.26557C211.681 8.29448 211.677 8.32549 211.676 8.35682L211.632 25.5389C211.632 25.5702 211.637 25.6012 211.645 25.6302C211.654 25.6592 211.667 25.6856 211.683 25.7078C211.7 25.7301 211.719 25.7477 211.74 25.7598C211.761 25.7719 211.784 25.7782 211.807 25.7783L213.371 25.7857C213.394 25.7859 213.417 25.7798 213.438 25.7679C213.459 25.756 213.479 25.7385 213.495 25.7164C213.511 25.6944 213.524 25.6681 213.533 25.6392C213.542 25.6103 213.547 25.5793 213.547 25.5479L213.591 8.3659ZM221.854 27.5539L221.773 44.4056C221.773 44.6932 221.876 44.8584 222.083 44.9012L232.424 47.0307C232.9 47.1286 233.109 47.5018 233.051 48.1505L232.424 54.814C232.383 55.2301 232.518 55.429 232.828 55.4106C233.853 55.3647 234.453 54.7222 234.696 53.272C235.033 51.1793 235.215 49.1968 236.084 47.3336C239.199 40.6639 241.931 33.7953 244.281 26.7278C244.326 26.5927 244.391 26.4713 244.47 26.3705C244.55 26.2698 244.644 26.192 244.747 26.1415C244.849 26.091 244.958 26.069 245.067 26.0767C245.176 26.0844 245.282 26.1217 245.38 26.1863L248.407 28.1689C248.663 28.3341 248.892 28.2852 249.094 28.022L250.834 25.81C251.22 25.3144 251.575 25.3541 251.899 25.9293C253.301 28.4259 254.278 27.0766 255.235 25.1675C255.395 24.8489 255.635 24.6214 255.91 24.5283C256.184 24.4352 256.475 24.483 256.725 24.6627C258.019 25.5897 258.795 26.8104 260.379 26.3056C260.585 26.2383 260.687 26.0609 260.682 25.7733L260.514 8.63704C260.514 8.32497 260.399 8.16898 260.17 8.16898L215.255 8.14142C214.989 8.14142 214.855 8.32497 214.85 8.69211L214.796 26.581C214.796 26.8342 214.722 27.0769 214.589 27.256C214.456 27.435 214.276 27.5356 214.088 27.5356L212.531 27.5264C212.442 27.5236 212.354 27.5597 212.281 27.6293C212.208 27.699 212.153 27.7988 212.124 27.9145C212.095 28.0303 212.093 28.1562 212.119 28.2743C212.145 28.3924 212.197 28.4969 212.268 28.5727C212.457 28.7685 212.698 28.8695 212.99 28.8756C213.967 28.894 214.769 27.4163 216.057 27.3337C217.872 27.2113 219.692 27.1317 221.517 27.095C221.746 27.0889 221.859 27.2419 221.854 27.5539ZM258.835 30.1238C258.72 30.3032 258.575 30.4436 258.413 30.5338C258.251 30.6241 258.076 30.6618 257.901 30.644C257.726 30.6262 257.556 30.5534 257.404 30.4313C257.253 30.3092 257.124 30.1411 257.028 29.9402L256.105 28.0036C255.732 27.2265 255.498 27.2968 255.404 28.2147C255.242 29.7383 257.177 31.2344 258.154 31.6566C258.374 31.7484 258.583 31.7147 258.781 31.5556L260.796 29.9494C260.86 29.8996 260.914 29.8315 260.956 29.7498C260.998 29.6681 261.026 29.5748 261.039 29.4762C261.052 29.3777 261.049 29.2763 261.03 29.1789C261.012 29.0815 260.978 28.9905 260.931 28.9122L260.756 28.6185C260.68 28.49 260.583 28.4564 260.466 28.5176C259.846 28.8602 259.302 29.3956 258.835 30.1238ZM208.857 29.7748C208.606 29.9217 208.599 30.0869 208.837 30.2705C209.358 30.6743 209.925 30.7019 210.536 30.3531C210.72 30.243 210.848 30.093 210.92 29.9034C211.01 29.677 211.053 29.423 211.048 29.1415C211.048 28.7193 210.907 28.5908 210.624 28.756L208.857 29.7748ZM251.716 31.2621C252.049 30.3136 252.015 29.7293 251.615 29.509C251.152 29.252 250.716 29.2397 250.307 29.4723C250.254 29.5043 250.207 29.5519 250.168 29.6116C250.13 29.6714 250.102 29.7418 250.086 29.8179C250.07 29.8941 250.066 29.9741 250.075 30.0524C250.085 30.1306 250.106 30.2052 250.139 30.2708C250.395 30.7909 250.721 31.207 251.116 31.5191C251.167 31.5594 251.223 31.5846 251.281 31.5934C251.34 31.6022 251.399 31.5943 251.455 31.5702C251.512 31.5461 251.564 31.5063 251.609 31.4532C251.654 31.4002 251.69 31.3351 251.716 31.2621ZM212.524 31.3533L212.254 32.1519C212.218 32.2545 212.204 32.369 212.213 32.4821C212.222 32.5953 212.255 32.7026 212.307 32.7917C212.359 32.8808 212.429 32.9482 212.508 32.986C212.586 33.0238 212.672 33.0306 212.753 33.0055L219.824 30.9128C219.938 30.8792 220.038 30.7883 220.103 30.6583C220.169 30.5284 220.195 30.369 220.177 30.2121C220.159 30.0553 220.099 29.9126 220.007 29.8127C219.915 29.7128 219.799 29.6632 219.683 29.6737L213.542 30.3896C213.324 30.4145 213.116 30.5168 212.937 30.686C212.758 30.8552 212.616 31.0854 212.524 31.3533ZM255.956 32.8865C256.01 32.6968 255.988 32.5224 255.889 32.3633L254.73 30.445C254.658 30.3226 254.604 30.3379 254.568 30.4909C252.321 39.7978 250.209 47.4558 248.231 53.4646C247.804 54.7619 247.589 56.0469 247.584 57.3196C247.584 57.4032 247.596 57.4859 247.62 57.5625C247.645 57.6392 247.68 57.7081 247.724 57.765C247.769 57.8219 247.821 57.8656 247.878 57.8932C247.935 57.9207 247.996 57.9317 248.056 57.9254C248.82 57.8519 249.373 57.1635 249.714 55.8602C251.256 49.9982 253.336 42.3403 255.956 32.8865ZM240.661 55.8327C240.472 55.6384 240.342 55.356 240.296 55.0393C240.25 54.7227 240.291 54.3941 240.412 54.1163L248.703 35.0067C248.789 34.817 248.769 34.6488 248.643 34.5019L245.205 30.6286C245.133 30.5551 245.074 30.5704 245.03 30.6745L236.361 52.2531C236.264 52.4914 236.221 52.7622 236.235 53.0327C236.249 53.3032 236.321 53.5617 236.442 53.7767C237.475 55.6308 238.799 56.9188 240.412 57.6408C240.628 57.7387 240.792 57.9193 240.904 58.1824C241.965 60.6606 243.571 61.9272 245.724 61.9823C246.322 62.0007 246.382 61.762 245.906 61.2664L240.661 55.8327ZM210.636 32.6102C210.636 32.5776 210.631 32.5455 210.622 32.5155C210.613 32.4856 210.599 32.4585 210.582 32.4357C210.565 32.4129 210.545 32.3949 210.522 32.3828C210.5 32.3707 210.476 32.3646 210.453 32.3649L208.026 32.3995C207.978 32.4002 207.932 32.427 207.898 32.474C207.864 32.521 207.845 32.5842 207.846 32.65L208.008 53.7776C208.009 53.8102 208.014 53.8423 208.023 53.8723C208.032 53.9022 208.046 53.9293 208.063 53.9521C208.08 53.9749 208.1 53.9929 208.122 54.005C208.145 54.0171 208.168 54.0232 208.192 54.0229L210.619 53.9883C210.667 53.9875 210.713 53.9608 210.747 53.9138C210.781 53.8668 210.799 53.8036 210.799 53.7379L210.636 32.6102ZM212.228 35.6496L212.625 57.6229C212.628 57.7083 212.649 57.7908 212.685 57.8609C212.721 57.9309 212.771 57.9855 212.829 58.0183C212.887 58.0511 212.95 58.0606 213.012 58.0458C213.074 58.031 213.132 57.9926 213.178 57.9349C213.547 57.4637 213.697 56.809 213.63 55.9707C213.508 54.4654 213.349 52.9449 213.151 51.409C213.116 51.1203 213.165 50.8244 213.286 50.5829C214.398 48.3709 218.086 47.499 219.879 47.04C219.971 47.0165 220.055 46.9494 220.116 46.8505C220.176 46.7516 220.209 46.6271 220.209 46.4985L220.148 33.1989C220.148 33.1538 220.141 33.1094 220.126 33.0688C220.111 33.0283 220.09 32.9927 220.063 32.9646C220.037 32.9365 220.006 32.9165 219.973 32.9062C219.94 32.8959 219.905 32.8956 219.872 32.9052L212.477 35.209C212.405 35.2321 212.34 35.2887 212.295 35.3689C212.249 35.4492 212.226 35.5483 212.228 35.6496ZM257.136 36.4021C254.682 43.8091 253.01 50.693 250.24 57.4759C250.123 57.7574 250.175 57.9501 250.395 58.0541C253.732 59.6604 256.556 58.7609 260.264 57.3658C260.479 57.2862 260.59 57.0935 260.594 56.7875L260.891 33.566C260.895 33.107 260.729 32.9021 260.392 32.951C258.913 33.1652 257.828 34.3155 257.136 36.4021ZM206.532 34.0065C206.532 33.875 206.493 33.749 206.425 33.656C206.357 33.5631 206.264 33.5109 206.168 33.5109L204.159 33.4925C204.062 33.4925 203.97 33.5447 203.901 33.6376C203.833 33.7306 203.795 33.8567 203.795 33.9882L203.734 53.4925C203.734 53.5642 203.744 53.6353 203.766 53.7007C203.788 53.7662 203.819 53.8245 203.859 53.8717C203.899 53.9188 203.946 53.9536 203.996 53.9737C204.047 53.9938 204.1 53.9987 204.152 53.9881L206.188 53.5658C206.274 53.5483 206.352 53.4898 206.409 53.4006C206.466 53.3114 206.497 53.1975 206.498 53.0794L206.532 34.0065ZM247.294 48.0125C248.759 43.3621 250.271 38.7361 251.831 34.1347C251.925 33.8471 251.864 33.7553 251.649 33.8593C251.339 33.9939 251.123 34.2081 251.002 34.5018C248.341 40.9512 245.573 47.3272 242.697 53.6297C242.557 53.9296 242.58 54.208 242.764 54.465L245.083 57.7326C245.12 57.7873 245.168 57.8257 245.221 57.8433C245.274 57.8609 245.33 57.8568 245.382 57.8316C245.434 57.8064 245.48 57.7612 245.514 57.7012C245.548 57.6413 245.569 57.5693 245.575 57.4939C245.773 54.1774 246.346 51.0169 247.294 48.0125ZM221.112 48.3336C218.586 49.0801 216.517 49.8542 214.904 50.6558C214.794 50.7094 214.699 50.809 214.633 50.9406C214.566 51.0723 214.531 51.2294 214.533 51.3901L214.58 53.804C214.589 54.3364 214.787 54.5597 215.173 54.474L230.475 50.9403C230.727 50.8853 230.882 50.6895 230.94 50.3529C230.967 50.2183 230.976 50.0806 230.967 49.9399C230.94 49.585 230.799 49.3769 230.543 49.3157C227.462 48.5631 224.307 47.3974 221.112 48.3336ZM225.98 59.2382C227.105 54.4654 228.015 55.2915 231.096 54.034C231.204 53.9912 231.244 53.8933 231.217 53.7403L231.157 53.465C231.112 53.2202 230.999 53.1254 230.82 53.1805C225.651 54.8509 220.416 55.9615 215.113 56.5123C214.848 56.5428 214.713 56.7387 214.709 57.0997V57.99C214.708 58.108 214.741 58.2218 214.8 58.3086C214.858 58.3954 214.939 58.4488 215.025 58.4581L225.616 59.5687C225.8 59.5871 225.921 59.4769 225.98 59.2382ZM207.037 56.1175L205.615 54.6949C204.73 53.8199 204.289 54.1258 204.294 55.6127C204.3 57.7605 205.965 58.1092 206.99 57.3107C207.457 56.9497 207.473 56.552 207.037 56.1175ZM210.138 55.3556C209.406 55.478 208.869 55.9522 208.527 56.7782C208.492 56.8623 208.473 56.9571 208.471 57.054C208.47 57.1508 208.486 57.2466 208.519 57.3324C208.552 57.4183 208.6 57.4916 208.659 57.5455C208.719 57.5994 208.787 57.6322 208.857 57.641L210.502 57.8338C210.74 57.8644 210.86 57.7145 210.86 57.384L210.853 56.2092C210.848 55.5667 210.61 55.2821 210.138 55.3556ZM202.608 56.4932C202.181 56.6462 202.177 56.8144 202.595 56.998C202.986 57.1632 203.334 57.0867 203.639 56.7685C203.684 56.7242 203.716 56.6599 203.729 56.5869C203.743 56.5139 203.737 56.4368 203.713 56.3691C203.689 56.3013 203.648 56.2472 203.598 56.2162C203.547 56.1852 203.491 56.1793 203.437 56.1995L202.608 56.4932ZM239.63 61.211C239.773 61.2355 239.796 61.1743 239.697 61.0274C238.618 59.4365 237.295 58.1026 235.726 57.0256C233.954 55.8232 230.927 56.7686 228.932 57.2367C228.271 57.3897 228.046 57.8302 228.257 58.5584C228.311 58.7421 228.399 58.903 228.513 59.0241C228.626 59.1452 228.762 59.2221 228.905 59.2468L239.63 61.211ZM260.608 68.1777L260.716 66.1216C260.721 66.0167 260.712 65.9114 260.687 65.8116C260.663 65.7119 260.624 65.6197 260.573 65.5404C260.522 65.461 260.461 65.3962 260.391 65.3494C260.322 65.3027 260.247 65.275 260.17 65.268H260.089C243.034 63.6035 226.667 62.0723 214.555 61.0081C202.442 59.9439 195.565 59.4329 195.423 59.5866L195.295 61.9638C195.187 62.0373 196.779 62.2761 199.977 62.6661C203.175 63.0562 207.916 63.5899 213.926 64.2362C219.935 64.8825 227.094 65.6286 234.985 66.4312C242.877 67.2338 251.346 68.077 259.9 68.9119H259.981C260.136 68.9271 260.288 68.8584 260.406 68.7208C260.523 68.5833 260.596 68.388 260.608 68.1777ZM260.076 59.9444C258.363 60.2564 256.051 62.1839 254.501 61.6791C252.339 60.9693 250.211 60.4522 248.117 60.1279C247.749 60.0668 247.647 60.2626 247.814 60.7154L248.043 61.3487C248.119 61.551 248.232 61.7237 248.371 61.8506C248.51 61.9774 248.671 62.0542 248.838 62.0738L260.163 63.2303C260.433 63.2609 260.561 63.0926 260.547 62.7255L260.467 60.3849C260.453 60.0484 260.323 59.9015 260.076 59.9444ZM195.119 112.886C195.12 112.931 195.128 112.976 195.143 113.016C195.159 113.056 195.181 113.09 195.207 113.117C195.234 113.144 195.265 113.161 195.298 113.169C195.33 113.177 195.364 113.174 195.395 113.162L210.3 107.012C210.345 106.994 210.384 106.957 210.412 106.905C210.44 106.854 210.455 106.792 210.455 106.728L210.556 66.324C210.555 66.2522 210.534 66.1836 210.498 66.1312C210.462 66.0788 210.413 66.0461 210.36 66.0394L195.321 64.2955C195.291 64.2916 195.261 64.2964 195.233 64.3094C195.204 64.3225 195.178 64.3435 195.156 64.3712C195.133 64.3988 195.116 64.4325 195.103 64.47C195.091 64.5076 195.085 64.5482 195.085 64.5892L195.119 112.886ZM213.596 106.085C213.648 106.078 213.696 106.045 213.731 105.993C213.766 105.94 213.785 105.871 213.785 105.8L213.663 66.333C213.663 66.2949 213.658 66.257 213.647 66.2219C213.636 66.1868 213.62 66.155 213.6 66.1285C213.58 66.1019 213.556 66.0812 213.53 66.0674C213.504 66.0537 213.476 66.0472 213.448 66.0485L212.221 66.1219C212.167 66.1242 212.115 66.1553 212.077 66.2084C212.04 66.2615 212.018 66.3325 212.019 66.4064L211.89 106.002C211.89 106.042 211.896 106.082 211.908 106.118C211.92 106.154 211.937 106.187 211.959 106.214C211.98 106.241 212.006 106.261 212.033 106.274C212.061 106.286 212.091 106.291 212.12 106.287L213.596 106.085ZM245.454 106.957L245.407 110.545C245.402 110.827 245.501 110.986 245.703 111.023L260.325 113.593C260.531 113.629 260.635 113.507 260.635 113.226L260.749 71.8122C260.749 71.5246 260.644 71.3625 260.433 71.3258C245.548 68.866 230.388 67.9022 215.403 66.3694C215.192 66.3449 215.086 66.4765 215.086 66.7641L214.998 105.167C214.998 105.479 215.111 105.659 215.335 105.708C216.98 106.048 217.351 103.524 218.234 102.955C220.917 101.238 224.153 99.0356 227.206 99.5955C232.693 100.605 238.196 101.364 243.715 101.872C244.465 101.939 245.133 102.429 245.717 103.34C245.838 103.53 245.901 103.75 245.906 104.001C245.915 105.207 245.58 105.886 244.901 106.039C241.517 106.828 237.81 109.15 234.534 110.646C234.282 110.763 234.199 110.992 234.284 111.335L234.352 111.61C234.361 111.646 234.375 111.679 234.393 111.707C234.412 111.735 234.434 111.758 234.46 111.774C234.485 111.791 234.512 111.8 234.54 111.802C234.567 111.803 234.595 111.798 234.621 111.785C237.497 110.353 240.306 109.193 243.048 108.306C243.605 108.122 244.295 107.596 245.117 106.727C245.346 106.482 245.459 106.559 245.454 106.957ZM227.125 102.551C224.935 102.285 223.155 103.579 221.274 104.387C219.193 105.286 219.243 105.856 221.422 106.094C224.604 106.437 228.047 106.88 231.75 107.425C234.851 107.875 238.16 105.709 241.079 104.699C241.538 104.54 241.533 104.43 241.066 104.369C236.459 103.738 231.813 103.133 227.125 102.551ZM216.232 115.768C215.418 116.221 214.937 115.857 214.789 114.676C214.645 113.519 214.8 112.406 215.254 111.335C215.308 111.205 215.338 111.059 215.34 110.91C215.342 110.761 215.318 110.614 215.268 110.481C215.178 110.224 215.128 109.961 215.119 109.692C215.106 109.166 215.27 109.022 215.612 109.26C216.562 109.93 217.236 110.49 218.355 110.545C220.499 110.646 222.737 111.427 224.644 111.628C227.287 111.91 229.896 112.237 232.471 112.611C232.571 112.623 232.67 112.586 232.751 112.507C232.832 112.427 232.888 112.311 232.909 112.179L233.084 111.059C233.12 110.827 233.053 110.698 232.882 110.674C228.914 110.135 224.896 109.539 220.829 108.884C219.22 108.621 217.618 108.584 216.023 108.774C214.843 108.921 213.252 108.581 212.201 108.994C208.417 110.475 204.635 111.95 200.855 113.418C200.127 113.7 200.121 114.009 200.835 114.345C201.455 114.639 202.269 114.868 203.275 115.034C213.122 116.655 222.955 118.396 232.774 120.256C233.102 120.324 233.268 120.131 233.273 119.678V118.852C233.273 118.742 233.244 118.635 233.191 118.552C233.137 118.469 233.063 118.416 232.983 118.402C227.986 117.729 222.959 116.845 217.903 115.75C217.126 115.578 216.569 115.584 216.232 115.768ZM243.977 110.821C243.973 110.778 243.955 110.76 243.924 110.766C240.751 111.206 237.677 112.222 234.702 113.813C234.522 113.911 234.439 114.092 234.452 114.355L234.5 115.355C234.531 115.967 234.684 116.031 234.958 115.548C236.32 113.171 241.598 112.234 243.843 111.408C243.982 111.359 244.038 111.24 244.011 111.05L243.977 110.821ZM216.953 113.712C217.708 114.226 218.506 114.495 219.346 114.52C219.535 114.526 219.681 114.422 219.784 114.208C220.247 113.235 220.157 112.604 219.515 112.317C218.485 111.858 217.607 112.075 216.879 112.969C216.839 113.019 216.808 113.082 216.789 113.153C216.771 113.223 216.765 113.298 216.772 113.371C216.779 113.444 216.8 113.514 216.831 113.573C216.863 113.632 216.905 113.68 216.953 113.712ZM222.676 113.612C222.649 113.153 222.469 112.859 222.137 112.73C221.449 112.455 221.027 112.767 220.869 113.667C220.748 114.352 220.946 114.71 221.463 114.741C221.755 114.759 222.029 114.695 222.285 114.548C222.474 114.444 222.629 114.505 222.75 114.731C223.303 115.787 224.86 115.273 224.725 113.813C224.694 113.501 224.561 113.348 224.327 113.355C223.86 113.361 223.424 113.526 223.02 113.85C222.813 114.021 222.698 113.942 222.676 113.612ZM225.42 115.016C225.33 115.371 225.424 115.56 225.703 115.585L226.936 115.677C227.242 115.701 227.393 115.505 227.388 115.089V114.126C227.384 113.764 227.251 113.584 226.99 113.584C226.182 113.572 225.658 114.049 225.42 115.016ZM234.453 119.614C234.246 120.312 234.417 120.71 234.965 120.808L260.257 125.397C260.473 125.433 260.581 125.305 260.581 125.011V116.53C260.581 116.175 260.453 115.974 260.197 115.925L247.375 113.621C246.71 113.498 246.047 113.532 245.387 113.722C242.335 114.603 239.257 115.698 236.152 117.008C235.451 117.301 234.884 118.17 234.453 119.614ZM231.534 114.575C230.882 113.914 230.15 113.688 229.337 113.896C228.91 114 228.647 114.34 228.548 114.915L228.501 115.172C228.393 115.814 228.579 116.093 229.06 116.007C230.345 115.774 231.611 115.872 232.855 116.301C232.908 116.318 232.963 116.317 233.015 116.298C233.067 116.278 233.114 116.241 233.153 116.189C233.191 116.138 233.219 116.074 233.234 116.003C233.25 115.933 233.251 115.858 233.24 115.787L233.152 115.218C233.094 114.82 232.921 114.682 232.633 114.805C232.453 114.878 232.271 114.89 232.087 114.841C231.817 114.762 231.633 114.673 231.534 114.575ZM201.064 117.209C199.379 116.879 197.586 116.154 195.874 115.74C195.411 115.63 195.184 115.894 195.193 116.53L195.206 117.686C195.211 118.335 195.445 118.73 195.907 118.87C198.321 119.605 200.887 120.207 203.606 120.679C222.507 123.964 241.578 126.929 260.345 131.417C260.366 131.423 260.388 131.422 260.408 131.414C260.429 131.406 260.449 131.391 260.465 131.37C260.481 131.35 260.494 131.325 260.502 131.296C260.511 131.268 260.514 131.237 260.513 131.206L260.405 127.985C260.401 127.813 260.336 127.715 260.21 127.691C245.211 125.066 230.219 122.175 215.187 119.761C210.468 119.002 205.761 118.151 201.064 117.209ZM201.408 144.304C201.405 144.192 201.43 144.081 201.477 143.988C201.524 143.895 201.592 143.826 201.671 143.79L210.219 140.064C210.295 140.029 210.362 139.963 210.409 139.874C210.456 139.785 210.481 139.678 210.482 139.568L210.596 124.534C210.597 124.408 210.565 124.287 210.506 124.191C210.446 124.094 210.364 124.031 210.273 124.011L195.476 121.055C195.422 121.045 195.367 121.05 195.314 121.071C195.262 121.092 195.213 121.128 195.171 121.177C195.13 121.226 195.097 121.286 195.074 121.354C195.051 121.421 195.038 121.495 195.038 121.569L195.058 168.618C195.059 168.703 195.074 168.785 195.103 168.86C195.132 168.934 195.174 168.998 195.225 169.046C195.276 169.094 195.334 169.124 195.396 169.134C195.457 169.144 195.519 169.134 195.577 169.105L201.489 166.057C201.563 166.02 201.627 165.952 201.671 165.863C201.716 165.775 201.739 165.669 201.739 165.562L201.408 144.304ZM213.555 124.589C213.554 124.495 213.531 124.405 213.488 124.332C213.445 124.259 213.386 124.207 213.32 124.185L212.248 123.827C212.202 123.811 212.154 123.81 212.108 123.824C212.062 123.838 212.018 123.865 211.981 123.905C211.944 123.945 211.914 123.996 211.894 124.054C211.874 124.112 211.863 124.175 211.863 124.24L211.917 139.531C211.917 139.637 211.946 139.739 211.998 139.817C212.051 139.896 212.123 139.944 212.2 139.953L213.299 140.082C213.342 140.087 213.385 140.08 213.426 140.061C213.467 140.042 213.504 140.012 213.536 139.972C213.568 139.932 213.593 139.884 213.61 139.83C213.628 139.776 213.636 139.718 213.636 139.66L213.555 124.589ZM229.276 143.34L229.127 163.661C229.123 163.992 229.24 164.178 229.478 164.221L236.927 165.653C236.978 165.664 237.031 165.659 237.081 165.639C237.131 165.619 237.177 165.584 237.217 165.537C237.256 165.49 237.288 165.432 237.31 165.366C237.332 165.301 237.344 165.23 237.344 165.157L237.27 147.81C237.27 147.474 237.392 147.278 237.634 147.223C240.335 146.592 242.895 145.415 245.312 143.689C245.618 143.475 245.903 143.331 246.168 143.258C246.586 143.147 246.894 143.12 247.092 143.175C251.447 144.387 255.849 145.255 260.298 145.782C260.491 145.806 260.587 145.687 260.587 145.424L260.581 133.73C260.581 133.382 260.453 133.183 260.196 133.134L215.315 124.726C215.072 124.683 214.951 124.827 214.951 125.158L214.897 139.513C214.893 139.843 215.009 140.03 215.248 140.073L228.979 142.863C229.181 142.906 229.28 143.065 229.276 143.34ZM219.461 146.892L219.481 147.424C219.495 147.773 219.62 147.883 219.859 147.755L225.339 144.744C225.359 144.734 225.375 144.716 225.387 144.691C225.398 144.667 225.402 144.638 225.4 144.61C225.398 144.581 225.388 144.555 225.374 144.534C225.359 144.514 225.34 144.5 225.319 144.497C221.58 143.793 217.8 143.141 213.98 142.542C212.479 142.309 211.165 142.422 210.037 142.881C209.098 143.267 209.113 143.545 210.084 143.716C212.073 144.065 217.54 144.386 219.205 146.213C219.279 146.294 219.34 146.396 219.384 146.513C219.428 146.63 219.454 146.759 219.461 146.892ZM204.347 147.673C208.32 148.689 212.288 149.267 216.252 149.408C217.236 149.444 217.845 149.255 218.079 148.838C218.429 148.22 218.326 147.826 217.769 147.654C213.284 146.29 208.738 145.439 204.132 145.103C204.049 145.097 203.966 145.114 203.888 145.153C203.81 145.192 203.738 145.253 203.678 145.331C203.618 145.409 203.571 145.504 203.538 145.608C203.506 145.713 203.49 145.825 203.491 145.938V146.268C203.491 147.058 203.777 147.526 204.347 147.673ZM218.78 172.675C218.781 172.723 218.791 172.77 218.808 172.812C218.826 172.853 218.851 172.888 218.882 172.913C218.912 172.938 218.946 172.951 218.982 172.953C219.017 172.955 219.052 172.944 219.084 172.923L227.294 167.278C227.328 167.255 227.356 167.219 227.377 167.176C227.397 167.132 227.408 167.082 227.409 167.03L227.604 146.36C227.604 146.312 227.595 146.266 227.578 146.224C227.561 146.182 227.537 146.147 227.507 146.121C227.478 146.096 227.444 146.081 227.409 146.077C227.374 146.074 227.339 146.083 227.308 146.103L218.922 151.381C218.886 151.403 218.855 151.44 218.834 151.485C218.812 151.531 218.801 151.584 218.8 151.638L218.78 172.675ZM246.425 145.791C246.35 145.778 246.274 145.788 246.202 145.819L244.268 146.654C244.154 146.701 244.056 146.799 243.989 146.932C243.922 147.065 243.891 147.226 243.901 147.387C243.91 147.547 243.96 147.699 244.041 147.816C244.123 147.933 244.231 148.009 244.348 148.031L259.988 151.161C260.062 151.175 260.138 151.168 260.211 151.138C260.283 151.109 260.35 151.058 260.406 150.99C260.463 150.922 260.507 150.838 260.538 150.743C260.568 150.649 260.582 150.547 260.581 150.445L260.554 148.949C260.552 148.781 260.506 148.619 260.424 148.493C260.343 148.367 260.231 148.284 260.109 148.26L246.425 145.791ZM203.525 149.518C203.512 149.514 203.498 149.513 203.485 149.517C203.472 149.52 203.46 149.528 203.449 149.538C203.439 149.549 203.43 149.563 203.425 149.578C203.419 149.594 203.417 149.611 203.418 149.628L203.451 169.417C203.451 169.63 203.511 169.834 203.619 169.988C203.727 170.142 203.875 170.233 204.031 170.243C208.305 170.537 212.493 171.497 216.596 173.125C216.662 173.152 216.732 173.157 216.8 173.141C216.868 173.124 216.933 173.085 216.988 173.028C217.044 172.971 217.089 172.897 217.121 172.812C217.152 172.727 217.169 172.633 217.169 172.537L217.142 152.345C217.142 152.1 217.052 151.975 216.873 151.969C212.361 151.76 207.912 150.944 203.525 149.518ZM260.603 154.453C260.617 154.32 260.612 154.186 260.587 154.056C260.563 153.926 260.52 153.805 260.461 153.698C260.402 153.591 260.328 153.501 260.243 153.432C260.159 153.364 260.065 153.319 259.968 153.301L240.12 149.455C240.023 149.436 239.924 149.443 239.829 149.476C239.733 149.51 239.644 149.568 239.565 149.648C239.487 149.729 239.421 149.829 239.371 149.945C239.321 150.06 239.288 150.187 239.274 150.32L238.974 153.191C238.96 153.324 238.965 153.458 238.99 153.588C239.014 153.718 239.057 153.839 239.116 153.946C239.175 154.053 239.249 154.143 239.334 154.212C239.418 154.28 239.512 154.324 239.609 154.343L259.457 158.189C259.554 158.208 259.653 158.201 259.748 158.168C259.844 158.134 259.933 158.076 260.012 157.996C260.09 157.915 260.156 157.815 260.206 157.699C260.256 157.584 260.289 157.457 260.303 157.324L260.603 154.453ZM260.554 160.899C260.553 160.825 260.533 160.754 260.497 160.698C260.461 160.643 260.412 160.606 260.358 160.596L239.61 156.456C239.577 156.45 239.543 156.453 239.512 156.465C239.48 156.478 239.45 156.5 239.425 156.53C239.4 156.559 239.38 156.596 239.367 156.637C239.353 156.678 239.346 156.723 239.347 156.768L239.468 178.723C239.469 178.794 239.487 178.863 239.52 178.918C239.553 178.973 239.599 179.011 239.65 179.026L260.311 184.34C260.344 184.348 260.378 184.347 260.41 184.335C260.442 184.324 260.472 184.303 260.498 184.274C260.523 184.245 260.544 184.209 260.558 184.168C260.573 184.127 260.58 184.083 260.581 184.038L260.554 160.899ZM228.898 169.398C226.382 170.775 223.975 172.439 221.679 174.391C220.944 175.016 220.229 175.227 219.4 175.419C219.216 175.462 219.077 175.594 218.982 175.814C218.69 176.475 218.787 176.87 219.272 176.998C225.231 178.546 231.193 180.131 237.156 181.753C237.192 181.763 237.23 181.763 237.266 181.751C237.302 181.739 237.336 181.716 237.365 181.683C237.394 181.651 237.418 181.61 237.434 181.563C237.45 181.516 237.459 181.465 237.459 181.413L237.54 168.49C237.54 168.159 237.421 167.979 237.183 167.948L229.963 166.966C229.716 166.929 229.568 167.079 229.519 167.416L229.336 168.682C229.287 169.031 229.141 169.27 228.898 169.398ZM198.523 171.941L216.609 175.594C216.653 175.599 216.697 175.584 216.734 175.55C216.77 175.516 216.797 175.466 216.809 175.408C216.821 175.35 216.818 175.288 216.8 175.233C216.782 175.178 216.75 175.134 216.71 175.107C212.76 172.831 207.3 172.39 202.898 171.454C202.637 171.399 202.399 171.223 202.223 170.955C202.047 170.687 201.945 170.345 201.934 169.986L201.907 169.132C201.898 168.765 201.77 168.658 201.523 168.811L198.402 170.72C197.413 171.32 197.454 171.727 198.523 171.941ZM260.871 191.304C260.9 191.101 260.869 190.891 260.784 190.719C260.699 190.548 260.567 190.429 260.418 190.39L195.835 173.297C195.761 173.277 195.685 173.278 195.611 173.298C195.538 173.318 195.468 173.358 195.405 173.416C195.343 173.473 195.289 173.547 195.248 173.632C195.206 173.717 195.177 173.813 195.163 173.914L194.97 175.265C194.941 175.468 194.973 175.679 195.058 175.85C195.143 176.022 195.274 176.14 195.423 176.18L260.007 193.273C260.08 193.293 260.156 193.292 260.23 193.272C260.304 193.251 260.374 193.211 260.436 193.154C260.499 193.097 260.552 193.023 260.594 192.938C260.635 192.852 260.664 192.757 260.678 192.656L260.871 191.304ZM258.127 186.91L258.262 185.919C258.27 185.859 258.26 185.798 258.235 185.748C258.21 185.698 258.171 185.664 258.127 185.653L257.992 185.616C252.737 184.303 247.687 183.099 243.946 182.269C240.206 181.438 238.077 181.048 238.026 181.183L237.972 181.55C238.019 181.709 240.126 182.376 243.837 183.407C247.548 184.438 252.563 185.749 257.797 187.057L257.932 187.094C257.975 187.105 258.021 187.091 258.057 187.057C258.094 187.023 258.119 186.97 258.127 186.91ZM280.257 186.094C279.206 187.03 278.498 188.838 279.246 190.472C279.467 190.943 279.727 191.157 280.028 191.115C280.275 191.078 280.406 190.891 280.419 190.555L280.568 186.342C280.581 185.981 280.478 185.898 280.257 186.094ZM259.421 186.947C259.356 186.999 259.303 187.076 259.27 187.168C259.237 187.261 259.225 187.365 259.236 187.467C259.247 187.569 259.28 187.664 259.331 187.74C259.382 187.816 259.449 187.869 259.522 187.893C259.855 188.003 260.165 187.945 260.452 187.718C260.524 187.664 260.581 187.581 260.615 187.48C260.65 187.379 260.661 187.266 260.646 187.157C260.631 187.048 260.591 186.947 260.532 186.87C260.474 186.793 260.398 186.743 260.318 186.727C259.999 186.654 259.7 186.727 259.421 186.947Z" fill="#3A3541"/>
<path d="M373.56 196.062L366.327 202.533C366.243 202.607 366.172 202.706 366.121 202.823C366.07 202.939 366.039 203.069 366.03 203.203L365.599 209.729C365.536 210.665 365.161 211.084 364.473 210.986L360.995 210.509C360.406 210.429 360.19 210.001 360.348 209.224C360.847 206.752 360.995 204.24 360.793 201.688C360.77 201.407 360.656 201.254 360.449 201.229C358.103 200.942 355.762 200.498 353.425 199.898C332.847 194.569 312.273 189.199 291.704 183.79C291.475 183.729 291.356 183.858 291.347 184.176L291.077 191.821C291.068 192.023 290.992 192.106 290.848 192.069L285.968 190.959C285.842 190.934 285.779 190.836 285.779 190.665L285.738 0.64282C285.738 0.367465 285.842 0.22364 286.049 0.211402L287.235 0.165521C287.46 0.159402 287.556 0.306239 287.525 0.60607C287.377 1.93695 287.168 3.35048 287.174 4.72726C287.424 64.0386 287.255 123.341 287.471 182.652C287.48 184.965 287.502 187.189 287.538 189.325C287.543 189.606 287.648 189.75 287.855 189.756L289.203 189.793C289.282 189.793 289.358 189.753 289.416 189.679C289.473 189.606 289.508 189.505 289.513 189.398C289.635 187.055 289.698 185.494 289.702 184.717C289.774 123.301 289.781 61.8969 289.722 0.50512C289.722 0.439394 289.742 0.376361 289.776 0.329886C289.81 0.283411 289.856 0.257339 289.904 0.257339C296.342 0.12884 302.982 0.82638 309.312 0.174708C310.626 0.0370308 311.914 0.523477 313.073 0.50512C317.221 0.44393 321.369 0.474559 325.517 0.596938C326.912 0.633652 329.238 -0.302575 330.404 0.688701C330.597 0.847795 330.806 0.921213 331.031 0.908975C338.736 0.367445 346.407 0.762131 354.085 0.174708C356.35 0.000316883 358.838 0.477578 360.84 0.440864C366.781 0.34296 372.722 0.281815 378.663 0.257339C378.888 0.25122 379 0.404195 379 0.716263C378.856 102.867 378.816 168.331 378.879 197.108C378.885 200.266 377.139 200.449 375.286 199.678C374.104 199.183 373.623 198.063 373.843 196.319C373.893 195.933 373.798 195.848 373.56 196.062ZM361.339 3.40517C361.33 3.09922 361.213 2.94625 360.988 2.94625C337.853 3.3807 314.72 3.24608 291.59 2.54239C291.486 2.53627 291.432 2.60355 291.428 2.74429L291.374 5.94757C291.369 6.05771 291.408 6.11278 291.488 6.11278C322.488 6.18009 343.864 6.26578 355.615 6.3698C357.094 6.38204 358.912 6.54723 361.069 6.86542C361.307 6.89602 361.422 6.74918 361.413 6.42487L361.339 3.40517ZM364.419 201.091L376.661 189.701C376.821 189.553 376.952 189.354 377.042 189.121C377.133 188.887 377.18 188.626 377.18 188.361L377.247 3.21236C377.247 3.07031 377.206 2.93394 377.131 2.83265C377.057 2.73135 376.956 2.67321 376.85 2.6708L363.59 2.6433C363.343 2.6433 363.219 2.81156 363.219 3.1481C363.278 64.8948 363.24 126.642 363.105 188.388C363.091 195.061 362.606 201.642 362.518 208.306C362.509 208.789 362.682 209.031 363.037 209.031L363.705 209.04C364.046 209.04 364.215 208.81 364.21 208.351L364.177 201.715C364.175 201.592 364.196 201.47 364.238 201.36C364.281 201.251 364.343 201.159 364.419 201.091ZM298.6 59.8991C298.358 60.0888 298.151 60.3366 297.98 60.6426C297.755 61.0464 297.83 61.2667 298.203 61.3034C298.459 61.334 298.659 61.2575 298.802 61.0739C298.892 60.9577 298.946 60.7558 298.964 60.4682C299.625 50.1057 299.025 39.4862 299.315 29.9038C299.324 29.6285 299.429 29.4663 299.632 29.4173L307.492 27.5908C308.085 27.4562 308.377 26.9789 308.368 26.159L308.172 8.6648C308.171 8.5569 308.139 8.45424 308.083 8.37876C308.028 8.30328 307.953 8.26098 307.876 8.26095L291.583 8.24181C291.491 8.24181 291.404 8.29116 291.339 8.37895C291.275 8.46674 291.239 8.58577 291.239 8.70992L291.232 61.4778C291.232 61.5092 291.237 61.5403 291.246 61.569C291.256 61.5977 291.27 61.6234 291.288 61.6443C291.306 61.6651 291.327 61.6807 291.35 61.69C291.373 61.6993 291.397 61.702 291.421 61.6981C293.596 61.2575 295.672 60.511 297.65 59.4586C297.942 59.2995 298.227 59.2413 298.506 59.2842C298.987 59.3576 299.018 59.5626 298.6 59.8991ZM310.92 8.82345C310.921 8.7439 310.91 8.66495 310.888 8.59114C310.866 8.51732 310.834 8.45011 310.793 8.39327C310.752 8.33643 310.703 8.29109 310.65 8.25988C310.596 8.22867 310.538 8.2122 310.48 8.21137L309.792 8.20151C309.734 8.20067 309.676 8.21553 309.622 8.24521C309.567 8.27488 309.518 8.31878 309.476 8.37445C309.435 8.43011 309.401 8.49644 309.378 8.56962C309.355 8.6428 309.343 8.72144 309.343 8.80099L309.213 25.6884C309.212 25.7679 309.223 25.8469 309.245 25.9207C309.267 25.9945 309.299 26.0618 309.34 26.1186C309.381 26.1754 309.429 26.2208 309.483 26.252C309.537 26.2832 309.595 26.2997 309.653 26.3005L310.341 26.3103C310.399 26.3111 310.457 26.2963 310.511 26.2666C310.565 26.2369 310.615 26.193 310.657 26.1374C310.698 26.0817 310.732 26.0154 310.754 25.9422C310.777 25.869 310.789 25.7904 310.79 25.7109L310.92 8.82345ZM322.443 27.774L322.369 30.2889C322.36 30.6071 322.47 30.7907 322.699 30.8396C325.099 31.3169 327.487 31.1793 329.865 30.4266C329.927 30.4074 329.991 30.4073 330.053 30.4265C330.115 30.4456 330.173 30.4834 330.223 30.5372C330.273 30.5909 330.313 30.6592 330.341 30.7369C330.369 30.8147 330.383 30.9 330.384 30.9865L330.289 48.3889C330.288 48.4949 330.303 48.6001 330.333 48.6981C330.362 48.7962 330.406 48.8851 330.461 48.9596C330.517 49.0341 330.583 49.0927 330.655 49.1319C330.727 49.171 330.805 49.1899 330.883 49.1875C333.058 49.114 335.188 49.576 337.273 50.5734C337.678 50.7631 337.826 51.1363 337.718 51.6932C337.66 51.9869 337.52 52.1613 337.3 52.2163L336.707 52.354C336.46 52.4152 336.318 52.6141 336.282 52.9506C336.129 54.3029 336.071 55.3064 336.107 55.9611C336.192 57.6133 336.532 57.7112 337.125 56.2548C337.981 54.1438 338.48 51.8217 339.376 49.8667C342.109 43.8823 344.654 37.7724 347.014 31.5372C347.126 31.2392 347.295 30.9877 347.503 30.8086C347.71 30.6295 347.949 30.5293 348.193 30.5184C349.609 30.4389 350.982 30.6622 352.312 31.1884C352.555 31.2802 352.789 31.2558 353.013 31.115L354.099 30.445C354.341 30.2981 354.566 30.3348 354.773 30.5551L355.791 31.6565C355.988 31.8707 356.2 31.8921 356.424 31.7208C357.903 30.5643 359.494 30.0197 361.197 30.087C361.444 30.0932 361.568 29.9279 361.568 29.5914L361.534 9.33444C361.534 8.80821 361.341 8.54511 360.954 8.54511L312.52 8.22388C312.309 8.22388 312.201 8.36765 312.197 8.65525L312.069 25.1306C312.069 25.2996 312.039 25.4694 311.981 25.6263C311.801 26.0974 311.563 26.4921 311.266 26.8103C310.781 27.3243 310.846 27.5721 311.462 27.5538L322.086 27.2784C322.333 27.2722 322.452 27.4375 322.443 27.774ZM310.727 30.2427C312.358 31.0504 319.234 31.2064 320.609 29.8113C320.656 29.7669 320.689 29.7025 320.704 29.6287C320.719 29.5549 320.715 29.476 320.693 29.4047C320.67 29.3335 320.63 29.2742 320.58 29.2363C320.529 29.1985 320.471 29.1844 320.414 29.1963C317.012 30.0224 313.632 29.9154 310.275 28.8751C310.051 28.8078 309.842 28.8567 309.648 29.022C308.138 30.3253 306.494 30.1968 304.903 30.6924C304.868 30.7035 304.837 30.7304 304.816 30.7687C304.794 30.807 304.782 30.8543 304.783 30.9027C304.784 30.9511 304.797 30.9977 304.82 31.0346C304.843 31.0715 304.875 31.0966 304.91 31.1055C306.739 31.6195 308.464 31.3441 310.087 30.2794C310.298 30.1448 310.511 30.1326 310.727 30.2427ZM304.088 32.856C304.088 32.7921 304.079 32.7288 304.062 32.6696C304.044 32.6104 304.018 32.5565 303.985 32.511C303.952 32.4655 303.913 32.4293 303.87 32.4045C303.826 32.3796 303.78 32.3666 303.733 32.3661L301.158 32.3416C301.111 32.3412 301.065 32.3533 301.021 32.3774C300.978 32.4014 300.938 32.4369 300.905 32.4817C300.871 32.5266 300.845 32.58 300.827 32.6388C300.808 32.6977 300.799 32.7608 300.798 32.8247L300.783 35.7801C300.783 35.844 300.792 35.9073 300.809 35.9665C300.827 36.0257 300.853 36.0796 300.886 36.125C300.919 36.1705 300.958 36.2067 301.001 36.2316C301.045 36.2565 301.091 36.2695 301.138 36.2699L303.713 36.2944C303.76 36.2948 303.806 36.2827 303.85 36.2587C303.893 36.2347 303.933 36.1992 303.966 36.1543C304 36.1095 304.026 36.0561 304.045 35.9973C304.063 35.9384 304.072 35.8753 304.073 35.8114L304.088 32.856ZM313.08 32.859C313.083 32.783 313.073 32.7069 313.052 32.6368C313.03 32.5666 312.996 32.5043 312.954 32.4546C312.912 32.4049 312.861 32.3691 312.807 32.3501C312.753 32.3311 312.696 32.3294 312.642 32.345L310.606 32.9416C310.525 32.9645 310.452 33.0243 310.4 33.111C310.347 33.1978 310.317 33.3063 310.316 33.4189L310.262 36.4569C310.261 36.5228 310.27 36.5883 310.288 36.6495C310.306 36.7107 310.332 36.7664 310.366 36.8134C310.4 36.8604 310.441 36.8977 310.485 36.9232C310.53 36.9487 310.578 36.9618 310.626 36.9618L312.547 36.9526C312.639 36.953 312.728 36.9058 312.796 36.8206C312.863 36.7355 312.905 36.6187 312.911 36.4937L313.08 32.859ZM305.982 32.8402C305.947 32.8364 305.913 32.8423 305.88 32.8577C305.847 32.873 305.817 32.8974 305.792 32.9293C305.767 32.9612 305.746 33 305.733 33.0431C305.719 33.0862 305.712 33.1328 305.712 33.1798L305.739 36.071C305.74 36.1564 305.766 36.2378 305.809 36.299C305.853 36.3603 305.912 36.3968 305.975 36.4014L308.226 36.5942C308.26 36.5966 308.293 36.59 308.324 36.5746C308.356 36.5592 308.385 36.5354 308.409 36.5046C308.434 36.4738 308.453 36.4366 308.467 36.3952C308.481 36.3539 308.488 36.3092 308.489 36.2637L308.577 33.4643C308.579 33.3773 308.556 33.2925 308.513 33.2276C308.471 33.1627 308.411 33.1226 308.348 33.1155L305.982 32.8402ZM328.746 32.9598C325.382 33.327 322.524 33.0883 319.74 33.0883C319.704 33.0882 319.668 33.0983 319.634 33.118C319.601 33.1376 319.571 33.1665 319.547 33.2027C319.522 33.2389 319.503 33.2817 319.491 33.3284C319.479 33.375 319.474 33.4245 319.477 33.4738L319.598 35.796C319.616 36.1203 319.744 36.2518 319.983 36.1907L328.665 33.9879C328.867 33.9389 328.957 33.7737 328.935 33.4922L328.908 33.1434C328.899 33.0088 328.845 32.9476 328.746 32.9598ZM315.351 33.1982C315.27 33.2069 315.194 33.2554 315.137 33.3347C315.08 33.414 315.046 33.5188 315.041 33.6296L314.94 36.4933C314.938 36.5566 314.946 36.6198 314.963 36.6789C314.98 36.738 315.006 36.7916 315.039 36.8365C315.072 36.8813 315.111 36.9164 315.154 36.9395C315.198 36.9625 315.244 36.9731 315.291 36.9706L317.731 36.8787C317.816 36.8766 317.897 36.831 317.958 36.7511C318.019 36.6711 318.056 36.5627 318.061 36.4474L318.162 33.4093C318.165 33.3443 318.156 33.2794 318.139 33.219C318.121 33.1586 318.094 33.104 318.059 33.0588C318.025 33.0137 317.984 32.9791 317.939 32.9572C317.894 32.9353 317.846 32.9267 317.798 32.932L315.351 33.1982ZM349.029 34.1259C349.384 34.952 349.86 35.6404 350.458 36.1911C350.603 36.3247 350.78 36.3765 350.953 36.3354C351.125 36.2942 351.279 36.1635 351.382 35.9708L352.453 33.9607C352.678 33.5446 352.602 33.3152 352.224 33.2723L349.575 32.9603C349.471 32.9481 349.366 32.975 349.272 33.0381C349.178 33.1011 349.099 33.198 349.043 33.3181C348.987 33.4382 348.956 33.577 348.953 33.7194C348.951 33.8618 348.977 34.0024 349.029 34.1259ZM361.415 33.5124C361.4 33.3997 361.338 33.3001 361.232 33.219C361.126 33.1379 360.978 33.077 360.798 33.0398C360.617 33.0027 360.407 32.9899 360.179 33.0023C359.951 33.0147 359.71 33.052 359.47 33.1121C358.985 33.2333 358.531 33.44 358.21 33.6866C357.888 33.9331 357.725 34.1995 357.755 34.4269C357.771 34.5396 357.833 34.6393 357.939 34.7204C358.045 34.8014 358.193 34.8623 358.373 34.8995C358.554 34.9366 358.764 34.9494 358.992 34.937C359.22 34.9247 359.461 34.8874 359.701 34.8273C360.186 34.706 360.64 34.4993 360.961 34.2528C361.283 34.0062 361.446 33.7398 361.415 33.5124ZM355.487 40.826L353.074 39.1831C352.827 39.0179 352.649 39.1066 352.541 39.4493C350.663 45.4459 348.395 51.161 345.74 56.5947C345.547 56.9897 345.455 57.4607 345.48 57.9339C345.504 58.4071 345.643 58.856 345.874 59.2106L347.202 61.2298C347.773 62.0926 348.27 62.0191 348.692 61.0095C351.051 55.3984 353.321 49.6343 355.5 43.7173C356.168 41.9091 357.118 40.2386 357.947 38.4397C357.977 38.3768 357.996 38.3058 358.004 38.2317C358.011 38.1575 358.007 38.0818 357.991 38.0096C357.975 37.9374 357.948 37.8705 357.911 37.8132C357.875 37.756 357.83 37.7098 357.779 37.6778C356.408 36.8273 355.181 35.6953 354.098 34.2818C354.021 34.1792 353.917 34.1217 353.81 34.1217C353.703 34.1217 353.6 34.1792 353.525 34.2818L353.37 34.4929C353.315 34.5689 353.271 34.6598 353.243 34.7599C353.215 34.86 353.202 34.967 353.206 35.0741C353.21 35.1813 353.23 35.2861 353.265 35.382C353.301 35.4779 353.35 35.5627 353.411 35.631C354.301 36.604 355.235 37.6962 356.215 38.9078C356.759 39.5747 356.748 40.1866 356.181 40.7435C355.961 40.9637 355.73 40.9913 355.487 40.826ZM351.442 58.3934C350.908 59.6661 350.404 60.9633 349.932 62.285C349.919 62.3247 349.912 62.3685 349.915 62.4124C349.917 62.4562 349.927 62.4985 349.945 62.5353C349.962 62.5721 349.986 62.6022 350.015 62.6227C350.043 62.6431 350.075 62.6533 350.108 62.6522C353.874 62.5482 357.606 62.0066 361.304 61.0276C361.466 60.9847 361.549 60.8501 361.554 60.6237L361.877 36.9066C361.886 36.1417 361.637 35.9214 361.129 36.2457C360.581 36.5945 360.08 37.3318 359.626 38.4577C356.947 45.1397 354.22 51.7849 351.442 58.3934ZM342.49 60.073C342.454 59.7671 342.479 59.5193 342.565 59.3296C345.526 52.9842 348.389 46.1554 351.153 38.8432C351.163 38.8181 351.168 38.7896 351.168 38.7607C351.167 38.7318 351.161 38.7034 351.149 38.6783C351.138 38.6533 351.121 38.6324 351.102 38.6179C351.082 38.6033 351.06 38.5956 351.038 38.5954C349.717 38.6871 348.771 37.9162 348.2 36.2824C348.165 36.1817 348.111 36.0958 348.043 36.0338C347.975 35.9718 347.896 35.9361 347.814 35.9304C347.733 35.9248 347.652 35.9494 347.579 36.0017C347.507 36.054 347.447 36.1319 347.405 36.2273C344.425 42.9092 341.607 49.6952 338.951 56.5852C338.48 57.8059 338.635 58.8431 338.769 60.1097C338.805 60.4646 338.929 60.7308 339.14 60.9082C339.36 61.0918 339.491 61.0092 339.531 60.6605C339.554 60.4341 339.61 60.2076 339.7 59.9812C339.857 59.5957 340.075 59.5131 340.354 59.7334C340.996 60.2352 341.675 60.587 342.389 60.7889C342.592 60.8501 342.76 60.9817 342.895 61.1836C344.054 62.9459 345.308 65.4332 346.852 66.5347C347.18 66.7733 347.371 66.6387 347.425 66.1308L347.519 65.2313C347.56 64.8091 347.468 64.4512 347.243 64.1575L344.014 59.9721C343.945 59.8841 343.86 59.8244 343.767 59.8001C343.674 59.7757 343.577 59.7876 343.488 59.8344C343.277 59.9445 343.084 60.0975 342.908 60.2933C342.679 60.5503 342.54 60.4769 342.49 60.073ZM323.023 53.5287C323.704 51.8032 327.074 50.1235 328.442 49.3984C328.64 49.2883 328.739 49.0894 328.739 48.8018L328.786 36.9983C328.786 36.6066 328.645 36.4445 328.362 36.5118L319.753 38.5953C319.506 38.6504 319.38 38.8493 319.376 39.1919L319.174 59.5773C319.169 59.9138 319.277 60.1647 319.497 60.3299L320.947 61.4589C321.042 61.5331 321.153 61.5633 321.262 61.5451C321.371 61.5269 321.473 61.4613 321.553 61.3579C324.472 57.5672 329.474 57.1818 333.303 56.062C333.545 55.9886 333.736 55.808 333.876 55.5204L335.15 52.9229C335.294 52.6231 335.24 52.4181 334.988 52.308C330.88 50.5763 327.007 51.1331 323.367 53.9785C322.872 54.3639 322.758 54.214 323.023 53.5287ZM304.137 38.4408C304.137 38.3962 304.131 38.352 304.118 38.3109C304.105 38.2697 304.087 38.2324 304.064 38.201C304.04 38.1695 304.013 38.1447 303.982 38.1277C303.952 38.1108 303.92 38.1022 303.887 38.1024L300.961 38.1162C300.929 38.1164 300.896 38.1253 300.866 38.1425C300.836 38.1597 300.808 38.1849 300.785 38.2165C300.762 38.2482 300.744 38.2857 300.731 38.3269C300.719 38.3682 300.713 38.4124 300.713 38.457L300.76 57.0342C300.761 57.0788 300.767 57.1229 300.78 57.164C300.792 57.2052 300.811 57.2425 300.834 57.2739C300.857 57.3053 300.885 57.3303 300.915 57.3472C300.945 57.3641 300.978 57.3727 301.011 57.3726L303.936 57.3587C303.969 57.3585 304.001 57.3496 304.032 57.3324C304.062 57.3152 304.089 57.2901 304.112 57.2584C304.135 57.2268 304.154 57.1893 304.166 57.148C304.179 57.1067 304.185 57.0625 304.185 57.0179L304.137 38.4408ZM305.577 57.8699C305.576 58.0485 305.62 58.2221 305.702 58.361C305.785 58.5 305.9 58.5956 306.028 58.6318L307.902 59.1458C307.984 59.1672 308.067 59.1642 308.147 59.137C308.228 59.1097 308.303 59.0589 308.367 58.988C308.431 58.9171 308.483 58.828 308.519 58.7268C308.556 58.6256 308.575 58.5149 308.577 58.4023L308.765 38.8888C308.766 38.786 308.752 38.6841 308.723 38.5888C308.695 38.4936 308.653 38.4071 308.599 38.3344C308.546 38.2618 308.483 38.2043 308.413 38.1655C308.343 38.1268 308.268 38.1075 308.192 38.1087L306.116 38.1362C305.967 38.1386 305.825 38.2209 305.72 38.3653C305.615 38.5096 305.557 38.7043 305.557 38.9072L305.577 57.8699ZM311.165 61.0092C311.137 61.0087 311.11 60.9998 311.084 60.983C311.059 60.9662 311.037 60.9419 311.02 60.912C311.002 60.8822 310.99 60.8474 310.984 60.8102C310.977 60.773 310.977 60.7344 310.983 60.6972L311.078 60.1281C311.086 60.0743 311.107 60.0256 311.137 59.9893C311.168 59.9529 311.206 59.9308 311.246 59.9261L312.837 59.7977C312.885 59.793 312.929 59.7639 312.962 59.7162C312.994 59.6685 313.012 59.6057 313.012 59.5407L312.958 38.9166C312.959 38.8544 312.943 38.794 312.913 38.7467C312.883 38.6995 312.842 38.6685 312.797 38.6596L310.525 38.2099C310.498 38.2047 310.472 38.2072 310.446 38.2172C310.42 38.2271 310.396 38.2444 310.376 38.2678C310.356 38.2912 310.339 38.3202 310.328 38.3529C310.316 38.3857 310.31 38.4214 310.309 38.4577L310.269 62.4227C310.269 62.4589 310.274 62.4947 310.285 62.5279C310.295 62.561 310.311 62.5907 310.331 62.6149C310.351 62.6392 310.374 62.6575 310.399 62.6686C310.424 62.6798 310.451 62.6836 310.478 62.6797L312.695 62.3768C312.721 62.3735 312.746 62.3631 312.768 62.3463C312.791 62.3295 312.81 62.3067 312.826 62.2792C312.842 62.2518 312.853 62.2202 312.86 62.1865C312.866 62.1528 312.868 62.1176 312.864 62.0831L312.776 61.2754C312.771 61.2137 312.75 61.1564 312.717 61.1142C312.683 61.072 312.64 61.0478 312.594 61.0459L311.165 61.0092ZM317.885 38.9239C317.885 38.8119 317.853 38.7042 317.796 38.6245C317.738 38.5448 317.659 38.4995 317.577 38.4987L314.827 38.4726C314.786 38.4722 314.746 38.4827 314.708 38.5035C314.67 38.5244 314.636 38.5552 314.607 38.5941C314.578 38.6331 314.555 38.6794 314.539 38.7305C314.523 38.7816 314.515 38.8364 314.514 38.8918L314.409 59.3777C314.409 59.4897 314.441 59.5974 314.499 59.6771C314.556 59.7568 314.635 59.8021 314.717 59.8029L317.468 59.829C317.508 59.8294 317.549 59.8189 317.586 59.798C317.624 59.7772 317.658 59.7464 317.687 59.7074C317.716 59.6685 317.739 59.6222 317.755 59.5711C317.771 59.5201 317.779 59.4652 317.78 59.4097L317.885 38.9239ZM335.743 59.559L335.298 58.6504C335.234 58.5159 335.146 58.4058 335.042 58.3303C334.939 58.2548 334.822 58.2165 334.705 58.2189C331.496 58.2832 327.836 59.7885 324.742 60.945C323.888 61.2632 323.207 62.1198 322.699 63.5149C322.614 63.7597 322.67 63.8913 322.868 63.9096L338.749 65.1028C339.028 65.1212 339.08 64.9835 338.904 64.6898C338.163 63.4476 337.664 62.0464 337.408 60.486C337.336 60.0577 337.15 59.917 336.848 60.0638C336.642 60.1556 336.426 60.1495 336.201 60.0454C336.008 59.9537 335.855 59.7915 335.743 59.559ZM301.02 61.5415L304.074 61.826C304.165 61.8336 304.256 61.7916 304.325 61.7092C304.395 61.6267 304.437 61.5105 304.444 61.3854L304.478 60.7613C304.488 60.5661 304.474 60.3705 304.437 60.1859C304.401 60.0012 304.342 59.8311 304.264 59.6853C304.187 59.5394 304.092 59.4208 303.985 59.3361C303.878 59.2514 303.762 59.2024 303.642 59.1918L301.707 59.0174C301.467 58.9941 301.228 59.128 301.043 59.3896C300.859 59.6513 300.744 60.0192 300.723 60.4125L300.696 61.0367C300.691 61.1618 300.722 61.2849 300.782 61.3794C300.843 61.4739 300.928 61.532 301.02 61.5415ZM306.069 61.7708C306.766 61.624 307.449 61.7035 308.118 62.0095C308.473 62.1808 308.658 62.0064 308.671 61.4863L308.685 61.0457C308.698 60.495 308.503 60.2013 308.098 60.1646L306.413 59.9902C306.283 59.9772 306.154 60.0282 306.049 60.1342C305.944 60.2402 305.87 60.3942 305.84 60.5684L305.719 61.2568C305.651 61.6607 305.768 61.832 306.069 61.7708ZM317.489 62.4688L317.509 62.1843C317.526 61.9161 317.467 61.6493 317.344 61.4404C317.22 61.2314 317.043 61.0967 316.848 61.0645C316.111 60.9483 315.392 61.0461 314.691 61.3582C314.652 61.3742 314.616 61.4031 314.587 61.4425C314.557 61.4819 314.536 61.5307 314.523 61.5846C314.51 61.6386 314.507 61.6963 314.514 61.7527C314.521 61.8091 314.538 61.8627 314.563 61.9089C315.116 62.9431 315.871 63.4203 316.828 63.3408C317.232 63.3102 317.453 63.0195 317.489 62.4688ZM320.839 61.7532C320.03 61.5512 319.587 61.9337 319.511 62.9005C319.479 63.3166 319.619 63.549 319.929 63.598C320.261 63.6531 320.585 63.6225 320.899 63.5062C321.044 63.452 321.171 63.3325 321.259 63.1671C321.347 63.0018 321.391 62.8007 321.384 62.5967C321.377 62.3927 321.319 62.198 321.22 62.0447C321.121 61.8914 320.986 61.7886 320.839 61.7532ZM340.084 64.5703C340.059 64.6294 340.046 64.6961 340.046 64.7643C340.045 64.8325 340.058 64.8999 340.082 64.9603C340.106 65.0208 340.141 65.0723 340.184 65.11C340.227 65.1477 340.276 65.1705 340.327 65.1761L343.853 65.4607C343.914 65.4664 343.976 65.4437 344.027 65.3962C344.078 65.3486 344.116 65.279 344.135 65.1985C344.154 65.118 344.152 65.0314 344.13 64.9524C344.108 64.8734 344.067 64.8067 344.014 64.7631L340.866 62.0462C340.592 61.8076 340.464 61.9116 340.482 62.3583C340.513 63.1477 340.381 63.885 340.084 64.5703ZM349.771 65.8651C353.492 66.9115 357.294 67.0124 360.975 67.2878C361.334 67.3184 361.514 67.0858 361.514 66.5902L361.507 63.5521C361.507 63.1789 361.372 63.0198 361.103 63.0748C357.454 63.8397 353.674 64.2925 349.764 64.4333C349.612 64.4333 349.474 64.4853 349.353 64.5893C349.11 64.7973 349 64.9412 349.023 65.0207C349.162 65.4796 349.412 65.7611 349.771 65.8651ZM291.252 63.7538L291.239 65.6721C291.239 65.8924 291.317 66.0086 291.474 66.0209L361.203 73.3086C361.518 73.3453 361.68 73.1464 361.689 72.712L361.729 70.6836C361.738 70.2797 361.594 70.0564 361.298 70.0135C357.424 69.4751 353.456 69.007 349.393 68.6092C337.426 67.4283 325.456 66.2717 313.484 65.1397C305.004 64.3412 298.708 63.1664 291.461 63.4601C291.322 63.4662 291.252 63.5641 291.252 63.7538ZM291.219 118.723C291.219 118.77 291.228 118.815 291.243 118.856C291.259 118.897 291.282 118.932 291.309 118.959C291.337 118.986 291.369 119.003 291.402 119.01C291.436 119.017 291.47 119.013 291.502 118.999L308.186 111.482C308.229 111.462 308.266 111.426 308.292 111.376C308.319 111.327 308.334 111.267 308.334 111.206L308.28 70.1784C308.28 70.1036 308.259 70.0316 308.222 69.977C308.184 69.9224 308.133 69.8894 308.078 69.8847L291.549 68.1867C291.52 68.1842 291.491 68.1897 291.464 68.2028C291.437 68.2158 291.412 68.2363 291.39 68.2628C291.369 68.2894 291.352 68.3214 291.34 68.3573C291.327 68.3931 291.321 68.4318 291.32 68.4712L291.219 118.723ZM310.878 70.6804C310.877 70.5392 310.836 70.404 310.762 70.3045C310.689 70.2051 310.589 70.1495 310.485 70.15L309.798 70.1532C309.747 70.1534 309.696 70.1674 309.648 70.1944C309.601 70.2214 309.558 70.2608 309.522 70.3104C309.486 70.36 309.457 70.4188 309.438 70.4835C309.418 70.5482 309.408 70.6175 309.408 70.6874L309.512 110.981C309.512 111.122 309.553 111.257 309.627 111.357C309.701 111.456 309.8 111.512 309.904 111.511L310.591 111.508C310.643 111.508 310.694 111.494 310.741 111.467C310.788 111.44 310.831 111.4 310.868 111.351C310.904 111.301 310.932 111.242 310.952 111.178C310.971 111.113 310.981 111.044 310.981 110.974L310.878 70.6804ZM350.047 92.3172C351.458 92.0969 352.876 92.051 354.301 92.1795C355.824 92.3171 356.727 91.4911 357.981 90.5732C358.086 90.4977 358.203 90.4606 358.321 90.4654C358.439 90.4702 358.554 90.5169 358.655 90.6008C359.446 91.2616 360.296 91.7236 361.203 91.9867C361.251 92.0006 361.301 91.9996 361.348 91.9837C361.395 91.9679 361.44 91.9376 361.477 91.8953C361.515 91.8529 361.545 91.7994 361.565 91.739C361.585 91.6785 361.595 91.6126 361.594 91.5461L361.439 75.7867C361.435 75.4502 361.311 75.2696 361.069 75.2451L312.668 70.3989C312.421 70.3745 312.298 70.5305 312.298 70.8671L312.385 111.748C312.385 111.974 312.468 112.106 312.635 112.143C321.865 114.272 331.145 115.897 340.475 117.016C340.589 117.031 340.704 117 340.806 116.928C340.907 116.857 340.991 116.747 341.048 116.613C344.324 108.945 347.178 101 349.609 92.7761C349.69 92.5007 349.836 92.3478 350.047 92.3172ZM356.559 94.8964L357.8 95.5572C358.06 95.698 358.235 95.5878 358.325 95.2268L358.541 94.3273C358.558 94.2589 358.562 94.1863 358.555 94.115C358.548 94.0436 358.529 93.9754 358.5 93.9154C358.471 93.8553 358.432 93.805 358.387 93.7683C358.341 93.7316 358.29 93.7093 358.238 93.7032C357.68 93.6481 357.134 93.7185 356.6 93.9143C356.521 93.9404 356.451 94.0002 356.399 94.0849C356.347 94.1697 356.317 94.2748 356.312 94.3849C356.308 94.495 356.329 94.6041 356.374 94.6962C356.418 94.7883 356.483 94.8585 356.559 94.8964ZM352.501 95.1076C352.07 94.82 352.005 94.9301 352.306 95.438C353.434 97.3471 354.827 98.782 356.485 99.7427C356.55 99.7802 356.619 99.7997 356.689 99.8C356.759 99.8003 356.829 99.7815 356.893 99.7446C356.957 99.7077 357.015 99.6535 357.063 99.5854C357.111 99.5172 357.149 99.4364 357.173 99.348L357.321 98.7881C357.393 98.5311 357.339 98.3415 357.159 98.2191L352.501 95.1076ZM361.413 95.5116C361.655 95.2974 361.667 95.0618 361.446 94.8048C361.226 94.5478 360.849 94.609 360.314 94.9884C360.035 95.1781 359.869 95.4626 359.815 95.842C359.766 96.1847 359.867 96.3193 360.118 96.2459C360.586 96.1051 361.017 95.8604 361.413 95.5116ZM355.966 102.194C353.606 101.478 351.685 100.275 351.375 96.6038C351.37 96.5322 351.349 96.4651 351.313 96.4127C351.277 96.3602 351.23 96.3251 351.178 96.3127C351.125 96.3003 351.071 96.3112 351.023 96.3439C350.974 96.3765 350.935 96.429 350.91 96.4937L343.488 116.42C343.445 116.534 343.433 116.665 343.455 116.789C343.478 116.912 343.533 117.02 343.609 117.09L348.861 122.157C348.899 122.193 348.943 122.217 348.989 122.228C349.035 122.24 349.082 122.237 349.127 122.222C349.172 122.206 349.213 122.177 349.249 122.137C349.284 122.098 349.313 122.048 349.333 121.991L356.242 102.964C356.269 102.89 356.283 102.808 356.283 102.726C356.284 102.643 356.27 102.561 356.243 102.486C356.216 102.412 356.178 102.347 356.129 102.296C356.081 102.245 356.025 102.21 355.966 102.194ZM359.849 99.3572C357.051 105.479 354.807 112.84 352.225 119.541C351.766 120.722 351.445 121.997 351.261 123.368C351.216 123.705 351.317 123.882 351.564 123.9L361.123 124.598C361.15 124.599 361.177 124.593 361.202 124.58C361.228 124.568 361.251 124.548 361.27 124.523C361.29 124.499 361.305 124.469 361.316 124.436C361.326 124.403 361.332 124.368 361.332 124.332L361.669 98.164C361.67 98.1193 361.662 98.0751 361.647 98.035C361.633 97.9949 361.611 97.96 361.584 97.9332C361.557 97.9064 361.526 97.8884 361.493 97.8806C361.459 97.8729 361.425 97.8756 361.393 97.8886C360.664 98.2007 360.15 98.6902 359.849 99.3572ZM338.958 124.148L340.549 120.119C340.574 120.055 340.587 119.985 340.587 119.913C340.588 119.841 340.576 119.77 340.552 119.706C340.528 119.643 340.493 119.589 340.45 119.549C340.407 119.509 340.358 119.484 340.306 119.477C330.181 118.008 320.106 116.074 310.08 113.676C309.244 113.474 307.714 113.96 306.918 114.364C303.426 116.133 299.903 117.558 296.348 118.641C295.742 118.825 295.721 119.094 296.288 119.449C296.962 119.865 297.831 120.174 298.896 120.376C311.511 122.762 324.157 124.803 336.835 126.498C340.333 126.966 343.569 127.737 346.966 128.591C347.223 128.658 347.353 128.514 347.357 128.159C347.362 127.756 347.214 127.44 346.912 127.214C345.618 126.235 343.863 125.134 341.648 123.91C341.432 123.787 341.263 123.864 341.142 124.139L340.758 125.03C340.678 125.216 340.553 125.359 340.404 125.434C340.256 125.509 340.092 125.512 339.942 125.443L339.241 125.121C338.864 124.944 338.769 124.62 338.958 124.148ZM343.926 123.598C345.328 124.375 346.594 125.265 347.722 126.269C348.023 126.538 348.187 126.428 348.214 125.938L348.234 125.608C348.252 125.265 348.166 124.974 347.978 124.736L342.908 118.43C342.874 118.389 342.833 118.358 342.789 118.342C342.744 118.326 342.697 118.324 342.652 118.336C342.607 118.349 342.565 118.375 342.529 118.414C342.492 118.452 342.463 118.502 342.443 118.559C341.63 120.921 342.124 122.6 343.926 123.598ZM291.407 121.201L291.293 124.138C291.288 124.267 291.331 124.34 291.421 124.359C301.825 126.109 312.237 127.975 322.659 129.958C335.554 132.417 348.382 134.189 361.291 135.924C361.395 135.936 361.446 135.872 361.446 135.731V133.17C361.446 133.042 361.399 132.968 361.305 132.95C340.084 129.658 318.881 126.133 297.697 122.376C295.728 122.027 293.684 121.581 291.563 121.036C291.464 121.012 291.412 121.067 291.407 121.201ZM361.487 130.16L361.426 127.673C361.417 127.3 361.273 127.092 360.995 127.049L351.955 125.709C351.569 125.653 351.179 125.739 350.827 125.957C350.475 126.175 350.173 126.517 349.953 126.948L349.744 127.352C349.29 128.239 349.456 128.744 350.243 128.866L361.123 130.619C361.169 130.626 361.217 130.619 361.261 130.598C361.306 130.578 361.346 130.545 361.381 130.502C361.415 130.458 361.443 130.405 361.461 130.347C361.479 130.288 361.488 130.224 361.487 130.16ZM303.224 151.179C304.383 149.224 306.291 148.545 307.956 147.645C308.145 147.541 308.239 147.352 308.239 147.076L308.26 129.683C308.26 129.401 308.156 129.242 307.949 129.206L291.69 126.489C291.425 126.446 291.292 126.605 291.292 126.966L291.212 175.071C291.212 175.493 291.342 175.591 291.603 175.364C295.121 172.299 298.818 169.695 302.691 167.553C302.921 167.425 303.035 167.192 303.035 166.856L303.015 151.977C303.015 151.678 303.085 151.411 303.224 151.179ZM310.94 129.886C310.94 129.832 310.933 129.778 310.917 129.728C310.902 129.678 310.88 129.633 310.852 129.594C310.824 129.556 310.79 129.525 310.754 129.504C310.717 129.483 310.677 129.473 310.637 129.473L309.721 129.47C309.681 129.47 309.641 129.481 309.605 129.502C309.568 129.522 309.534 129.553 309.506 129.591C309.478 129.629 309.455 129.675 309.44 129.725C309.425 129.775 309.417 129.828 309.417 129.883L309.395 146.826C309.395 146.88 309.403 146.934 309.418 146.984C309.433 147.034 309.455 147.08 309.484 147.118C309.512 147.157 309.545 147.187 309.582 147.208C309.619 147.229 309.658 147.24 309.698 147.24L310.615 147.242C310.655 147.242 310.694 147.232 310.731 147.211C310.768 147.19 310.801 147.16 310.829 147.122C310.858 147.083 310.88 147.038 310.895 146.988C310.911 146.938 310.919 146.884 310.919 146.83L310.94 129.886ZM326.689 149.554L326.602 167.884C326.597 168.318 326.755 168.56 327.074 168.609L332.305 169.435C332.57 169.478 332.702 169.315 332.702 168.948L332.783 152.666C332.783 152.323 332.898 152.081 333.127 151.941C336.151 150.086 339.225 148.379 342.349 146.819C343.203 146.391 344.09 146.284 345.011 146.498C350.382 147.74 355.732 148.844 361.062 149.811C361.3 149.86 361.419 149.719 361.419 149.389L361.399 138.623C361.399 138.366 361.302 138.216 361.109 138.173C358.012 137.53 355.676 137.108 354.098 136.906C340.436 135.126 326.676 132.895 312.816 130.215C312.754 130.202 312.69 130.207 312.63 130.231C312.569 130.255 312.513 130.297 312.465 130.354C312.417 130.41 312.378 130.48 312.352 130.559C312.325 130.639 312.311 130.725 312.311 130.812L312.277 146.736C312.277 146.999 312.374 147.149 312.567 147.186L324.411 149.279C324.631 149.316 324.854 149.312 325.078 149.27L326.251 149.031C326.306 149.019 326.361 149.023 326.414 149.044C326.467 149.065 326.516 149.102 326.558 149.152C326.6 149.201 326.633 149.263 326.656 149.333C326.678 149.402 326.69 149.478 326.689 149.554ZM360.927 152.243C354.555 151.019 348.964 149.985 344.156 149.141C343.068 148.945 342.118 149.135 341.304 149.71C340.5 150.267 340.543 150.649 341.432 150.857C347.908 152.387 354.42 153.458 360.968 154.07C361.246 154.094 361.379 153.917 361.366 153.537L361.345 152.867C361.332 152.5 361.193 152.292 360.927 152.243ZM323.07 151.28C319.679 150.646 316.214 150.16 312.803 149.765C310.637 149.508 308.653 149.943 306.851 151.069C306.253 151.442 306.282 151.656 306.939 151.711C311.545 152.06 316.255 152.528 321.068 153.115C321.773 153.201 322.472 152.705 323.164 151.628C323.29 151.426 323.258 151.31 323.07 151.28ZM338.075 152.758C336.963 152.574 335.931 153.639 334.981 154.318C334.783 154.459 334.673 154.679 334.651 154.979C334.583 155.97 335.008 156.512 335.736 156.686C343.182 158.424 350.611 160.036 358.022 161.523C358.134 161.547 358.197 161.48 358.21 161.321L358.621 156.438C358.635 156.285 358.585 156.199 358.473 156.181C351.71 155.018 344.91 153.877 338.075 152.758ZM321.634 156.31L321.371 155.621C321.272 155.364 321.115 155.227 320.899 155.208L305.065 153.676C304.917 153.663 304.845 153.758 304.849 153.96L304.91 156.053C304.911 156.129 304.933 156.203 304.972 156.258C305.01 156.314 305.063 156.349 305.119 156.356C310.476 157.188 315.848 157.485 321.236 157.246C321.297 157.243 321.358 157.258 321.415 157.288C321.472 157.319 321.523 157.364 321.567 157.423C321.61 157.481 321.645 157.551 321.668 157.628C321.691 157.704 321.702 157.787 321.702 157.87L321.567 174.905C321.562 175.499 321.749 175.643 322.126 175.337L324.378 173.501C324.54 173.366 324.675 173.177 324.77 172.952C324.864 172.728 324.915 172.474 324.917 172.216L325.146 153.428C325.155 153.012 325.045 152.941 324.816 153.217L322.14 156.438C322.103 156.483 322.06 156.516 322.012 156.534C321.965 156.552 321.915 156.554 321.867 156.542C321.818 156.53 321.772 156.502 321.731 156.462C321.691 156.422 321.658 156.37 321.634 156.31ZM359.519 160.586C359.429 161.021 359.528 161.125 359.815 160.898C360.588 160.286 361.145 159.43 361.487 158.328C361.513 158.242 361.526 158.15 361.523 158.057C361.52 157.964 361.502 157.873 361.471 157.791C361.439 157.709 361.394 157.638 361.34 157.583C361.286 157.529 361.223 157.492 361.157 157.475L360.793 157.383C360.402 157.279 360.152 157.49 360.044 158.016L359.519 160.586ZM319.841 179.164C319.873 179.169 319.906 179.165 319.937 179.152C319.968 179.138 319.997 179.116 320.021 179.087C320.045 179.057 320.064 179.021 320.077 178.981C320.091 178.94 320.097 178.896 320.097 178.852L320.218 159.963C320.22 159.881 320.199 159.802 320.159 159.742C320.118 159.682 320.062 159.646 320.003 159.641L305.2 158.577C305.168 158.574 305.137 158.58 305.108 158.595C305.078 158.61 305.051 158.632 305.029 158.661C305.006 158.691 304.988 158.726 304.975 158.765C304.963 158.804 304.957 158.846 304.957 158.889L305.011 176.135C305.01 176.211 305.03 176.284 305.066 176.341C305.102 176.398 305.151 176.436 305.206 176.447L319.841 179.164ZM334.502 185.011C334.522 184.884 334.574 184.771 334.649 184.691C334.725 184.612 334.818 184.573 334.914 184.58C341.304 185.13 347.937 187.232 354.267 188.673C355.498 188.949 356.676 189.459 357.799 190.206C357.939 190.298 358.008 190.237 358.008 190.022L358.055 164.057C358.055 163.818 357.97 163.68 357.799 163.643L334.907 158.825C334.687 158.776 334.577 158.904 334.577 159.21L334.475 184.809C334.471 185.127 334.433 185.436 334.361 185.736L334.172 186.535C334.091 186.871 334.177 187.079 334.428 187.159C342.212 189.612 350.074 191.433 358.015 192.62C358.1 192.632 358.148 192.58 358.156 192.464L358.183 192.207C358.21 191.895 358.107 191.714 357.873 191.665C350.323 190.142 342.783 188.392 335.251 186.415C334.648 186.256 334.399 185.788 334.502 185.011ZM361.473 162.844C361.473 162.782 361.459 162.72 361.433 162.668C361.407 162.617 361.37 162.577 361.327 162.554C361.284 162.531 361.237 162.527 361.192 162.541C361.147 162.555 361.107 162.587 361.075 162.633L359.72 164.625C359.681 164.682 359.66 164.758 359.66 164.836L359.511 188.342C359.511 188.394 359.521 188.446 359.539 188.491C359.558 188.537 359.584 188.576 359.616 188.604C359.648 188.633 359.685 188.65 359.724 188.654C359.762 188.657 359.8 188.648 359.835 188.627L361.15 187.846C361.19 187.822 361.224 187.782 361.248 187.731C361.272 187.681 361.284 187.622 361.284 187.562L361.473 162.844ZM302.888 179.21C302.937 179.225 302.989 179.225 303.039 179.209C303.088 179.194 303.135 179.163 303.175 179.12C303.215 179.077 303.247 179.023 303.27 178.96C303.293 178.898 303.305 178.83 303.305 178.76L303.42 170.179C303.422 170.097 303.408 170.017 303.38 169.945C303.352 169.874 303.311 169.813 303.261 169.77C303.21 169.726 303.153 169.701 303.093 169.697C303.034 169.693 302.974 169.711 302.921 169.747L294.111 175.805C294.048 175.849 293.997 175.918 293.964 176.003C293.932 176.088 293.919 176.184 293.928 176.279C293.936 176.374 293.967 176.464 294.014 176.535C294.061 176.606 294.123 176.655 294.192 176.677L302.888 179.21ZM326.076 175.732C323.71 176.301 322.416 178.871 321.074 181.211C321.007 181.326 320.918 181.415 320.818 181.47C320.718 181.524 320.609 181.543 320.501 181.523C315.706 180.575 310.902 179.531 306.089 178.393C305.15 178.173 304.354 178.265 303.703 178.669C303.316 178.907 303.332 179.079 303.75 179.183L332.325 186.406C332.367 186.417 332.41 186.415 332.452 186.401C332.493 186.386 332.532 186.36 332.566 186.323C332.599 186.287 332.626 186.241 332.645 186.188C332.664 186.136 332.674 186.079 332.676 186.021L332.75 173.318C332.754 172.394 332.422 171.873 331.752 171.757L327.552 171.014C327.009 170.916 326.719 171.24 326.683 171.987L326.528 175.043C326.51 175.435 326.359 175.664 326.076 175.732ZM291.421 178.54L291.4 181.302C291.4 181.792 291.58 182.021 291.94 181.991C292.286 181.966 292.782 182.034 293.43 182.193C307.788 185.827 322.085 189.903 336.471 193.354C344.526 195.281 352.636 197.934 360.752 199.109C360.999 199.145 361.132 198.992 361.149 198.65L361.251 196.373C361.269 196.019 361.145 195.82 360.88 195.777C355.137 194.871 350.135 193.84 345.874 192.684C328.424 187.972 310.938 183.505 293.416 179.283C293.003 179.185 292.47 178.839 291.818 178.246C291.553 178.007 291.421 178.105 291.421 178.54ZM361.17 191.16L359.727 192.243C359.323 192.543 359.345 192.76 359.794 192.895L360.812 193.189C361.104 193.274 361.295 193.124 361.385 192.739C361.489 192.286 361.511 191.821 361.453 191.344C361.447 191.303 361.434 191.265 361.415 191.232C361.397 191.199 361.373 191.173 361.345 191.155C361.318 191.137 361.287 191.129 361.257 191.129C361.226 191.13 361.197 191.141 361.17 191.16ZM376.944 192.602C376.939 192.539 376.92 192.479 376.89 192.431C376.86 192.383 376.82 192.347 376.775 192.33C376.731 192.312 376.683 192.313 376.639 192.332C376.594 192.351 376.555 192.387 376.526 192.436C375.775 193.721 375.555 195.175 375.865 196.796C375.933 197.157 376.106 197.338 376.384 197.338H376.816C377.13 197.338 377.272 197.12 377.24 196.686L376.944 192.602Z" fill="#3A3541"/>
<mask id="path-2-inside-1_296_1416" fill="white">
<path d="M30.3473 42.8241C42.2885 40.3963 54.5309 39.5364 66.6761 40.2344C71.4661 40.6188 76.3922 41.7013 80.4342 44.5438C84.1943 47.4269 85.438 52.3938 86.565 56.855C89.1593 68.3973 91.1802 80.1116 91.7729 91.9675C114.557 94.3751 137.594 94.7595 160.194 98.9475C162.847 99.3623 165.83 100.182 167.297 102.731C168.453 105.351 167.86 108.315 167.753 111.077C166.84 128.759 165.907 146.432 165.266 164.125C165.227 166.097 163.731 167.827 161.904 168.252C158.426 168.849 154.928 169.254 151.44 169.82C150.779 174.797 150.915 179.845 150.449 184.842C147.019 185.095 143.56 185.146 140.14 184.731C140.509 180.047 139.975 175.262 141.403 170.73C139.557 171.155 137.721 171.58 135.845 171.833C119.221 174.2 102.723 177.427 86.1667 180.229C80.6285 181.059 75.0611 181.818 69.7075 183.588C67.5797 183.689 65.4421 183.477 63.3143 183.537C63.188 188.251 63.4114 192.965 63.664 197.679C60.2537 197.983 56.8336 198.033 53.4135 197.983C53.0248 193.633 52.8985 189.263 53.054 184.903C43.0269 181.899 33.3593 177.731 23.4877 174.22C23.5654 176.294 23.5751 178.378 23.5071 180.462C20.2134 180.573 16.9196 180.614 13.6258 180.846C13.927 177.488 14.0727 174.109 14.063 170.73C10.1766 169.324 4.76465 169.415 2.50078 165.349C0.421521 145.117 0.674141 124.713 0.00372569 104.39C-0.0740036 102.377 1.0725 100.465 2.6951 99.4432C6.53299 97.3897 10.847 96.459 15.1512 96.7018C13.4703 83.7837 11.5077 70.8555 10.9247 57.816C10.5069 53.9416 13.0525 50.6438 15.7633 48.3475C20.0676 45.2216 25.3629 44.1898 30.3473 42.8241ZM51.5286 43.6132C42.9686 44.4225 34.0589 44.382 25.9945 47.8518C22.9922 49.0151 23.546 53.1121 23.7889 55.7625C25.1977 65.4839 27.1021 75.1143 28.9773 84.7548C29.8129 89.5498 31.7076 94.0919 32.2808 98.9475C41.1808 100.839 50.2654 101.608 59.2043 103.287C62.5758 104.076 66.1903 104.784 68.8913 107.172C71.7382 109.731 72.1948 113.828 73.1859 117.379C78.6269 117.369 84 116.327 89.3147 115.204C89.5382 109.903 89.6354 104.602 89.4896 99.3117C88.45 83.0756 86.7594 66.6877 81.6875 51.2103C80.2884 47.0324 75.9064 45.3936 72.156 44.382C65.3935 42.8039 58.3882 43.34 51.5286 43.6132ZM14.5488 54.8925C14.1796 59.2626 14.6071 63.6731 15.0444 68.023C16.3075 77.6433 17.2111 87.3243 18.7365 96.9041C22.1274 97.4908 25.5281 97.9562 28.9288 98.5024C27.073 90.3389 24.7119 82.2865 23.614 73.951C22.7201 65.6963 19.4361 57.4316 21.8359 49.1264C19.2709 50.6134 15.2581 51.4126 14.5488 54.8925ZM92.0255 95.9532C92.2296 96.6006 92.6474 97.8752 92.8514 98.5227C105.57 99.7973 118.376 100.212 131.104 101.557C137.876 102.326 144.755 102.205 151.43 103.712C153.276 104.086 155.161 103.975 157.036 103.965C155.968 104.461 154.909 104.967 153.859 105.493C155.492 111.036 154.879 116.914 154.899 122.629C154.5 130.681 155.258 138.794 154.122 146.806C152.936 153.463 154.345 160.291 153.072 166.947C155.812 166.805 158.552 166.401 161.166 165.49C163.08 158.136 162.39 150.458 163.128 142.962C163.449 129.983 164.217 117.035 164.877 104.086C163.507 103.206 161.992 102.62 160.35 102.68C160.262 102.225 160.087 101.315 160 100.87C159.932 101.477 159.796 102.711 159.728 103.328C142.929 99.2713 125.614 98.8363 108.514 97.0559C103.024 96.5804 97.5443 95.7307 92.0255 95.9532ZM4.33714 100.809C6.78561 101.952 9.51585 102.094 12.1392 102.569C24.3136 104.38 36.245 107.748 48.4485 109.377C48.74 109.519 49.3133 109.812 49.595 109.954C50.5375 116.822 49.9643 123.782 50.1489 130.681C50.5084 142.143 50.246 153.614 50.3432 165.076C50.4792 170.498 49.7991 175.93 50.4598 181.332C56.4061 182.131 62.469 181.514 68.3958 180.826C69.8435 175.748 69.0565 170.306 69.212 165.086C68.9982 147.899 69.5035 130.712 69.4063 113.525C69.484 112.361 68.4735 111.198 67.3756 111.127C61.7694 110.308 55.9591 111.775 50.4695 110.257C50.3529 109.933 50.1197 109.286 50.0031 108.962C55.0069 108.274 60.0788 108.446 65.102 108.042C62.4884 107.475 59.8359 107.172 57.1834 106.889C44.6495 105.958 32.31 103.348 19.9704 101.031C14.8014 99.9895 9.545 100.516 4.33714 100.809ZM92.6862 101.649C92.7931 105.857 92.9194 110.075 92.8611 114.283C99.3418 114.789 105.842 115.103 112.293 115.952C122.991 117.601 133.863 117.986 144.425 120.535C147.029 121.273 149.574 122.659 151.343 124.824C152.373 126.756 152.13 129.113 152.645 131.228C153.218 125.32 153.208 119.372 153.072 113.444C153.072 111.178 152.538 108.983 151.673 106.919C146.543 105.24 141.112 105.149 135.807 104.683C121.446 103.48 107.056 102.69 92.6862 101.649ZM3.26836 103.5C3.58899 122.052 4.41487 140.615 5.16301 159.158C5.46421 160.938 5.17273 163.518 6.9605 164.499C20.2814 169.658 33.8646 174.099 47.098 179.521C47.4089 157.094 46.7676 134.667 47.2146 112.24C32.6015 109.144 17.9592 106.201 3.26836 103.5ZM72.0977 119.827C71.8548 123.641 71.7576 127.454 71.9034 131.278C76.5477 129.781 81.2697 128.385 86.1861 128.456C105.793 126.544 125.41 124.531 145.105 123.701C135.807 120.737 125.916 120.707 116.326 119.402C109.252 118.39 102.13 117.561 94.989 117.49C87.3035 117.581 79.7443 119.179 72.0977 119.827ZM103.656 129.842C92.9194 131.147 82.0859 131.541 71.4467 133.575C71.4175 138.804 71.4856 144.024 71.4661 149.254C76.0619 148.566 80.7159 148.303 85.3117 147.565C105.346 144.571 125.517 142.861 145.581 140.14C147.349 139.776 149.322 139.725 150.847 138.622C152.198 134.839 151.265 130.418 149.118 127.161C146.737 126.079 144.056 126.473 141.539 126.524C128.908 127.576 116.248 128.334 103.656 129.842ZM137.604 143.539C125.177 145.016 112.702 146.139 100.294 147.798C90.6264 148.88 81.056 150.782 71.3495 151.49C71.3398 154.565 71.3787 157.651 71.4953 160.726C83.6016 159.856 95.6302 158.177 107.678 156.659C121.145 154.818 134.631 153.048 147.942 150.175C152.178 149.568 151.362 143.832 152.207 140.625C147.495 142.325 142.53 142.912 137.604 143.539ZM143.443 154.241C119.513 157.812 95.5234 160.989 71.4564 163.336C71.5633 168.798 71.8936 174.261 71.9811 179.724C97.8844 174.797 123.797 169.78 149.973 166.644C150.663 161.788 150.76 156.882 150.701 151.996C148.34 152.936 145.95 153.857 143.443 154.241ZM143.443 170.68C143.327 174.301 143.414 177.923 143.201 181.544C144.988 181.585 146.786 181.625 148.574 181.676C148.943 177.802 149.166 173.907 149.04 170.012C147.174 170.275 145.309 170.478 143.443 170.68ZM15.8605 171.155C15.8994 173.32 15.9674 175.495 16.0743 177.67C18.1049 177.842 19.8733 176.83 21.593 175.849C20.806 175.829 19.2417 175.799 18.4547 175.778C18.4839 174.979 18.5325 173.391 18.5616 172.592C17.658 172.106 16.7641 171.631 15.8605 171.155ZM19.5235 173.138C19.1543 174.575 19.6304 175.141 20.9421 174.848C21.3016 173.421 20.8255 172.845 19.5235 173.138ZM56.0077 184.316C55.5122 187.968 55.7551 191.711 56.2603 195.363C57.5429 194.867 59.3501 195.07 60.1176 193.653C60.3606 190.305 60.6229 186.835 59.8942 183.537C58.6991 183.719 56.4741 182.688 56.0077 184.316Z"/>
</mask>
<path d="M30.3473 42.8241C42.2885 40.3963 54.5309 39.5364 66.6761 40.2344C71.4661 40.6188 76.3922 41.7013 80.4342 44.5438C84.1943 47.4269 85.438 52.3938 86.565 56.855C89.1593 68.3973 91.1802 80.1116 91.7729 91.9675C114.557 94.3751 137.594 94.7595 160.194 98.9475C162.847 99.3623 165.83 100.182 167.297 102.731C168.453 105.351 167.86 108.315 167.753 111.077C166.84 128.759 165.907 146.432 165.266 164.125C165.227 166.097 163.731 167.827 161.904 168.252C158.426 168.849 154.928 169.254 151.44 169.82C150.779 174.797 150.915 179.845 150.449 184.842C147.019 185.095 143.56 185.146 140.14 184.731C140.509 180.047 139.975 175.262 141.403 170.73C139.557 171.155 137.721 171.58 135.845 171.833C119.221 174.2 102.723 177.427 86.1667 180.229C80.6285 181.059 75.0611 181.818 69.7075 183.588C67.5797 183.689 65.4421 183.477 63.3143 183.537C63.188 188.251 63.4114 192.965 63.664 197.679C60.2537 197.983 56.8336 198.033 53.4135 197.983C53.0248 193.633 52.8985 189.263 53.054 184.903C43.0269 181.899 33.3593 177.731 23.4877 174.22C23.5654 176.294 23.5751 178.378 23.5071 180.462C20.2134 180.573 16.9196 180.614 13.6258 180.846C13.927 177.488 14.0727 174.109 14.063 170.73C10.1766 169.324 4.76465 169.415 2.50078 165.349C0.421521 145.117 0.674141 124.713 0.00372569 104.39C-0.0740036 102.377 1.0725 100.465 2.6951 99.4432C6.53299 97.3897 10.847 96.459 15.1512 96.7018C13.4703 83.7837 11.5077 70.8555 10.9247 57.816C10.5069 53.9416 13.0525 50.6438 15.7633 48.3475C20.0676 45.2216 25.3629 44.1898 30.3473 42.8241ZM51.5286 43.6132C42.9686 44.4225 34.0589 44.382 25.9945 47.8518C22.9922 49.0151 23.546 53.1121 23.7889 55.7625C25.1977 65.4839 27.1021 75.1143 28.9773 84.7548C29.8129 89.5498 31.7076 94.0919 32.2808 98.9475C41.1808 100.839 50.2654 101.608 59.2043 103.287C62.5758 104.076 66.1903 104.784 68.8913 107.172C71.7382 109.731 72.1948 113.828 73.1859 117.379C78.6269 117.369 84 116.327 89.3147 115.204C89.5382 109.903 89.6354 104.602 89.4896 99.3117C88.45 83.0756 86.7594 66.6877 81.6875 51.2103C80.2884 47.0324 75.9064 45.3936 72.156 44.382C65.3935 42.8039 58.3882 43.34 51.5286 43.6132ZM14.5488 54.8925C14.1796 59.2626 14.6071 63.6731 15.0444 68.023C16.3075 77.6433 17.2111 87.3243 18.7365 96.9041C22.1274 97.4908 25.5281 97.9562 28.9288 98.5024C27.073 90.3389 24.7119 82.2865 23.614 73.951C22.7201 65.6963 19.4361 57.4316 21.8359 49.1264C19.2709 50.6134 15.2581 51.4126 14.5488 54.8925ZM92.0255 95.9532C92.2296 96.6006 92.6474 97.8752 92.8514 98.5227C105.57 99.7973 118.376 100.212 131.104 101.557C137.876 102.326 144.755 102.205 151.43 103.712C153.276 104.086 155.161 103.975 157.036 103.965C155.968 104.461 154.909 104.967 153.859 105.493C155.492 111.036 154.879 116.914 154.899 122.629C154.5 130.681 155.258 138.794 154.122 146.806C152.936 153.463 154.345 160.291 153.072 166.947C155.812 166.805 158.552 166.401 161.166 165.49C163.08 158.136 162.39 150.458 163.128 142.962C163.449 129.983 164.217 117.035 164.877 104.086C163.507 103.206 161.992 102.62 160.35 102.68C160.262 102.225 160.087 101.315 160 100.87C159.932 101.477 159.796 102.711 159.728 103.328C142.929 99.2713 125.614 98.8363 108.514 97.0559C103.024 96.5804 97.5443 95.7307 92.0255 95.9532ZM4.33714 100.809C6.78561 101.952 9.51585 102.094 12.1392 102.569C24.3136 104.38 36.245 107.748 48.4485 109.377C48.74 109.519 49.3133 109.812 49.595 109.954C50.5375 116.822 49.9643 123.782 50.1489 130.681C50.5084 142.143 50.246 153.614 50.3432 165.076C50.4792 170.498 49.7991 175.93 50.4598 181.332C56.4061 182.131 62.469 181.514 68.3958 180.826C69.8435 175.748 69.0565 170.306 69.212 165.086C68.9982 147.899 69.5035 130.712 69.4063 113.525C69.484 112.361 68.4735 111.198 67.3756 111.127C61.7694 110.308 55.9591 111.775 50.4695 110.257C50.3529 109.933 50.1197 109.286 50.0031 108.962C55.0069 108.274 60.0788 108.446 65.102 108.042C62.4884 107.475 59.8359 107.172 57.1834 106.889C44.6495 105.958 32.31 103.348 19.9704 101.031C14.8014 99.9895 9.545 100.516 4.33714 100.809ZM92.6862 101.649C92.7931 105.857 92.9194 110.075 92.8611 114.283C99.3418 114.789 105.842 115.103 112.293 115.952C122.991 117.601 133.863 117.986 144.425 120.535C147.029 121.273 149.574 122.659 151.343 124.824C152.373 126.756 152.13 129.113 152.645 131.228C153.218 125.32 153.208 119.372 153.072 113.444C153.072 111.178 152.538 108.983 151.673 106.919C146.543 105.24 141.112 105.149 135.807 104.683C121.446 103.48 107.056 102.69 92.6862 101.649ZM3.26836 103.5C3.58899 122.052 4.41487 140.615 5.16301 159.158C5.46421 160.938 5.17273 163.518 6.9605 164.499C20.2814 169.658 33.8646 174.099 47.098 179.521C47.4089 157.094 46.7676 134.667 47.2146 112.24C32.6015 109.144 17.9592 106.201 3.26836 103.5ZM72.0977 119.827C71.8548 123.641 71.7576 127.454 71.9034 131.278C76.5477 129.781 81.2697 128.385 86.1861 128.456C105.793 126.544 125.41 124.531 145.105 123.701C135.807 120.737 125.916 120.707 116.326 119.402C109.252 118.39 102.13 117.561 94.989 117.49C87.3035 117.581 79.7443 119.179 72.0977 119.827ZM103.656 129.842C92.9194 131.147 82.0859 131.541 71.4467 133.575C71.4175 138.804 71.4856 144.024 71.4661 149.254C76.0619 148.566 80.7159 148.303 85.3117 147.565C105.346 144.571 125.517 142.861 145.581 140.14C147.349 139.776 149.322 139.725 150.847 138.622C152.198 134.839 151.265 130.418 149.118 127.161C146.737 126.079 144.056 126.473 141.539 126.524C128.908 127.576 116.248 128.334 103.656 129.842ZM137.604 143.539C125.177 145.016 112.702 146.139 100.294 147.798C90.6264 148.88 81.056 150.782 71.3495 151.49C71.3398 154.565 71.3787 157.651 71.4953 160.726C83.6016 159.856 95.6302 158.177 107.678 156.659C121.145 154.818 134.631 153.048 147.942 150.175C152.178 149.568 151.362 143.832 152.207 140.625C147.495 142.325 142.53 142.912 137.604 143.539ZM143.443 154.241C119.513 157.812 95.5234 160.989 71.4564 163.336C71.5633 168.798 71.8936 174.261 71.9811 179.724C97.8844 174.797 123.797 169.78 149.973 166.644C150.663 161.788 150.76 156.882 150.701 151.996C148.34 152.936 145.95 153.857 143.443 154.241ZM143.443 170.68C143.327 174.301 143.414 177.923 143.201 181.544C144.988 181.585 146.786 181.625 148.574 181.676C148.943 177.802 149.166 173.907 149.04 170.012C147.174 170.275 145.309 170.478 143.443 170.68ZM15.8605 171.155C15.8994 173.32 15.9674 175.495 16.0743 177.67C18.1049 177.842 19.8733 176.83 21.593 175.849C20.806 175.829 19.2417 175.799 18.4547 175.778C18.4839 174.979 18.5325 173.391 18.5616 172.592C17.658 172.106 16.7641 171.631 15.8605 171.155ZM19.5235 173.138C19.1543 174.575 19.6304 175.141 20.9421 174.848C21.3016 173.421 20.8255 172.845 19.5235 173.138ZM56.0077 184.316C55.5122 187.968 55.7551 191.711 56.2603 195.363C57.5429 194.867 59.3501 195.07 60.1176 193.653C60.3606 190.305 60.6229 186.835 59.8942 183.537C58.6991 183.719 56.4741 182.688 56.0077 184.316Z" stroke="#3A3541" stroke-width="2.66667" mask="url(#path-2-inside-1_296_1416)"/>
</svg>
