<svg width="656" height="200" viewBox="0 0 656 200" fill="none" xmlns="http://www.w3.org/2000/svg">
<path d="M141.353 13C147.992 13.1392 154.634 13.0433 161.272 13.1423C161.728 13.167 162.345 13.1577 162.448 13.7144C165.065 20.4621 167.84 27.1665 170.021 34.0657C170.156 34.5853 170.49 35.4512 169.639 35.5378C164.84 35.6243 160.039 35.578 155.241 35.5903C155.048 36.6016 155.151 38.2962 153.609 38.188C153.278 44.2059 153.522 50.2392 153.429 56.2633C164.616 56.3839 175.805 56.2108 186.995 56.319C188.318 56.3468 189.301 57.3055 190.351 57.9549C191.726 58.9476 193.261 59.7114 194.639 60.6917C194.632 93.1377 194.648 125.593 194.584 158.042C194.565 162.489 194.594 166.939 194.488 171.386C191.787 171.608 189.069 171.51 186.362 171.5C186.298 179.689 186.323 187.887 186.25 196.076C186.266 197.328 184.869 197.981 183.738 198.03C182.045 198.166 180.096 198.352 178.667 197.282C178.053 196.871 177.934 196.107 177.944 195.442C177.906 191.907 177.967 188.376 177.973 184.844C176.171 185.098 174.331 185.092 172.523 184.925C171.803 184.603 171.887 183.712 171.858 183.085C171.871 179.213 171.778 175.338 171.935 171.469C154.139 171.302 136.343 171.373 118.547 171.355C89.0477 171.352 59.5451 171.324 30.0457 171.389C30.1164 175.186 30.0264 178.984 30.0842 182.781C30.0232 183.536 30.142 184.646 29.2492 184.983C27.7879 185.209 26.2816 185.28 24.8139 185.095C23.9724 184.996 22.9928 184.312 23.1341 183.406C23.2016 179.439 23.1277 175.471 23.208 171.503C22.9157 171.522 22.3376 171.562 22.0454 171.581C21.8687 179.862 21.8655 188.15 21.8238 196.435C21.7949 197.362 21.0048 198.086 20.1633 198.426C18.2459 199.085 16.0909 198.977 14.2153 198.241C13.6018 197.82 13.3738 197.078 13.4252 196.382C13.5601 188.104 13.4894 179.822 13.5344 171.544C9.4459 171.673 5.35099 171.63 1.2593 171.621C0.938127 169.595 1.1244 167.536 1.03448 165.495C0.973455 130.859 1.03127 96.2239 1.00236 61.5885C1.06659 61.168 0.819294 60.5464 1.36207 60.3454C3.045 59.4516 4.78573 58.6662 6.48472 57.8003C7.57027 57.3209 8.60765 56.687 9.78313 56.4365C14.954 56.2571 20.1344 56.4458 25.3085 56.4612C25.5236 54.5934 25.1254 52.6544 25.7388 50.8392C27.0267 50.1898 28.7514 49.8898 29.5222 48.5941C29.1239 46.0706 28.9987 43.3678 30.0457 40.9681C30.4054 40.2908 30.8004 39.5177 31.5391 39.1714C40.1015 39.292 48.6671 39.1992 57.2327 39.258C58.2187 39.2889 59.2014 39.1745 60.136 38.8621C60.1007 39.9909 60.136 41.132 59.9176 42.2484C59.7635 42.9565 59.0858 43.3771 58.6073 43.8812C58.7807 45.4429 58.8032 47.0386 59.3652 48.5353C59.179 48.7178 58.9959 48.9002 58.8096 49.0858C58.7582 48.8631 58.6555 48.424 58.6041 48.2044C58.5752 48.4982 58.5141 49.0858 58.4852 49.3765C58.2733 49.1136 58.0677 48.8476 57.8654 48.5786C48.6799 48.6312 39.4913 48.5075 30.3091 48.7085C30.1934 49.0456 30.081 49.3857 29.9686 49.7259C32.3999 50.0846 34.8664 49.7475 37.3138 49.7877C43.8495 49.8929 50.3853 49.8187 56.9211 49.7723C57.2295 49.7908 57.5025 49.7012 57.7369 49.5032C58.1319 49.463 58.5302 49.4661 58.9252 49.4971C59.3941 49.1043 59.7763 48.5322 60.4219 48.4023C61.5877 48.1828 62.7857 48.3003 63.9676 48.2632C63.9804 49.4012 63.8745 50.5361 63.8263 51.6741C63.762 53.2204 64.1314 54.7697 63.8552 56.3097C76.9428 56.1953 90.0369 56.3283 103.125 56.2757C116.405 56.2912 129.682 56.2819 142.962 56.3221C145.15 56.2788 147.34 56.3561 149.524 56.2417C149.588 50.2733 149.646 44.3048 149.72 38.3395C149.72 37.9622 149.505 37.7365 149.074 37.6623C149.036 36.9819 149.013 36.3016 148.991 35.6243C143.868 35.5625 138.739 35.6305 133.616 35.5594C132.502 35.6398 132.762 34.4956 133.019 33.8369C135.026 28.456 137.04 23.0752 139.279 17.7809C139.972 16.1883 140.444 14.4998 141.353 13ZM141.764 13.9803C139.532 19.6704 137.095 25.2863 135.03 31.0321C134.628 32.2567 133.925 33.3854 133.7 34.6595C145.583 34.7832 157.473 34.6131 169.359 34.6595C167.66 30.0023 166.048 25.3141 164.198 20.7126C163.308 18.4922 162.595 16.1976 161.539 14.0452C154.948 14.0576 148.355 13.9679 141.764 13.9803ZM149.922 35.5965C149.957 36.2057 149.996 36.8149 150.044 37.4211C151.419 37.4427 152.793 37.4613 154.168 37.4087C154.277 36.8242 154.38 36.2397 154.483 35.6522C152.96 35.7017 151.441 35.68 149.922 35.5965ZM150.545 38.2375C150.298 44.1533 150.385 50.0753 150.163 55.9943C150.063 56.5633 151.319 56.5633 151.188 55.9634C151.152 50.0351 151.22 44.1069 151.505 38.1849C151.181 38.2003 150.863 38.2189 150.545 38.2375ZM152.215 38.2622C151.939 39.5208 152.106 40.8227 152.055 42.0999C151.907 46.8437 151.971 51.5876 151.958 56.3345C152.225 56.353 152.495 56.3685 152.768 56.387C152.53 50.3877 152.723 44.3791 152.697 38.3797C152.578 38.3519 152.337 38.2931 152.215 38.2622ZM31.3304 40.2816C30.6784 41.1258 30.415 42.1649 30.2448 43.1854C38.9196 43.2225 47.5944 43.1977 56.2692 43.2565C57.496 43.4668 57.9521 42.103 58.5238 41.3392C58.6747 41.5062 58.8225 41.6763 58.9702 41.8525C58.6426 42.3319 58.3182 42.8112 58.0003 43.2967C59.4198 42.7988 59.5708 41.2588 59.2625 40.028C50.228 40.0744 41.1871 40.0218 32.1526 39.9754C31.7896 39.9136 31.5167 40.0156 31.3304 40.2816ZM29.9558 43.9399C29.9333 45.2326 29.9076 46.5469 30.293 47.7993C39.5362 47.8271 48.7795 47.589 58.0195 47.7931C58.0163 46.519 58.0452 45.2388 57.8911 43.9739C48.5804 43.9337 39.2665 43.9368 29.9558 43.9399ZM60.6949 49.2868C60.2613 49.6857 59.9305 50.1712 59.5419 50.6072C58.3471 50.3444 57.1235 50.5299 55.9127 50.533C47.5623 50.666 39.2087 50.5361 30.855 50.4866C30.2673 50.4464 29.413 50.6691 29.3969 49.8465C29.3199 50.1279 29.2396 50.4093 29.1593 50.6938C29.0115 50.6289 28.7096 50.4959 28.5587 50.431C27.4988 51.0371 25.8255 51.4546 26.1114 52.9761C35.6212 52.7998 45.1406 52.9606 54.6537 52.9266C56.449 52.8987 58.2411 52.9822 60.0365 53.0719C61.2858 51.8999 63.1743 50.8887 63.0587 48.9497C62.2718 49.0672 61.4753 49.1352 60.6949 49.2868ZM61.3725 52.9791C61.0835 53.1833 60.6274 53.3904 60.7495 53.8203C60.7334 54.915 60.8362 56.0067 60.9261 57.0952C61.9667 56.9189 63.4955 56.3097 63.261 55.048C63.2096 53.9533 63.1775 52.8616 63.2546 51.77C62.6412 52.1968 62.0052 52.5864 61.3725 52.9791ZM26.0632 56.8973C37.5193 56.7025 48.9786 56.8107 60.4347 56.8756C60.4604 55.8366 60.4412 54.7944 60.2452 53.7677C59.4552 53.6719 58.6587 53.6162 57.8622 53.6131C47.2572 53.6471 36.6489 53.5605 26.0439 53.5389C25.9958 54.6583 25.9733 55.7778 26.0632 56.8973ZM10.6342 57.2065C9.16327 57.2251 7.97173 58.1404 6.69669 58.7187C5.46019 59.3929 4.09201 59.8196 2.90368 60.5742C12.1245 60.7195 21.3452 60.5587 30.566 60.6917C40.6186 60.6299 50.6712 60.7474 60.7238 60.6577C88.1067 60.5618 115.486 60.7103 142.869 60.5711C142.905 59.4145 142.93 58.258 142.882 57.1014C117.429 56.9746 91.9735 56.9839 66.5209 57.0117C64.6774 56.8787 62.927 57.4075 61.1638 57.8374C61.4143 57.9951 61.668 58.1466 61.9314 58.292C61.7708 58.3786 61.4528 58.5548 61.2955 58.6445C61.2473 58.4497 61.1477 58.0631 61.0996 57.8683C59.9466 57.5529 58.739 57.6642 57.5571 57.6302C47.4884 57.491 37.4165 57.6426 27.3479 57.556C26.2527 57.624 25.2153 57.2065 24.1298 57.1942C19.6334 57.1292 15.1274 56.9777 10.6342 57.2065ZM143.476 57.5096C143.431 58.5084 143.47 59.5073 143.447 60.5062C143.569 60.4814 143.81 60.4319 143.929 60.4072C143.858 59.2908 144.077 58.1404 143.772 57.0519C143.531 57.1076 143.434 57.2591 143.476 57.5096ZM144.69 57.2127C144.652 58.2425 144.642 59.2723 144.645 60.3021C149.98 60.2928 155.318 60.299 160.656 60.2835C160.762 59.3032 160.762 58.3105 160.595 57.3364C155.292 57.2405 149.986 57.5189 144.69 57.2127ZM161.94 57.2096C161.882 58.326 161.712 59.4516 161.931 60.5649C170.284 60.6515 178.638 60.5928 186.991 60.6144C189.095 60.6422 191.212 60.5031 193.296 60.8371C193.113 60.5835 192.84 60.4134 192.528 60.3423C190.434 59.5351 188.902 57.6024 186.677 57.1261C178.962 56.9251 171.238 57.0519 163.52 57.0488C162.987 57.0457 162.461 57.1168 161.94 57.2096ZM160.938 57.5838C160.993 58.6136 160.887 59.665 161.141 60.6793C161.214 59.6372 161.166 58.5919 161.211 57.5467L160.938 57.5838ZM2.03331 61.3102C2.0301 97.7578 2.06543 134.205 2.04295 170.656C4.19478 170.687 6.34662 170.693 8.49845 170.637C8.67188 168.819 8.54341 166.995 8.54341 165.176C8.55626 145.49 8.53378 125.803 8.57874 106.117C8.51772 92.5439 8.49845 78.9743 8.67831 65.4046C18.1046 65.5314 27.5342 65.4541 36.9637 65.4974C55.0648 65.4819 73.1659 65.5438 91.2638 65.4757C105.607 65.5561 119.951 65.5097 134.291 65.519C151.734 65.5314 169.176 65.5871 186.619 65.5469C186.661 91.0224 186.635 116.498 186.641 141.97C186.564 151.498 186.718 161.029 186.526 170.554C188.764 170.644 191.013 170.656 193.254 170.579L193.373 170.483C193.441 142.425 193.408 114.364 193.441 86.3034C193.46 77.9692 193.376 69.6289 193.64 61.2978C189.705 61.505 185.768 61.4648 181.83 61.4927C174.231 61.4772 166.629 61.5762 159.03 61.3535C152.177 61.3442 145.323 61.3009 138.472 61.4555C123.811 61.5607 109.15 61.5236 94.4883 61.4988C82.3834 61.5978 70.2754 61.4092 58.1705 61.5669C42.3593 61.5205 26.5482 61.6133 10.737 61.4648C7.83684 61.3968 4.93026 61.505 2.03331 61.3102ZM9.61612 66.2055C9.6097 75.2788 9.56473 84.352 9.55189 93.4253C9.63218 108.578 9.57758 123.728 9.57437 138.881C9.65466 148.066 9.49086 157.25 9.54546 166.435C9.54225 166.908 9.61612 167.384 9.7767 167.836C9.95656 167.727 10.3131 167.511 10.4897 167.403C10.4929 167.474 10.4993 167.616 10.5058 167.687C9.31743 168.095 9.66751 169.639 9.38809 170.591C17.1893 170.699 24.9969 170.613 32.8013 170.535C50.3564 170.461 67.9115 170.539 85.4634 170.495C118.852 170.517 152.244 170.474 185.633 170.625C185.678 169.567 185.681 168.51 185.607 167.455C162.082 167.313 138.556 167.384 115.03 167.369C80.344 167.387 45.6577 167.335 10.9747 167.375C11.177 165.51 11.0678 163.633 11.0903 161.762C11.0614 156.4 11.0453 151.041 11.1481 145.678C11.0871 133.312 11.1385 120.942 11.1256 108.575C11.1385 99.9163 10.949 91.2544 11.1481 82.5986C11.1866 77.1466 11.0678 71.6946 11.2123 66.2427C10.6792 66.2241 10.146 66.2086 9.61612 66.2055ZM11.9414 66.4715C12.0056 72.4616 11.9799 78.4547 11.9446 84.4479C37.2013 84.4355 62.4549 84.4201 87.7116 84.4448C87.7951 78.4516 87.6056 72.4523 87.8112 66.4622C73.4357 66.4684 59.0633 66.456 44.6878 66.4282C33.7745 66.4808 22.8547 66.255 11.9414 66.4715ZM88.4728 66.5117C88.5981 72.4708 88.5049 78.4362 88.4311 84.3953C101.901 84.4943 115.374 84.3922 128.844 84.4324C147.757 84.4355 166.671 84.4479 185.582 84.4231C185.521 78.4516 185.514 72.4739 185.598 66.5024C162.602 66.5241 139.606 66.3849 116.607 66.4529C107.229 66.4993 97.8477 66.3045 88.4728 66.5117ZM11.9896 85.221C11.8964 92.3089 12.0088 99.403 11.9414 106.494C13.5376 106.475 15.1338 106.41 16.7332 106.42C40.3809 106.41 64.0318 106.497 87.6795 106.451C87.6859 99.3473 87.747 92.2439 87.6988 85.1406C76.4643 85.2643 65.2298 85.1344 53.9985 85.1653C39.9955 85.2148 25.9925 85.1777 11.9896 85.221ZM88.5659 85.2272C88.3636 85.8766 88.4856 86.5724 88.4632 87.2404C88.4696 93.6294 88.4343 100.021 88.3989 106.41C112.255 106.5 136.112 106.364 159.972 106.432C168.486 106.454 177 106.333 185.511 106.571C185.527 99.4308 185.482 92.2903 185.53 85.1499C159.564 85.2767 133.597 85.1189 107.631 85.2055C101.275 85.2828 94.9155 85.1004 88.5659 85.2272ZM11.9574 107.267C12.0634 113.427 11.951 119.587 12.0088 125.748C21.509 125.562 31.0124 125.816 40.5126 125.686C52.9226 125.661 65.3326 125.809 77.7458 125.766C96.8071 125.744 115.869 125.726 134.93 125.757C151.798 125.713 168.666 125.71 185.533 125.8C185.559 119.643 185.479 113.483 185.565 107.326C173.409 107.248 161.247 107.369 149.087 107.307C103.378 107.267 57.6663 107.412 11.9574 107.267ZM11.9896 126.434C11.9896 133.973 12.0217 141.513 11.9735 149.049C17.7417 148.925 23.5099 148.882 29.2781 148.885C65.4578 148.873 101.638 148.83 137.817 148.848C153.712 148.857 169.61 148.783 185.504 149C185.498 141.451 185.607 133.902 185.488 126.357C180.311 126.586 175.121 126.443 169.941 126.502C143.068 126.536 116.196 126.44 89.3239 126.48C63.5469 126.545 37.7666 126.459 11.9896 126.434ZM11.9478 149.621C12.0024 155.296 11.9189 160.97 11.9414 166.648C34.2048 166.49 56.4715 166.67 78.7382 166.614C114.343 166.642 149.948 166.583 185.549 166.667C185.447 160.974 185.607 155.274 185.482 149.584C162.968 149.442 140.441 149.513 117.921 149.463C82.5986 149.525 47.27 149.429 11.9478 149.621ZM23.9114 171.534C23.9049 175.585 23.7476 179.64 23.8536 183.691C25.1768 184.13 26.6028 183.966 27.9806 184.003C28.4334 183.92 29.368 184.179 29.262 183.446C29.2492 179.451 29.2909 175.449 29.2203 171.451C27.4506 171.528 25.681 171.506 23.9114 171.534ZM172.661 171.513C172.728 175.539 172.5 179.575 172.719 183.601C172.78 183.654 172.905 183.762 172.966 183.817C174.594 183.954 176.236 183.882 177.867 183.836C178.082 179.714 177.957 175.576 177.931 171.451C176.178 171.565 174.418 171.519 172.661 171.513ZM178.818 171.537C178.686 175.901 178.914 180.27 178.696 184.634C178.689 187.634 178.673 190.633 178.686 193.63C178.712 194.53 178.606 195.516 179.274 196.246C179.136 196.333 178.859 196.5 178.721 196.583C179.033 196.66 179.348 196.741 179.666 196.827C179.653 196.954 179.627 197.211 179.614 197.341C181.467 197.183 183.471 197.743 185.235 196.929C185.071 196.787 184.923 196.639 184.788 196.484C184.926 196.376 185.203 196.163 185.341 196.054C185.424 187.859 185.257 179.664 185.456 171.469C183.243 171.519 181.031 171.503 178.818 171.537ZM14.3823 171.627C14.241 179.163 14.3245 186.7 14.2185 194.239C14.2185 195.031 14.1671 195.835 14.3116 196.626C14.8865 197.109 15.7119 197.053 16.4249 197.143C17.9344 197.186 19.4921 197.195 20.9438 196.735C20.8892 191.474 20.9534 186.214 21.0754 180.954C21.1461 177.827 21.0401 174.701 21.1943 171.578C18.9236 171.581 16.6529 171.605 14.3823 171.627Z" stroke="#3A3541"/>
<path d="M153.374 75.3345C154.671 74.6047 156.447 75.888 156.065 77.2796C155.734 78.7423 153.473 79.1567 152.587 77.96C151.842 77.1064 152.43 75.7891 153.374 75.3345ZM153.38 76.2127C153.123 76.6333 153.104 77.2734 153.56 77.5827C154.145 77.861 155.031 77.6538 155.156 76.9673C155.371 76.0736 154 75.7612 153.38 76.2127Z" stroke="#3A3541"/>
<path d="M41.8322 75.5016C42.7893 74.8707 44.3181 75.3099 44.6682 76.3953C44.7581 76.9334 44.7099 77.524 44.347 77.9694C43.5152 79.2589 40.9651 78.5662 41.01 77.0138C40.9747 76.4015 41.2862 75.8139 41.8322 75.5016ZM41.8322 76.7602C42.4778 76.5252 42.8825 76.7571 43.0334 77.3447C42.6191 77.2024 42.2112 77.054 41.8033 76.9025C41.9061 77.0602 42.1052 77.3787 42.2048 77.5364C43.2004 78.2477 44.0997 77.0354 43.7239 76.117C42.9981 75.9129 42.1341 75.9469 41.8322 76.7602Z" stroke="#3A3541"/>
<path d="M153.901 76.4606C154.344 76.1047 154.737 76.8878 154.344 77.1571C153.901 77.513 153.502 76.7361 153.901 76.4606Z" stroke="#3A3541"/>
<path d="M41.8802 95.0669C43.1938 94.501 44.9345 95.6668 44.5042 97.0956C44.334 98.7438 41.7678 98.8459 40.9745 97.5996C40.39 96.6966 40.8428 95.4349 41.8802 95.0669ZM41.4723 96.5235C41.4306 97.4203 42.4969 97.3832 43.1392 97.4697C43.4989 97.0739 43.9518 96.5667 43.6177 96.0194C42.9465 95.5555 41.604 95.5741 41.4723 96.5235Z" stroke="#3A3541"/>
<path d="M152.177 97.1301C151.891 95.9797 153.018 94.8108 154.213 94.9128C155.009 94.8417 155.594 95.4169 156.178 95.8468C156.134 96.4869 156.342 97.2476 155.864 97.7826C154.948 99.0103 152.443 98.7351 152.177 97.1301ZM153.192 96.1004C152.54 96.6137 153.243 97.2971 153.766 97.5631C153.766 97.0776 153.86 96.6106 154.065 96.1715C154.078 96.657 154.081 97.1425 154.081 97.628C154.451 97.4239 155.298 97.4827 155.18 96.858C155.549 95.7664 153.766 95.253 153.192 96.1004Z" stroke="#3A3541"/>
<path d="M42.2668 96.3021C42.7683 95.912 43.1637 96.8004 42.7425 97.0944C42.2539 97.438 41.8199 96.5837 42.2668 96.3021Z" stroke="#3A3541"/>
<path d="M42.1436 115.694C43.0557 115.326 44.3436 115.62 44.6744 116.6C44.7419 117.206 44.8703 117.98 44.3211 118.425C43.3865 119.238 41.4178 119.136 41.0099 117.837C40.663 116.968 41.254 115.979 42.1436 115.694ZM41.7036 117.24C42.0151 117.735 42.4808 118.082 43.075 118.218C43.3962 117.871 43.7173 117.525 44.0321 117.172C43.7109 116.761 43.3705 116.115 42.7057 116.303C42.2689 116.495 41.9991 116.897 41.7036 117.24Z" stroke="#3A3541"/>
<path d="M153.331 115.788C154.625 115.058 156.221 116.205 156.147 117.556C155.929 118.534 154.901 119.341 153.838 119.103C152.261 118.905 151.824 116.388 153.331 115.788ZM153.315 117.529C153.536 118.438 154.721 118.299 155.232 117.708C155.322 117 154.808 116.558 154.214 116.255C153.816 116.579 152.981 116.876 153.315 117.529Z" stroke="#3A3541"/>
<path d="M42.3205 117.08C42.7163 116.823 43.0607 117.526 42.7904 117.795C42.3913 118.024 42.0372 117.349 42.3205 117.08Z" stroke="#3A3541"/>
<path d="M153.991 117.034C154.474 116.684 154.908 117.523 154.493 117.823C153.988 118.176 153.548 117.334 153.991 117.034Z" stroke="#3A3541"/>
<path d="M41.3133 137.817C42.4053 137.084 44.1749 137.61 44.4864 138.906C45.0003 140.254 43.5261 141.574 42.1483 141.259C40.5104 141.086 39.9547 138.68 41.3133 137.817ZM41.8079 138.538C41.1366 138.81 41.4161 139.564 41.6184 140.056C42.325 140.368 43.2371 140.6 43.7253 139.824C44.0111 138.788 42.6943 138.03 41.8079 138.538Z" stroke="#3A3541"/>
<path d="M153.343 137.716C154.396 137.076 155.948 137.608 156.266 138.795C156.828 140.076 155.347 141.662 153.947 141.251C152.177 141.09 151.724 138.418 153.343 137.716ZM153.231 139.519C153.276 140.753 155.379 140.607 155.498 139.476C155.61 138.736 154.75 138.418 154.178 138.223C153.751 138.557 153.028 138.848 153.231 139.519Z" stroke="#3A3541"/>
<path d="M42.0306 139.541C41.9728 139.015 42.8343 138.826 43.0207 139.324C43.339 139.965 42.1303 140.16 42.0306 139.541Z" stroke="#3A3541"/>
<path d="M153.995 139.268C154.603 139.017 154.959 140.107 154.255 140.15C153.686 140.255 153.359 139.404 153.995 139.268Z" stroke="#3A3541"/>
<path d="M179.821 196.75L179.982 196.598C181.414 196.416 182.94 196.388 184.34 196.768C184.08 197.473 183.072 197.062 182.487 197.192C181.633 197.068 180.377 197.538 179.821 196.75Z" stroke="#3A3541"/>
<path d="M251.188 165.05C248.477 165.011 245.664 165.019 242.749 165.074C241.002 165.107 239.611 164.95 238.575 164.602C231.326 162.182 229.599 153.948 229.589 147.617C229.555 121.222 229.548 94.8779 229.569 68.5845C229.574 64.5165 229.257 59.4844 231.561 55.928C233.14 53.498 236.358 52.5831 239.122 51.8896C247.827 49.7121 256.425 47.3412 264.915 44.7768C267.006 44.1472 268.554 43.7717 269.559 43.6503C271.214 43.4568 272.817 43.4634 274.366 43.67C274.441 43.6801 274.516 43.6744 274.588 43.6533C274.66 43.6323 274.726 43.5964 274.782 43.5481C274.838 43.4999 274.882 43.4404 274.912 43.374C274.942 43.3075 274.956 43.2356 274.954 43.1634C274.715 33.3681 274.664 23.6958 274.8 14.1465C274.831 12.1199 275.199 9.41449 276.44 7.68794C279.531 3.40354 287.148 2.06069 292.277 2.04593C327.097 1.93443 352.981 1.90489 369.928 1.95736C371.856 1.96392 373.983 2.26889 376.309 2.87228C379.496 3.69866 381.932 5.45312 383.614 8.13558C383.636 8.16915 383.666 8.19707 383.702 8.21676C383.737 8.23646 383.777 8.24731 383.818 8.24829C383.859 8.24927 383.899 8.24032 383.935 8.22235C383.97 8.20437 384.001 8.17795 384.023 8.14543C385.705 5.7909 387.967 4.15448 390.807 3.23628C396.145 1.51465 401.642 1.20968 407.267 1.2146C428.28 1.22771 449.278 1.24574 470.261 1.2687C473.515 1.2687 476.913 1.26871 480.146 2.08034C484.407 3.14775 488.126 4.41196 490.742 7.90441C490.868 8.07165 491.001 8.07652 491.14 7.91912C496.494 1.99671 504.995 1.11129 512.826 1.0867C534.075 1.01128 555.323 0.985085 576.572 1.00804C582.583 1.0146 585.987 1.04408 586.784 1.09655C590.493 1.33594 594.087 1.97048 597.568 3.00018C601.931 4.29386 603.637 7.34856 604.189 11.3427C604.523 13.7858 604.717 16.2371 604.771 18.6965C604.941 26.8882 605.088 35.0799 605.21 43.2716C605.214 43.4519 605.306 43.5175 605.486 43.4683C608.405 42.6682 611.453 42.7715 614.631 43.7782C623.159 46.4771 631.93 48.8858 640.945 51.0042C643.517 51.6076 646.01 52.4192 648.424 53.439C649.971 54.0916 651.098 54.7671 651.806 55.4656C654.177 57.8021 654.534 61.2749 654.529 64.3738C654.492 86.6271 654.48 114.355 654.493 147.558C654.497 152.005 653.322 156.048 650.968 159.688C647.566 164.951 640.618 164.514 635.106 164.587C634.932 164.587 634.84 164.669 634.83 164.833C634.5 169.231 634.127 173.807 633.711 178.562C633.439 181.717 633.144 184.808 632.828 187.834C632.712 188.943 632.649 189.981 632.639 190.948C632.608 193.162 633.425 196.339 630.181 196.866C628.567 197.126 622.217 197.372 621.578 195.08C621.17 193.609 621.328 191.558 621.2 189.822C620.635 182.092 619.935 173.997 619.101 165.537C619.06 165.124 618.825 164.915 618.396 164.912C614.181 164.883 609.701 165.01 605.374 165.01C550.732 165.043 496.09 165.042 441.449 165.006C439.415 165.006 437.335 164.978 435.206 164.922C435.173 164.921 435.139 164.926 435.108 164.937C435.077 164.949 435.048 164.966 435.024 164.989C435 165.011 434.98 165.038 434.967 165.068C434.953 165.098 434.946 165.13 434.945 165.163C434.877 170.21 434.816 175.291 434.761 180.407C434.751 181.164 434.368 181.927 433.586 182.158C430.93 182.932 428.2 182.984 425.397 182.315C423.134 181.774 423.492 180.126 423.482 178.439C423.461 173.986 423.412 169.603 423.334 165.291C423.33 165.117 423.238 165.03 423.058 165.03L267.143 165.045C266.492 165.045 266.201 165.356 266.269 165.98C266.504 168.06 265.896 170.249 265.814 171.868C265.651 175.052 265.424 178.447 265.135 182.055C264.924 184.685 264.777 187.113 264.696 189.34C264.61 191.622 264.517 194.055 264.415 196.639C264.374 197.659 263.854 198.289 262.857 198.528C260.094 199.184 257.491 199.156 255.045 198.445C253.232 197.913 253.349 195.09 253.319 193.649C253.298 192.527 253.256 191.478 253.191 190.5C252.684 182.689 252.118 174.866 251.495 167.032C251.451 166.462 251.442 165.894 251.469 165.33C251.476 165.143 251.383 165.05 251.188 165.05ZM563.018 7.50102C563.039 7.49774 563.052 7.50596 563.059 7.52564C563.437 8.99804 563.703 10.4671 563.856 11.933C564.493 18.0226 564.735 24.3025 564.582 30.7726C564.578 30.9529 564.629 31.1185 564.735 31.2694L566.508 33.7042C566.613 33.8485 566.755 33.9387 566.932 33.9748C567.667 34.1355 568.411 34.2535 569.164 34.3289C577.43 35.1848 585.946 35.6718 593.915 33.6452C594.201 33.5698 594.258 33.6485 594.084 33.8813C593.873 34.1699 593.575 34.3552 593.19 34.4372C588.286 35.48 582.879 35.8407 576.97 35.5193C573.605 35.3389 570.244 35.0684 566.886 34.7077C566.709 34.688 566.559 34.7421 566.436 34.87L564.582 36.8278C564.459 36.9589 564.408 37.1114 564.428 37.2852C565.276 43.6258 565.016 48.2594 564.638 55.4755C564.628 55.6394 564.692 55.7722 564.832 55.8739C565.442 56.3166 566.051 56.7626 566.661 57.2119C567.281 57.6677 567.958 57.9579 568.694 58.0825C574.515 59.063 580.376 59.3516 586.278 58.9482C588.894 58.7679 591.414 58.2252 593.839 57.3201C593.903 57.2971 593.939 57.3168 593.946 57.3791L593.977 57.5808C593.981 57.6212 593.972 57.6615 593.952 57.696C593.932 57.7304 593.901 57.7573 593.864 57.7726C592.553 58.3727 591.191 58.7941 589.777 59.0368C582.569 60.2616 574.819 59.7648 567.626 58.658C567.46 58.6318 567.335 58.6908 567.253 58.8351C566.664 59.8779 565.852 60.7387 564.817 61.4175C564.674 61.5094 564.606 61.6373 564.612 61.8012C564.953 68.0614 565.035 74.356 564.858 80.6851C564.857 80.7042 564.86 80.7233 564.868 80.7411C564.875 80.759 564.886 80.7753 564.901 80.7891C564.915 80.8028 564.932 80.8138 564.951 80.8212C564.97 80.8287 564.99 80.8326 565.011 80.8326C569.82 80.8293 574.956 80.9326 580.418 81.1425C588.422 81.4507 595.468 82.5608 601.558 84.4726C601.749 84.5349 601.902 84.4858 602.018 84.3251C603.271 82.6035 603.892 80.5998 603.882 78.3141C603.783 56.5986 603.489 35.1553 602.998 13.9842C602.861 8.06181 599.918 4.53001 593.558 3.96433C590.619 3.70527 587.61 3.58716 584.531 3.61012C559.427 3.78392 534.323 3.8036 509.22 3.66914C502.619 3.63471 496.468 4.52996 491.886 9.32101C491.712 9.50323 491.605 9.73622 491.583 9.98361C491.561 10.231 491.624 10.4789 491.763 10.6885C492.714 12.1183 493.194 13.6809 493.204 15.3763C493.323 33.5665 493.325 51.7584 493.209 69.9519C493.179 75.1807 493.291 79.6029 493.899 84.3202C494.011 85.1892 493.933 85.9565 493.664 86.6222C493.589 86.7993 493.645 86.8534 493.832 86.7846C497.587 85.4073 501.536 83.7594 505.204 82.8937C512.285 81.2163 519.299 81.1228 526.533 80.9654C526.57 80.9648 526.606 80.9571 526.64 80.943C526.674 80.9288 526.704 80.9083 526.73 80.8827C526.756 80.8571 526.776 80.8269 526.789 80.7939C526.803 80.7608 526.809 80.7255 526.809 80.69L526.763 61.7373C526.759 61.5733 526.688 61.4438 526.548 61.3487C525.526 60.6797 524.632 59.8632 523.866 58.899C523.764 58.7679 523.628 58.7121 523.457 58.7318C520.77 59.0368 518.211 59.3254 515.779 59.5976C512.969 59.9156 509.484 59.9156 505.322 59.5976C503.088 59.427 500.836 58.8958 498.568 58.0038C498.542 57.9936 498.519 57.978 498.5 57.9581C498.48 57.9383 498.466 57.9147 498.457 57.889C498.448 57.8633 498.446 57.836 498.449 57.8091C498.452 57.7822 498.461 57.7563 498.476 57.7333L498.548 57.6201C498.585 57.5611 498.636 57.5431 498.701 57.566C500.956 58.3301 503.116 58.8088 505.184 59.0023C509.972 59.4516 515.411 59.2204 521.501 58.3088C523.408 58.0202 524.973 57.2709 526.196 56.0608C526.265 55.9925 526.319 55.9116 526.355 55.8228C526.391 55.7341 526.408 55.6394 526.405 55.5444L525.945 37.8411C525.942 37.6706 525.882 37.523 525.766 37.3984L523.565 34.9192C523.449 34.7913 523.306 34.7389 523.135 34.7618C518.66 35.398 514.028 35.7686 509.24 35.8735C505.197 35.9588 501.247 35.6226 497.388 34.8651C497.321 34.8522 497.262 34.8141 497.224 34.7589C497.186 34.7037 497.171 34.6359 497.184 34.57L497.209 34.447C497.212 34.4308 497.219 34.4153 497.228 34.4015C497.237 34.3878 497.249 34.3759 497.263 34.3667C497.277 34.3575 497.292 34.3512 497.308 34.3481C497.325 34.345 497.341 34.3451 497.357 34.3486C504.126 35.6324 510.476 35.475 517.434 34.8503C519.049 34.706 520.682 34.4568 522.333 34.1026C523.815 33.7878 524.872 32.5827 525.915 31.6038C526.041 31.4831 526.14 31.3383 526.205 31.1788C526.269 31.0194 526.297 30.8491 526.287 30.6791C525.835 22.9465 526.027 15.2123 526.865 7.4764C526.882 7.30588 526.977 7.22883 527.151 7.24523L527.289 7.25507C527.307 7.25698 527.324 7.26217 527.34 7.27038C527.356 7.2786 527.37 7.28967 527.382 7.30293C527.393 7.31619 527.402 7.3314 527.407 7.34766C527.412 7.36393 527.413 7.38097 527.411 7.39774C526.713 14.4253 526.499 21.4708 526.768 28.5344C526.795 29.269 526.853 30.0002 526.941 30.7283C527.084 31.8793 527.902 32.627 528.648 33.4484C528.841 33.6632 529.112 33.7971 529.404 33.8223C539.822 34.6815 550.247 34.488 560.679 33.2418C560.859 33.2189 561.016 33.1468 561.149 33.0254L563.361 31.0136C563.564 30.8268 563.727 30.6031 563.839 30.3555C563.952 30.108 564.011 29.8417 564.015 29.5723C564.035 26.2865 563.989 22.9908 563.877 19.6853C563.819 17.9997 563.451 13.9973 562.773 7.67809C562.763 7.58955 562.804 7.53711 562.896 7.52072L563.018 7.50102ZM417.556 59.1991C418.284 59.9074 419.09 60.4945 419.972 60.9601C420.046 60.9995 420.131 61.0168 420.216 61.0098C420.3 61.0028 420.381 60.9718 420.447 60.9207C421.198 60.3698 421.985 59.2139 421.428 58.294C421.139 57.8185 420.815 57.4135 420.457 57.0791C420.403 57.0275 420.336 56.9915 420.262 56.975C420.188 56.9585 420.11 56.9621 420.038 56.9856C419.207 57.2577 418.45 57.6332 417.765 58.112C417.305 58.4334 416.76 58.6367 416.13 58.722C410.061 59.5484 404.185 59.732 398.501 59.2729C396.253 59.0892 394.15 58.6203 392.191 57.8661C392.069 57.8202 392.028 57.7365 392.069 57.6152L392.11 57.4824C392.123 57.443 392.152 57.4299 392.196 57.4431C394.08 57.9874 395.643 58.3301 396.886 58.4711C403.405 59.2122 409.865 59.0352 416.268 57.9399C417.443 57.7398 418.62 57.079 419.798 55.9575C419.914 55.8458 419.99 55.7026 420.013 55.5493C420.125 54.8639 420.17 54.1801 420.146 53.4981C419.962 48.4184 420.107 43.5438 420.58 38.874C420.597 38.7101 420.536 38.5822 420.396 38.4904C419.422 37.8378 418.753 36.9327 418.388 35.7751C418.266 35.3783 417.988 35.2012 417.556 35.2439C411.749 35.8505 405.877 35.9391 399.941 35.5095C396.246 35.2406 393.099 34.8094 390.5 34.2158C390.471 34.2094 390.443 34.1975 390.418 34.1806C390.393 34.1638 390.372 34.1425 390.356 34.1178C390.34 34.0931 390.329 34.0656 390.324 34.0368C390.319 34.0081 390.32 33.9786 390.327 33.9502L390.352 33.8124C390.369 33.7469 390.412 33.7206 390.48 33.7337C398.81 35.3012 407.291 35.6357 415.921 34.7372C416.534 34.6749 417.138 34.5716 417.734 34.4273C417.932 34.3781 418.095 34.2781 418.225 34.1273C418.903 33.3304 419.694 32.8155 420.6 32.5827C420.849 32.5171 420.967 32.3597 420.953 32.1105C420.551 23.7024 420.84 15.3189 421.821 6.95995C421.826 6.92988 421.84 6.90217 421.861 6.88093C421.882 6.85968 421.91 6.84602 421.939 6.8419L422.072 6.81728C422.239 6.79432 422.315 6.86321 422.302 7.0239C421.525 15.1697 420.886 23.586 421.571 31.7613C421.673 32.9959 422.394 33.8223 423.242 34.6536C423.34 34.7487 423.46 34.8094 423.599 34.8356C424.924 35.0947 426.554 35.2865 428.488 35.4111C436.134 35.903 443.518 35.6931 450.639 34.7815C451.157 34.7159 451.664 34.6208 452.161 34.4962C452.334 34.4546 452.49 34.3599 452.606 34.2256C453.188 33.5501 453.852 32.9713 454.598 32.4893C454.67 32.4435 454.729 32.3826 454.77 32.3116C454.812 32.2406 454.835 32.1615 454.838 32.081C454.951 29.7838 455.334 27.5408 455.349 25.2191C455.383 19.2671 455.056 13.3365 454.368 7.42722C454.362 7.37148 454.389 7.34035 454.45 7.33379L454.588 7.31902C454.717 7.3059 454.789 7.36164 454.803 7.48625C455.695 15.0549 456.047 21.1478 455.86 25.7651C455.775 27.7753 455.737 29.8511 455.748 31.9925C455.748 32.163 455.806 32.3121 455.921 32.44L457.97 34.6979C458.098 34.8404 458.276 34.9331 458.471 34.9586C464.393 35.7784 470.341 36.0325 476.315 35.721C478.314 35.6193 480.281 35.3439 482.215 34.8946C482.253 34.8881 482.284 34.8979 482.307 34.9241L482.43 35.0619C482.452 35.0856 482.467 35.1144 482.473 35.1455C482.479 35.1765 482.477 35.2087 482.466 35.239C482.455 35.2693 482.436 35.2965 482.411 35.3181C482.386 35.3396 482.356 35.3547 482.323 35.3619C479.424 35.9719 476.506 36.3178 473.567 36.3998C468.649 36.5408 463.617 36.2572 458.471 35.5488C458.304 35.5259 458.178 35.5865 458.093 35.7308C457.483 36.7441 456.7 37.5164 455.743 38.0476C455.606 38.1198 455.552 38.2313 455.579 38.3822C455.804 39.5791 455.903 41.0089 455.875 42.6715C455.804 47.0592 455.674 51.5272 455.487 56.0756C455.48 56.2206 455.532 56.3604 455.63 56.4642C456.689 57.589 457.856 58.2596 459.13 58.476C465.199 59.5057 471.08 59.7025 476.775 59.0663C478.498 58.8728 480.272 58.4564 482.098 57.8169C482.163 57.7939 482.212 57.812 482.246 57.871L482.328 57.9989C482.433 58.1629 482.393 58.2793 482.205 58.3481C480.465 58.9843 478.742 59.4057 477.035 59.6123C470.81 60.3698 464.569 60.1321 458.312 58.899C458.21 58.8789 458.104 58.8947 458.014 58.9435C457.924 58.9924 457.855 59.071 457.822 59.1647C457.369 60.4239 456.504 61.3552 455.227 61.9586C455.06 62.0373 454.978 62.1652 454.981 62.3423C455.084 67.8843 455.15 73.7903 455.181 80.0603C455.181 80.2407 455.152 80.4112 455.094 80.5719C455.015 80.7818 455.092 80.8851 455.324 80.8818C467.773 80.7392 480.478 81.2655 491.804 86.7353C491.971 86.814 492.104 86.778 492.203 86.6271C492.485 86.1975 492.63 85.7663 492.637 85.3334C492.673 81.8459 492.433 78.1026 492.407 74.6643C492.279 56.3412 492.479 35.4111 492.244 15.027C492.23 13.9186 491.903 12.9069 491.263 11.992C491.103 11.7625 491.026 11.7854 491.033 12.0609C491.058 12.9119 491.207 13.7284 491.201 14.5892C491.13 25.7487 491.067 38.1444 491.012 51.7764C490.977 61.5012 491.37 71.3194 490.864 81.0589C490.793 82.4296 490.779 83.7528 490.823 85.0285C490.847 85.7171 490.708 85.7483 490.405 85.122C490.251 84.8071 490.178 84.3087 490.185 83.6266C490.221 79.416 490.328 75.1611 490.282 70.9996C490.091 53.9309 490.059 34.147 490.185 11.6477C490.2 8.72586 486.972 5.98106 484.341 5.10057C481.657 4.20205 478.897 3.75279 476.06 3.75279C471.99 3.74951 467.477 3.74951 462.522 3.75279C442.469 3.77574 422.417 3.77081 402.368 3.73802C399.715 3.73474 397.077 3.8741 394.454 4.15612C391.41 4.48077 385.663 6.20734 385.131 9.71947C384.879 11.3624 384.753 13.4333 384.753 15.9321C384.736 36.4277 384.755 56.897 384.809 77.3402C384.815 79.3815 384.682 82.1263 385.407 84.1135C385.703 84.9268 386.078 85.7007 386.531 86.4353C386.618 86.5751 386.752 86.6817 386.91 86.7365C387.069 86.7912 387.242 86.7908 387.399 86.7353C389.852 85.8761 392.338 85.099 394.858 84.4037C399.303 83.1839 404.564 82.5493 409.218 81.5754C412.192 80.9556 415.931 79.8701 420.437 78.319C420.508 78.2954 420.57 78.2493 420.611 78.1879C420.653 78.1265 420.672 78.0533 420.667 77.9796C420.285 72.9295 420.093 67.6367 420.09 62.1013C420.09 61.8914 419.996 61.7324 419.809 61.6242C418.889 61.088 417.791 60.2813 417.351 59.3319C417.167 58.9351 417.236 58.8908 417.556 59.1991ZM351.128 7.56004C351.143 7.56128 351.157 7.56532 351.171 7.57193C351.184 7.57855 351.195 7.58762 351.205 7.59859C351.214 7.60957 351.222 7.62223 351.226 7.63588C351.23 7.64953 351.232 7.66387 351.23 7.67809C350.876 11.974 350.599 16.1174 350.398 20.1083C350.183 24.309 350.294 28.4705 350.73 32.5925C350.74 32.7051 350.782 32.814 350.852 32.9074L352.293 34.8602C352.412 35.0241 352.574 35.1225 352.778 35.1553C360.017 36.3113 368.104 36.813 375.164 34.5503C375.236 34.5273 375.28 34.5519 375.297 34.6241L375.333 34.7962C375.346 34.847 375.338 34.9007 375.312 34.9463C375.285 34.992 375.242 35.0262 375.19 35.0422C371.893 36.085 368.441 36.6179 364.835 36.6408C360.799 36.6671 356.935 36.4343 353.243 35.9424C352.288 35.8145 351.532 36.9261 351.036 37.5754C350.716 37.9952 350.536 38.4871 350.495 39.0511C350.161 43.5864 349.861 48.1561 349.596 52.7602C349.531 53.8916 349.62 55.0164 349.861 56.1346C349.895 56.2986 349.979 56.433 350.112 56.538C350.749 57.0364 351.358 57.5267 351.941 58.0087C352.85 58.7564 353.611 58.7662 354.73 58.9089C361.259 59.7205 368.431 59.8533 374.419 57.6103C374.441 57.6024 374.465 57.5993 374.49 57.601C374.514 57.6027 374.539 57.6092 374.562 57.6201C374.681 57.6792 374.699 57.7579 374.618 57.8562C374.543 57.9481 374.456 58.0251 374.357 58.0874C373.918 58.3629 373.507 58.5498 373.126 58.6482C369.192 59.6516 365.189 60.1108 361.116 60.0255C359.586 59.996 356.746 59.8058 352.594 59.4549C352.4 59.4385 352.264 59.5155 352.186 59.6861C351.781 60.5616 351.167 61.2667 350.347 61.8012C350.276 61.8483 350.218 61.9113 350.178 61.985C350.138 62.0587 350.117 62.1408 350.117 62.2243C350.086 68.1204 350.108 74.0428 350.183 79.9915C350.19 80.5522 350.236 81.0737 350.321 81.5557C350.34 81.663 350.398 81.76 350.486 81.8288C350.573 81.8976 350.683 81.9334 350.796 81.9296C359.137 81.6115 367.302 82.4362 375.292 84.4037C377.771 85.017 380.278 85.5974 382.812 86.1451C383.091 86.2074 383.168 86.1156 383.042 85.8696C382.352 84.5022 381.545 82.7903 381.545 81.2064C381.538 58.2383 381.535 35.2701 381.535 12.3019C381.535 11.551 381.809 10.5147 382.357 9.19317C382.422 9.03904 382.413 8.88817 382.332 8.7406C382.097 8.30118 381.778 7.8962 381.376 7.52564C378.332 4.71692 375.701 4.35291 371.844 4.3775C347.789 4.53163 323.736 4.5792 299.685 4.52017C297.563 4.51361 295.349 4.49552 293.043 4.46601C287.965 4.40698 283.781 4.34799 279.465 7.0239C277.585 8.18969 276.532 10.0441 276.537 12.1789C276.592 34.2716 276.599 56.3658 276.558 78.4617C276.553 81.6492 276.926 83.8135 279.454 86.0565C279.529 86.1219 279.62 86.167 279.719 86.1869C279.817 86.2068 279.92 86.2009 280.016 86.1697C287.083 83.8676 294.137 82.5346 301.176 82.1706C304.906 81.9771 308.746 81.8968 312.696 81.9296C312.907 81.9328 313.015 81.8328 313.018 81.6295L313.248 62.0521C313.251 61.8521 313.159 61.7094 312.972 61.6242C311.76 61.0568 310.835 60.1944 310.198 59.0368C310.11 58.8794 309.973 58.8187 309.789 58.8548C302.426 60.2485 295.032 60.4698 287.608 59.5188C287.254 59.4729 286.896 59.3844 286.535 59.2532C286.177 59.122 285.798 58.9646 285.396 58.781C285.372 58.7712 285.363 58.7548 285.37 58.7318L285.416 58.6138C285.457 58.4924 285.54 58.4498 285.666 58.4859C287.407 59.0007 289.585 59.3073 292.2 59.4057C298.729 59.6517 304.047 59.3335 308.155 58.4514C309.646 58.13 311.186 57.443 312.773 56.3904C312.946 56.2756 313.027 56.1166 313.013 55.9133C312.618 50.3319 312.625 44.6276 313.033 38.8003C313.04 38.7123 313.024 38.6243 312.987 38.5437C312.951 38.4632 312.895 38.3926 312.824 38.3379C311.799 37.5574 311.237 36.5572 311.138 35.3373C311.136 35.3014 311.126 35.2665 311.108 35.2347C311.091 35.203 311.067 35.1752 311.037 35.1533C311.007 35.1314 310.973 35.1158 310.937 35.1077C310.901 35.0995 310.863 35.099 310.826 35.1061C304.591 36.2801 298.28 36.7474 291.894 36.508C289.016 36.3998 286.188 36.0096 283.408 35.3373C283.349 35.3222 283.299 35.2855 283.267 35.235C283.236 35.1845 283.226 35.1241 283.24 35.0668L283.276 34.934C283.289 34.8749 283.327 34.852 283.388 34.8651C285.595 35.3537 287.834 35.6702 290.106 35.8145C297.013 36.2605 303.851 35.821 310.622 34.4962C311.414 34.3437 312.042 33.8125 312.507 33.232C312.838 32.8188 312.989 32.34 312.962 31.7957C312.574 23.7483 313.004 15.5255 314.254 7.12718C314.265 7.05503 314.304 7.03207 314.372 7.0583L314.53 7.11733C314.567 7.13129 314.598 7.15626 314.618 7.1883C314.639 7.22035 314.647 7.25765 314.643 7.2944C314.435 9.73092 314.191 12.2003 313.912 14.7024C313.343 19.7787 313.256 25.7634 313.651 32.6565C313.661 32.8214 313.734 32.9786 313.856 33.0992C314.431 33.6731 315.038 34.2666 315.675 34.8799C316.058 35.2488 316.528 35.3521 317.054 35.4062C326.551 36.385 336.538 36.6113 345.999 35.1848C347.511 34.9586 348.564 33.8912 349.821 33.1041C349.964 33.0123 350.028 32.8844 350.015 32.7204C349.315 24.3386 349.984 16.5027 350.745 7.75681C350.748 7.72706 350.756 7.69807 350.771 7.67155C350.785 7.64503 350.804 7.62152 350.828 7.60232C350.852 7.58311 350.879 7.56862 350.909 7.55968C350.939 7.55074 350.97 7.5475 351.001 7.5502L351.128 7.56004ZM382.454 81.2802C382.521 82.7461 384.181 85.6089 385.32 86.9666C385.511 87.1928 385.579 87.1616 385.525 86.8731C385.296 85.6761 384.93 84.5136 384.426 83.3856C384.069 82.5788 383.88 81.8098 383.859 81.0785C383.771 77.973 383.737 75.0102 383.757 72.19C383.905 51.4764 383.594 30.866 383.936 10.2064C383.936 10.0753 383.907 9.94736 383.849 9.82275C383.832 9.78815 383.807 9.75836 383.774 9.7361C383.742 9.71384 383.705 9.69987 383.665 9.69545C383.625 9.69103 383.585 9.6963 383.547 9.71082C383.51 9.72534 383.476 9.74863 383.451 9.77849C382.373 11.0673 382.526 13.0496 382.521 14.5745C382.466 33.9813 382.403 54.2622 382.332 75.4169C382.325 77.4533 382.366 79.4078 382.454 81.2802ZM565.634 34.6929C565.75 34.5543 565.817 34.3837 565.825 34.2059C565.834 34.028 565.783 33.8523 565.68 33.7042L564.602 32.1498C564.53 32.0468 564.434 31.9606 564.323 31.8975C564.212 31.8344 564.087 31.796 563.958 31.7852C563.83 31.7743 563.7 31.7913 563.579 31.8348C563.458 31.8783 563.348 31.9473 563.259 32.0367L561.915 33.3796C561.769 33.526 561.683 33.7185 561.674 33.9212C561.665 34.124 561.732 34.323 561.864 34.4814L563.146 36.0309C563.227 36.1287 563.33 36.2077 563.447 36.2622C563.564 36.3167 563.692 36.3452 563.822 36.3456C563.952 36.3461 564.08 36.3186 564.197 36.2649C564.315 36.2113 564.418 36.133 564.5 36.0358L565.634 34.6929ZM525.516 36.3309C525.611 36.4562 525.737 36.5566 525.883 36.6227C526.028 36.6888 526.189 36.7185 526.35 36.7092C526.511 36.6999 526.666 36.6519 526.803 36.5694C526.939 36.487 527.052 36.3729 527.13 36.2375L528.004 34.7372C528.091 34.5889 528.133 34.4204 528.127 34.2503C528.121 34.0802 528.066 33.9151 527.968 33.7731L527.273 32.7647C527.201 32.6595 527.107 32.5698 526.997 32.501C526.887 32.4322 526.764 32.3857 526.635 32.3645C526.505 32.3433 526.373 32.3478 526.246 32.3777C526.118 32.4076 525.999 32.4623 525.894 32.5384L524.556 33.5124C524.355 33.6582 524.222 33.8737 524.185 34.1127C524.148 34.3518 524.209 34.5953 524.356 34.7913L525.516 36.3309ZM419.446 37.1623C419.539 37.3403 419.68 37.4913 419.854 37.6C420.028 37.7087 420.228 37.7712 420.435 37.7812C420.642 37.7912 420.848 37.7484 421.033 37.6569C421.217 37.5655 421.373 37.4287 421.484 37.2606L422.353 35.9472C422.473 35.7662 422.538 35.5557 422.539 35.3405C422.54 35.1253 422.477 34.9143 422.358 34.7323L421.612 33.601C421.518 33.4579 421.392 33.337 421.244 33.247C421.095 33.157 420.927 33.1002 420.753 33.0808C420.578 33.0615 420.401 33.0801 420.235 33.1352C420.069 33.1903 419.918 33.2805 419.793 33.3993L418.853 34.2896C418.676 34.4584 418.559 34.6772 418.52 34.9142C418.48 35.1512 418.52 35.3941 418.634 35.6079L419.446 37.1623ZM454.333 36.8819C454.457 37.0423 454.619 37.1717 454.806 37.2591C454.993 37.3464 455.199 37.3893 455.407 37.384C455.615 37.3787 455.818 37.3253 456 37.2286C456.182 37.1318 456.337 36.9943 456.453 36.8278L457.045 35.9719C457.207 35.7376 457.282 35.4576 457.258 35.1773C457.234 34.897 457.112 34.6328 456.912 34.4273L456.141 33.6354C456.017 33.507 455.866 33.4053 455.698 33.3368C455.531 33.2683 455.35 33.2345 455.168 33.2377C454.985 33.241 454.806 33.2812 454.641 33.3556C454.476 33.43 454.329 33.5371 454.21 33.6698L453.622 34.324C453.428 34.54 453.317 34.8135 453.306 35.099C453.296 35.3846 453.388 35.6648 453.566 35.8931L454.333 36.8819ZM348.916 37.1868C349.022 37.3132 349.157 37.4144 349.311 37.4827C349.464 37.551 349.631 37.5845 349.8 37.5807C349.969 37.5769 350.134 37.5359 350.284 37.4608C350.434 37.3856 350.563 37.2785 350.663 37.1475L351.374 36.2178C351.507 36.0416 351.582 35.83 351.586 35.6118C351.591 35.3935 351.525 35.1791 351.399 34.9979L350.858 34.2158C350.772 34.0918 350.661 33.9864 350.531 33.9064C350.401 33.8264 350.255 33.7736 350.102 33.7513C349.95 33.7291 349.794 33.7379 349.645 33.7773C349.496 33.8166 349.358 33.8855 349.238 33.9797L348.278 34.7421C348.052 34.92 347.909 35.1766 347.879 35.4559C347.85 35.7352 347.936 36.0144 348.119 36.2326L348.916 37.1868ZM314.198 34.2404C314.092 34.1255 313.963 34.0331 313.818 33.969C313.673 33.905 313.515 33.8707 313.356 33.8684C313.196 33.8661 313.038 33.8958 312.891 33.9556C312.744 34.0154 312.612 34.104 312.502 34.2158L311.848 34.8799C311.684 35.0488 311.579 35.2631 311.548 35.4925C311.517 35.7219 311.561 35.9549 311.674 36.1588L312.313 37.3147C312.404 37.4787 312.536 37.6181 312.697 37.72C312.859 37.8219 313.044 37.883 313.237 37.8977C313.429 37.9124 313.622 37.8802 313.798 37.8042C313.974 37.7281 314.128 37.6105 314.244 37.4623L315.021 36.4687C315.181 36.2647 315.263 36.0136 315.253 35.758C315.242 35.5025 315.141 35.2582 314.964 35.0668L314.198 34.2404ZM527.238 55.928C528.091 56.4887 528.842 56.9561 529.628 57.8071C529.741 57.9317 529.881 58.012 530.047 58.0481C530.684 58.1891 531.35 58.2907 532.045 58.353C538.763 58.9482 545.496 59.4942 551.923 59.0909C555.206 58.8843 558.032 58.4596 560.403 57.8169C561.268 57.5808 562.351 56.9938 563.652 56.0559C563.723 56.0049 563.781 55.9404 563.825 55.8667C563.868 55.793 563.894 55.7117 563.902 55.6279C564.427 50.4729 564.491 45.2965 564.096 40.0989C564.01 38.9872 563.964 37.5754 563.156 36.7441C562.431 35.9931 561.797 35.2029 561.256 34.3732C561.201 34.2889 561.125 34.2193 561.035 34.1711C560.945 34.123 560.843 34.0977 560.74 34.0978C558.14 34.1174 555.524 34.5159 552.898 34.6339C545.045 34.9914 537.182 34.9635 529.312 34.5503C529.053 34.5372 528.862 34.6405 528.74 34.8602C528.239 35.7489 527.626 36.567 526.901 37.3147C526.74 37.482 526.657 37.6804 526.65 37.91C526.626 39.1626 526.628 40.3432 526.655 41.4516C526.778 46.1344 526.911 50.8484 527.054 55.5935C527.057 55.7345 527.118 55.846 527.238 55.928ZM421.07 39.9513C420.59 45.0276 420.498 50.1728 420.764 55.2098C420.795 55.8329 420.973 56.3838 421.3 56.8626C421.648 57.3774 422.017 57.8726 422.409 58.3481C422.518 58.4826 422.663 58.5629 422.843 58.5891C427.236 59.2057 432.154 59.5631 437.597 59.6615C441.81 59.7402 445.617 59.5287 449.02 59.0269C450.363 58.8302 451.87 58.5449 452.923 57.6398C453.41 57.2234 453.895 56.838 454.379 56.4838C454.517 56.3825 454.613 56.2341 454.649 56.0657C454.878 54.9344 455.012 53.7916 455.053 52.6372C455.176 49.4235 455.237 46.0623 455.237 42.5534C455.237 41.4483 455.089 40.1169 454.792 38.5592C454.762 38.3985 454.695 38.251 454.593 38.1165L452.723 35.6276C452.563 35.4111 452.345 35.316 452.069 35.3422C446.692 35.8538 441.806 36.1637 437.413 36.2719C434.899 36.3342 430.303 36.1375 423.625 35.6817C423.526 35.6745 423.427 35.6948 423.34 35.7402C423.253 35.7856 423.181 35.8541 423.134 35.9375C422.814 36.4982 422.412 37.0639 421.929 37.6345C421.448 38.1985 421.162 38.9708 421.07 39.9513ZM324.671 36.5769C323.428 36.5506 320.71 36.3506 316.517 35.9768C316.351 35.9604 316.214 36.0145 316.109 36.1391L314.05 38.633C313.951 38.7511 313.893 38.8855 313.876 39.0364C313.239 44.4701 313.195 50.0761 313.743 55.8542C313.754 55.9742 313.798 56.0895 313.87 56.1886C313.941 56.2878 314.039 56.3675 314.152 56.4199C314.932 56.7839 315.574 57.3693 316.078 58.176C316.167 58.317 316.289 58.417 316.446 58.476C317.219 58.7646 318.018 58.9696 318.842 59.0909C327.816 60.4124 336.732 60.3091 345.591 58.781C346.895 58.5547 347.947 58.0546 348.748 57.2807C348.898 57.1364 348.976 56.9626 348.983 56.7593C349.133 50.7549 349.442 44.721 349.912 38.6576C349.926 38.4772 349.851 38.3412 349.688 38.2493C348.666 37.6787 347.867 36.9278 347.292 35.9965C347.246 35.9245 347.18 35.8664 347.1 35.829C347.02 35.7915 346.931 35.7763 346.842 35.7849C343.797 36.0899 340.737 36.5375 337.759 36.5966C333.471 36.6851 329.108 36.6785 324.671 36.5769ZM651.071 58.1464C649.921 55.5492 647.781 54.8262 645.175 53.8965C644.555 53.6735 643.942 53.4882 643.336 53.3407C633.599 50.9599 623.903 48.4807 614.38 45.3769C611.724 44.5111 608.969 44.2045 606.115 44.457C605.9 44.4766 605.699 44.5678 605.546 44.715C605.394 44.8621 605.298 45.0561 605.277 45.2637C605.151 46.4902 605.158 47.779 605.297 49.13C605.302 49.1798 605.322 49.2272 605.354 49.2665C605.387 49.3058 605.431 49.3353 605.481 49.3514C611.087 51.0894 616.647 52.9176 622.161 54.836C626.764 56.4346 627.872 60.5124 627.862 64.846C627.845 75.9792 627.785 88.5521 627.683 102.565C627.607 113.406 627.811 124.793 627.719 136.013C627.648 145.172 627.637 154.297 627.688 163.387C627.688 163.561 627.777 163.65 627.954 163.653C631.111 163.728 634.338 163.73 637.635 163.658C642.386 163.554 647.959 162.182 650.11 157.858C651.428 155.202 652.082 152.411 652.072 149.486C651.959 121.557 652 93.2824 652.194 64.664C652.21 62.3915 651.944 60.114 651.071 58.1464ZM239.25 53.5079C234.33 54.6639 231.827 57.1577 231.837 62.2193C231.878 91.6805 231.886 120.596 231.863 148.965C231.859 152.595 232.505 155.733 233.799 158.38C235.27 161.39 238.299 163.918 241.829 163.973C246.114 164.032 250.526 164.059 255.066 164.056C255.151 164.056 255.233 164.024 255.293 163.965C255.354 163.907 255.388 163.829 255.388 163.746C255.364 151.623 255.332 138.527 255.291 124.459C255.28 121.599 255.251 118.32 255.204 114.621C254.993 98.1161 254.943 81.8853 255.056 65.9282C255.071 63.9754 255.015 61.4815 255.679 59.7156C256.537 57.4299 258.371 55.7362 261.181 54.6344C265.693 52.8603 270.198 51.5321 274.693 50.65C274.993 50.5909 275.144 50.4139 275.148 50.1187L275.23 45.3228C275.23 45.2926 275.225 45.2627 275.213 45.2347C275.202 45.2067 275.184 45.1811 275.163 45.1596C275.141 45.138 275.115 45.1209 275.086 45.1093C275.057 45.0976 275.026 45.0916 274.995 45.0916C272.226 45.1162 269.559 45.0866 266.908 45.9179C257.811 48.7841 248.592 51.3141 239.25 53.5079ZM615.341 88.8357C618.406 89.8982 621.068 91.7084 623.218 94.0252C623.392 94.215 623.509 94.4445 623.556 94.6893C624.332 98.5851 624.468 102.363 623.964 106.023C623.59 108.715 623.196 111.487 622.784 114.34C622.655 115.246 622.239 116.051 621.538 116.756C621.395 116.9 621.417 117.013 621.604 117.095C623.12 117.751 624.545 118.185 625.88 118.399C626.544 118.507 626.873 118.235 626.866 117.582C626.818 111.424 626.866 105.229 627.009 98.9983C627.06 96.9126 626.886 94.4138 626.912 92.279C627.007 83.4708 627.053 74.7216 627.05 66.0315C627.05 62.8047 626.791 60.6207 626.273 59.4795C625.292 57.3217 623.45 55.8198 620.746 54.9737C616.655 53.6948 612.684 52.3945 608.833 51.073C607.702 50.686 606.532 50.3336 605.323 50.0155C605.288 50.0058 605.251 50.0044 605.215 50.0115C605.18 50.0186 605.146 50.034 605.118 50.0562C605.09 50.0785 605.068 50.107 605.054 50.1393C605.04 50.1716 605.034 50.2068 605.037 50.2417C605.081 50.8156 605.107 51.3599 605.113 51.8748C605.192 59.5746 605.263 67.3121 605.328 75.0873C605.364 78.7322 604.909 81.6983 603.244 84.7087C603.124 84.9252 603.187 85.0678 603.433 85.1367C607.353 86.2057 611.322 87.4387 615.341 88.8357ZM261.273 115.073C260.571 112.476 260.149 109.841 260.006 107.169C259.817 103.652 260.818 100.425 260.905 96.9864C260.961 94.7828 262.504 93.0021 264.456 92.1511C268.444 90.4098 273.036 88.6242 278.233 86.7943C278.499 86.6992 278.533 86.5534 278.336 86.3566C276.829 84.8465 275.863 83.6512 275.541 81.4131C275.34 79.9833 275.23 78.5486 275.209 77.109C275.104 68.3205 275.039 59.809 275.015 51.5747C275.015 51.5336 275.005 51.4931 274.987 51.4558C274.969 51.4186 274.943 51.3856 274.911 51.3589C274.878 51.3323 274.84 51.3127 274.799 51.3016C274.758 51.2904 274.715 51.288 274.673 51.2944C270.187 52.0224 265.666 53.7243 261.401 55.2689C259.367 56.0067 257.85 57.2414 256.849 58.9728C256.314 59.9009 256.016 61.2093 255.955 62.8981C255.808 66.971 255.742 70.8472 255.756 74.5265C255.82 88.6275 255.866 102.728 255.893 116.829C255.893 117.889 255.948 119.005 256.057 120.179C256.074 120.36 256.173 120.422 256.353 120.366C258.55 119.691 260.382 118.63 261.85 117.184C261.98 117.056 262.02 116.907 261.973 116.736C261.814 116.141 261.421 115.605 261.273 115.073ZM565.394 56.9659C565.181 56.787 564.913 56.6801 564.63 56.6614C564.348 56.6428 564.067 56.7134 563.831 56.8626L562.809 57.507C562.654 57.6045 562.522 57.7329 562.423 57.8834C562.324 58.034 562.259 58.2033 562.234 58.3799C562.208 58.5565 562.222 58.7363 562.274 58.9073C562.327 59.0783 562.417 59.2365 562.538 59.3712L563.504 60.4485C563.623 60.5815 563.769 60.689 563.934 60.7639C564.099 60.8387 564.278 60.8794 564.46 60.8831C564.642 60.8868 564.823 60.8535 564.991 60.7854C565.159 60.7173 565.31 60.6159 565.435 60.4879L566.385 59.509C566.504 59.3863 566.596 59.2419 566.656 59.0843C566.715 58.9266 566.741 58.759 566.732 58.5914C566.723 58.4239 566.679 58.2598 566.603 58.109C566.527 57.9581 566.419 57.8237 566.288 57.7136L565.394 56.9659ZM527.718 57.0347C527.558 56.8733 527.345 56.7704 527.114 56.7435C526.884 56.7166 526.652 56.7674 526.456 56.8872L524.806 57.8907C524.673 57.9718 524.561 58.0821 524.481 58.2126C524.4 58.3431 524.352 58.4901 524.342 58.6416C524.332 58.7931 524.358 58.9448 524.42 59.0845C524.482 59.2241 524.578 59.3476 524.699 59.445L526.196 60.6404C526.299 60.7228 526.419 60.7844 526.547 60.8215C526.676 60.8585 526.811 60.8703 526.944 60.8561C527.078 60.8418 527.207 60.8018 527.324 60.7386C527.441 60.6754 527.544 60.5901 527.626 60.4879L528.673 59.1892C528.82 59.007 528.893 58.7803 528.881 58.5502C528.869 58.3201 528.772 58.1019 528.607 57.9349L527.718 57.0347ZM314.326 57.3594C314.144 57.1724 313.902 57.0494 313.639 57.0102C313.376 56.971 313.107 57.0177 312.875 57.143L311.363 57.9595C311.197 58.0484 311.056 58.1742 310.951 58.3262C310.846 58.4782 310.781 58.6522 310.76 58.8336C310.739 59.015 310.763 59.1986 310.831 59.3691C310.898 59.5396 311.007 59.6921 311.148 59.814L312.533 61.0044C312.67 61.1218 312.833 61.2072 313.01 61.2539C313.187 61.3006 313.372 61.3073 313.552 61.2735C313.732 61.2397 313.902 61.1663 314.048 61.059C314.193 60.9517 314.311 60.8135 314.392 60.6551L315.107 59.2581C315.216 59.0491 315.255 58.8133 315.221 58.5821C315.186 58.3508 315.079 58.1353 314.913 57.9644L314.326 57.3594ZM456.887 59.991C457.025 59.8472 457.128 59.676 457.189 59.4895C457.25 59.303 457.268 59.1058 457.241 58.9119C457.214 58.718 457.143 58.5322 457.034 58.3676C456.924 58.203 456.778 58.0637 456.606 57.9595L455.845 57.5021C455.637 57.3755 455.397 57.3047 455.151 57.297C454.905 57.2892 454.661 57.3447 454.445 57.4578L453.551 57.9251C453.382 58.0132 453.234 58.1341 453.116 58.2803C452.998 58.4265 452.913 58.5947 452.867 58.7743C452.82 58.9538 452.813 59.1407 452.845 59.3231C452.878 59.5055 452.949 59.6794 453.055 59.8337L453.74 60.8371C453.856 61.0064 454.01 61.1479 454.191 61.251C454.373 61.3542 454.576 61.4161 454.786 61.4323C454.996 61.4484 455.206 61.4182 455.402 61.344C455.598 61.2699 455.774 61.1537 455.916 61.0044L456.887 59.991ZM350.885 58.0567C350.647 57.7888 350.309 57.6228 349.944 57.5952C349.579 57.5675 349.218 57.6805 348.94 57.9093L348.249 58.4779C347.97 58.7067 347.798 59.0325 347.769 59.3837C347.741 59.7348 347.858 60.0826 348.096 60.3504L348.48 60.7843C348.718 61.0521 349.056 61.2181 349.421 61.2457C349.786 61.2734 350.147 61.1604 350.425 60.9316L351.117 60.363C351.395 60.1342 351.567 59.8084 351.596 59.4573C351.624 59.1061 351.507 58.7584 351.27 58.4906L350.885 58.0567ZM543.243 59.7304C538.967 59.5582 534.523 59.1253 530.129 58.8449C529.962 58.8351 529.823 58.8892 529.71 59.0072L527.539 61.2995C527.42 61.4241 527.362 61.57 527.365 61.7373L527.498 80.69C527.498 80.7356 527.508 80.7808 527.526 80.8229C527.545 80.865 527.572 80.9032 527.606 80.9352C527.64 80.9672 527.681 80.9925 527.726 81.0095C527.77 81.0265 527.818 81.0349 527.866 81.0343C538.083 80.7933 548.985 80.8867 560.735 80.8621C561.733 80.8589 562.802 80.8342 563.943 80.7883C564.113 80.7818 564.202 80.6965 564.209 80.5325C564.328 76.1317 564.292 70.7685 564.101 64.4427C564.067 63.2589 564.02 62.3997 563.958 61.8652C563.938 61.7012 563.866 61.5635 563.744 61.452C562.8 60.6027 562.087 59.6303 561.603 58.535C561.535 58.3809 561.416 58.3219 561.246 58.358C555.548 59.532 549.547 59.9894 543.243 59.7304ZM313.376 81.5704C313.325 81.6327 313.313 81.695 313.34 81.7574C313.353 81.7907 313.377 81.8194 313.407 81.8396C313.437 81.8598 313.472 81.8706 313.508 81.8705C325.497 82.0279 337.446 81.9984 349.356 81.782C349.546 81.7754 349.642 81.682 349.642 81.5016L349.555 62.5292C349.555 62.3489 349.48 62.2029 349.33 62.0914C348.216 61.2503 347.363 60.9011 347.144 59.327C347.116 59.1401 347.007 59.0712 346.817 59.1204C345.161 59.5533 342.968 59.9009 340.237 60.1632C330.997 61.0585 322.963 60.701 316.134 59.0909C315.937 59.045 315.799 59.1122 315.72 59.2926C315.363 60.1222 314.798 60.9191 314.024 61.6832C313.909 61.8012 313.849 61.9406 313.846 62.1013C313.682 68.2139 313.624 74.3232 313.672 80.4293C313.672 80.7638 313.6 81.2999 313.376 81.5704ZM494.686 114.336C493.586 115.123 492.356 115.628 490.997 115.851C488.991 116.175 486.864 116.388 484.616 116.49C476.599 116.851 469.11 117.07 462.149 117.149C445.406 117.339 428.745 117.375 412.166 117.257C404.602 117.205 397.845 116.974 391.895 116.564C388.636 116.341 385.303 115.696 381.898 114.631C381.741 114.581 381.61 114.495 381.504 114.37C381.399 114.249 381.269 114.175 381.116 114.149C380.963 114.122 380.786 114.183 380.585 114.331C376.191 117.528 369.928 117.272 364.564 117.272C334.57 117.256 303.727 117.267 272.037 117.307C269.569 117.307 267.061 117.149 264.629 116.967C264.234 116.938 264.181 117.054 264.471 117.316C268.389 120.843 272.798 120.484 277.973 120.489C307.732 120.528 337.49 120.538 367.246 120.519C370.819 120.515 373.947 120.104 376.631 119.284C378.791 118.625 380.59 117.498 381.361 115.314C381.484 114.964 381.654 114.942 381.872 115.25C382.822 116.602 384.167 117.408 385.908 117.671C388.782 118.103 391.715 118.358 394.705 118.433C422.693 119.141 449.13 119.236 474.016 118.718C478.832 118.62 483.642 118.445 488.448 118.192C491.462 118.035 495.007 117.626 497.24 115.787C497.369 115.682 497.453 115.547 497.49 115.383C497.807 114.09 498.159 112.821 498.251 111.487C498.548 107.201 498.304 102.489 497.521 97.3504C497.177 95.0943 496.344 93.1677 495.023 91.5707C494.262 90.6508 492.198 89.6966 491.585 88.0536C491.527 87.8962 491.428 87.7716 491.288 87.6798C490.406 87.0829 489.504 86.6206 488.581 86.2927C484.027 84.6793 479.637 83.6315 475.411 83.1495C470.091 82.5461 464.444 82.2542 458.471 82.2739C457.585 82.2771 455.903 82.3526 453.423 82.5001C451.669 82.6083 450.048 82.6526 448.56 82.6329C448.475 82.6297 448.389 82.6165 448.304 82.5936C447.439 82.3411 447.106 81.959 447.303 81.4475C447.335 81.3628 447.393 81.2892 447.468 81.2358C447.544 81.1824 447.634 81.1516 447.727 81.1474L454.246 80.8572C454.443 80.8474 454.544 80.7474 454.547 80.5572C454.66 74.6216 454.614 68.6123 454.409 62.5292C454.402 62.3161 454.321 62.1357 454.164 61.9882C453.398 61.27 452.809 60.3632 452.396 59.268C452.367 59.1884 452.308 59.1221 452.232 59.0821C452.155 59.0421 452.066 59.0312 451.983 59.0516C449.193 59.714 446.406 60.0993 443.62 60.2075C436.75 60.4731 429.803 60.1239 422.777 59.1598C422.525 59.1237 422.349 59.2188 422.25 59.445C421.92 60.1927 421.496 60.8437 420.978 61.3979C420.83 61.5527 420.748 61.7564 420.749 61.9685C420.742 67.235 420.886 72.5541 421.183 77.9255C421.186 77.991 421.204 78.055 421.235 78.1135C421.265 78.1721 421.308 78.2241 421.36 78.2661C421.412 78.3081 421.473 78.3392 421.538 78.3576C421.604 78.3761 421.672 78.3813 421.74 78.3731C423.01 78.2157 424.188 78.178 425.275 78.26C430.959 78.6929 436.599 79.4914 442.195 80.6555C442.828 80.7867 443.124 81.1638 443.083 81.7869L442.92 84.3743C442.882 84.9711 442.556 85.24 441.939 85.181C441.035 85.0974 440.197 85.0039 439.303 85.3433C434.215 87.2961 429.638 89.0866 423.916 90.7934C423.099 91.0345 422.22 90.454 421.484 90.3016C416.91 89.3407 412.515 88.575 408.299 88.0044C407.267 87.8634 406.124 87.6093 404.871 87.242C403.798 86.9272 402.652 86.655 401.433 86.4254C401.269 86.3926 401.211 86.2992 401.259 86.1451C401.436 85.5417 401.44 84.9498 401.269 84.3693C401.225 84.2087 401.116 84.1414 400.942 84.1676C396.14 84.9498 391.788 86.4402 387.2 88.1618C383.885 89.4112 380.988 93.676 381.228 97.1193C381.552 101.822 381.732 107.033 381.77 112.752C381.777 113.391 382.054 113.847 382.603 114.119C383.873 114.755 385.584 115.221 387.737 115.516C389.484 115.752 391.195 116.042 392.953 116.116C397.198 116.303 401.479 116.554 405.678 116.593C432.095 116.839 458.598 116.987 485 116.057C487.193 115.978 489.357 115.713 491.493 115.26C492.479 115.054 493.536 114.449 494.619 114.198C494.878 114.136 494.9 114.181 494.686 114.336ZM428.325 86.2484C431.482 85.1006 434.624 83.9086 437.75 82.6723C438.762 82.2739 439.819 82.1706 440.871 81.8656C441.743 81.6131 441.735 81.3917 440.846 81.2015C436.34 80.2374 431.134 79.4553 425.229 78.8552C423.693 78.6978 422.375 78.788 421.275 79.1257C418.605 79.9423 415.907 80.8047 413.183 81.7131C409.694 82.874 406.787 83.4052 403.343 83.5479C403.256 83.551 403.173 83.5816 403.105 83.6349C403.038 83.6882 402.991 83.7613 402.971 83.843C402.892 84.1447 403.011 84.3185 403.328 84.3644C409.111 85.1957 415.86 85.8499 421.98 87.183C424.524 87.7339 426.092 87.0649 428.325 86.2484ZM441.63 82.6265C441.613 82.5814 441.577 82.5448 441.531 82.525C441.486 82.5051 441.434 82.5035 441.387 82.5206L423.801 88.9191C423.777 88.9276 423.756 88.9404 423.738 88.9567C423.72 88.9731 423.705 88.9927 423.695 89.0145C423.685 89.0363 423.679 89.0598 423.678 89.0836C423.678 89.1075 423.682 89.1314 423.691 89.1537L423.979 89.8899C423.997 89.9351 424.033 89.9716 424.079 89.9915C424.124 90.0113 424.176 90.0129 424.223 89.9958L441.809 83.5973C441.832 83.5889 441.854 83.5761 441.872 83.5597C441.89 83.5434 441.904 83.5238 441.915 83.502C441.925 83.4802 441.931 83.4567 441.931 83.4328C441.932 83.4089 441.928 83.3851 441.919 83.3627L441.63 82.6265ZM533.659 89.6326C533.247 90.0786 532.767 90.1901 532.219 89.9671C531.285 89.5933 530.356 89.3424 529.429 89.2145C524.93 88.5914 520.183 88.6488 515.186 89.3866C514.447 89.4949 513.69 89.7031 512.913 90.0114C512.702 90.0966 512.591 90.0278 512.581 89.8048L512.576 89.613C512.566 89.3768 512.681 89.2342 512.923 89.185C518.526 88.0799 523.76 87.8749 528.627 88.5701C529.557 88.7046 530.494 88.9719 531.437 89.3719C531.486 89.3937 531.54 89.4015 531.593 89.3944C531.647 89.3873 531.697 89.3657 531.738 89.332C531.779 89.2983 531.809 89.2541 531.824 89.2045C531.84 89.1549 531.84 89.102 531.825 89.0522C530.967 85.968 527.478 84.3251 524.392 83.9414C524.242 83.9226 524.106 83.8483 524.014 83.7348C523.83 83.4987 523.823 83.2642 523.994 83.0314C524.164 82.8051 524.103 82.6887 523.81 82.6821C519.341 82.6001 515.166 82.7641 511.283 83.174C506.904 83.6364 503.51 84.3365 501.102 85.2744C498.694 86.2156 496.303 87.1518 493.929 88.0832C493.33 88.3193 493.277 88.6423 493.771 89.0522C497.173 91.8658 498.726 95.1861 499.059 99.559C499.185 101.209 499.328 102.938 499.488 104.748C499.743 107.572 499.701 110.728 499.36 114.217C499.352 114.308 499.379 114.398 499.435 114.471C499.492 114.543 499.574 114.593 499.666 114.611C503.471 115.303 507.14 115.739 510.676 115.919C516.75 116.224 522.814 116.569 528.903 116.623C552.924 116.833 576.945 116.869 600.965 116.731C606.043 116.702 612.071 116.608 617.333 115.555C618.472 115.329 619.596 114.808 620.766 114.444C620.923 114.398 621.027 114.299 621.078 114.149C621.459 112.978 621.737 111.822 621.911 110.681C622.61 106.082 623.367 101.566 622.733 96.8979C622.57 95.6845 622.232 94.6696 621.722 93.8531C621.211 93.0398 620.77 93.0742 620.398 93.9564C619.326 96.4798 616.633 96.6273 614.033 96.8388C611.22 97.0684 608.577 97.1816 606.105 97.1783C574.894 97.1553 543.567 97.1832 512.121 97.2619C509.305 97.2684 506.674 96.9504 504.228 96.3076C503.231 96.0453 502.359 95.5862 501.613 94.9303C501.443 94.7762 501.449 94.6302 501.633 94.4925L501.792 94.3695C501.83 94.3397 501.877 94.3227 501.927 94.321C501.977 94.3192 502.026 94.3327 502.067 94.3597C503.634 95.4091 505.271 96.0158 506.977 96.1797C512.995 96.7503 520.75 96.4208 525.639 96.4208C553.086 96.4011 580.532 96.3896 607.979 96.3863C610.636 96.3863 613.103 96.1797 615.653 95.8895C617.313 95.7026 619.3 94.9844 619.882 93.3513C620.019 92.9709 619.915 92.6693 619.571 92.4463C615.05 89.4998 609.956 88.2897 604.235 86.5484C600.308 85.3515 597.12 84.5579 594.671 84.1676C588.885 83.2429 582.922 82.7477 576.781 82.6821C576.594 82.6821 576.476 82.769 576.429 82.9428C575.943 84.7432 578.298 85.5204 579.591 86.2386C580.541 86.7698 581.031 87.4682 581.68 88.27C582.137 88.8341 581.997 89.0636 581.261 88.9587C574.92 88.07 568.515 88.1143 562.048 89.0915C561.932 89.1112 561.886 89.0653 561.91 88.9538L561.94 88.8013C561.957 88.7247 561.997 88.6546 562.055 88.6002C562.113 88.5458 562.187 88.5096 562.267 88.4963C568.476 87.5158 574.503 87.442 580.347 88.275C580.551 88.3045 580.647 88.2193 580.633 88.0192C580.602 87.5306 580.328 87.1436 579.81 86.8583C578.789 86.3025 576.403 85.2744 575.816 84.3202C575.598 83.966 575.555 83.5495 575.688 83.0707C575.701 83.0239 575.703 82.9747 575.694 82.927C575.684 82.8793 575.663 82.8344 575.632 82.7958C575.602 82.7572 575.562 82.7259 575.517 82.7045C575.471 82.6831 575.422 82.6721 575.371 82.6723L551.202 82.5838C551.008 82.5838 550.942 82.6723 551.003 82.8494C551.197 83.3905 551.55 83.8512 552.06 84.2316C553.782 85.5056 555.672 87.0256 556.204 88.9784C556.221 89.043 556.221 89.1109 556.203 89.1755C556.186 89.24 556.151 89.2991 556.103 89.3471C556.055 89.395 555.994 89.4302 555.928 89.4492C555.861 89.4682 555.791 89.4704 555.723 89.4555C554.359 89.1555 553.123 88.6291 551.687 88.5898C547.26 88.4652 542.824 88.5734 538.38 88.9144C538.358 88.9157 538.336 88.9113 538.317 88.9018C538.298 88.8922 538.283 88.8779 538.272 88.8603L538.201 88.7423C538.178 88.7055 538.166 88.664 538.164 88.6214C538.163 88.5788 538.172 88.5365 538.192 88.4984C538.212 88.4603 538.241 88.4275 538.278 88.4031C538.314 88.3787 538.356 88.3634 538.4 88.3586C542.623 87.9126 547.042 87.7814 551.657 87.9651C552.869 88.0142 553.93 88.3241 554.84 88.8947C554.979 88.98 555.109 88.98 555.228 88.8947C555.319 88.8274 555.382 88.7311 555.407 88.623C555.431 88.515 555.415 88.4021 555.361 88.3045C554.298 86.4009 552.592 85.4122 550.773 84.3152C550.589 84.2037 550.465 84.0463 550.4 83.843L550.129 82.9675C550.075 82.7871 549.949 82.6969 549.751 82.6969L525.485 82.5591C524.13 82.5493 524.101 82.7362 525.399 83.1199C527.388 83.7069 529.187 84.7137 530.798 86.1401C531.354 86.632 531.839 87.5912 532.254 89.0177C532.283 89.1109 532.335 89.1957 532.408 89.2637C532.48 89.3318 532.57 89.3809 532.668 89.4063C532.934 89.4752 533.227 89.4851 533.547 89.4359C533.778 89.3998 533.816 89.4653 533.659 89.6326ZM338.055 88.4324C338.038 88.3832 338.055 88.3488 338.106 88.3291C340.543 87.5322 342.924 86.3763 343.67 84.0447C343.68 84.0129 343.682 83.9794 343.676 83.9466C343.671 83.9137 343.657 83.8825 343.637 83.8551C343.617 83.8277 343.591 83.8049 343.56 83.7883C343.53 83.7718 343.495 83.7619 343.46 83.7594C341.958 83.684 340.567 83.6561 339.287 83.6758C334.341 83.7577 329.422 83.7463 324.528 83.6413C323.22 83.6151 321.861 83.6348 320.451 83.7004C319.106 83.766 317.818 83.7692 316.589 83.7102C312.642 83.5233 308.539 83.4561 304.282 83.5085C298.111 83.5872 291.94 84.3497 285.769 85.7958C283.167 86.4058 279.928 87.4109 276.052 88.8112C272.224 90.195 268.464 91.6117 264.772 93.0611C263.102 93.7203 261.922 94.9008 261.85 96.711C261.772 98.7343 261.579 100.71 261.273 102.638C260.675 106.387 261.38 110.145 261.952 113.937C262.228 115.787 264.496 116.239 266.187 116.401C270.53 116.815 275.797 116.598 280.226 116.593C309.008 116.577 337.791 116.58 366.577 116.603C371.047 116.608 375.762 116.475 379.507 114.39C380.246 113.976 380.605 113.275 380.585 112.284C380.496 107.926 380.368 103.415 380.201 98.7523C380.12 96.4043 380.431 94.5844 381.136 93.2923C381.943 91.8166 383.1 90.1917 384.605 88.4176C384.731 88.2701 384.738 88.1176 384.626 87.9602C384.305 87.5077 383.897 87.2256 383.399 87.1141C373.601 84.9153 363.185 83.1937 352.84 83.4839C350.122 83.5626 347.276 83.6397 344.303 83.7151C344.222 83.7168 344.143 83.7464 344.082 83.7987C344.022 83.851 343.982 83.9226 343.971 84.0004C343.562 86.937 340.875 87.6995 338.398 88.6783C338.251 88.7341 338.152 88.6915 338.101 88.5504L338.055 88.4324ZM423.486 88.8428C423.515 88.6821 423.476 88.517 423.378 88.3839C423.28 88.2509 423.132 88.1607 422.965 88.1332L403.517 84.9323C403.35 84.9049 403.179 84.9424 403.041 85.0366C402.902 85.1309 402.809 85.2741 402.78 85.4349L402.777 85.4542C402.748 85.615 402.787 85.7801 402.885 85.9132C402.983 86.0463 403.132 86.1364 403.299 86.1639L422.746 89.3647C422.913 89.3922 423.084 89.3547 423.223 89.2605C423.361 89.1663 423.455 89.023 423.483 88.8623L423.486 88.8428ZM586.227 119.879C594.169 119.863 601.764 119.779 609.011 119.628C612.03 119.564 620.363 118.768 621.103 115.014C621.111 114.969 621.106 114.923 621.087 114.88C621.069 114.838 621.038 114.802 620.999 114.776C620.96 114.751 620.914 114.737 620.867 114.736C620.821 114.736 620.775 114.749 620.736 114.773C619.748 115.39 618.689 115.819 617.558 116.062C614.714 116.669 611.652 117.023 608.373 117.125C600.7 117.364 592.013 117.48 582.314 117.474C563.96 117.461 545.62 117.341 527.294 117.115C523.265 117.062 517.763 116.816 510.788 116.377C505.744 116.056 502.032 115.559 499.651 114.886C499.467 114.834 499.322 114.883 499.217 115.034C499.101 115.201 499.047 115.391 499.053 115.605C499.055 115.695 499.081 115.783 499.128 115.86C499.176 115.938 499.243 116.002 499.324 116.047C502.793 117.98 506.829 118.684 510.926 118.841C515.626 119.022 520.184 119.163 524.602 119.264C544.648 119.717 565.19 119.922 586.227 119.879ZM503.273 119.161C501.771 118.841 500.234 117.985 498.972 117.139C498.743 116.985 498.514 116.982 498.282 117.129C494.451 119.569 490.226 119.55 485.7 119.86C482.093 120.105 479.05 120.233 476.57 120.243C466.946 120.292 457.239 120.363 447.451 120.455C441.127 120.517 426.61 120.433 403.9 120.204C399.844 120.164 395.362 120.045 390.454 119.845C387.267 119.714 384.52 119.117 382.214 118.054C382.044 117.976 381.88 117.987 381.724 118.089C378.642 120.046 375.147 121.083 371.241 121.197C368.462 121.279 365.683 121.32 362.904 121.32C332.722 121.34 302.539 121.309 272.353 121.227C269.046 121.217 265.881 120.222 262.857 118.241C262.836 118.228 262.817 118.23 262.8 118.246C260.965 119.892 258.884 121.04 256.558 121.689C256.436 121.723 256.33 121.794 256.255 121.891C256.179 121.988 256.138 122.105 256.139 122.226L256.118 140.706C256.118 140.855 256.171 140.999 256.269 141.116C256.366 141.232 256.503 141.313 256.655 141.345C258.344 141.703 260.037 141.882 261.733 141.882C349.495 141.901 468.577 141.87 618.978 141.788C620.473 141.785 622.175 141.731 624.082 141.626C624.998 141.577 625.771 141.365 626.401 140.991C626.725 140.798 626.886 140.517 626.886 140.15L626.876 119.535C626.876 119.345 626.779 119.236 626.585 119.21C624.841 118.945 623.069 118.486 621.267 117.833C621.134 117.785 620.991 117.771 620.85 117.792C620.71 117.814 620.577 117.87 620.465 117.956C619.464 118.713 618.326 119.258 617.052 119.589C613.691 120.465 609.65 120.661 606.002 120.706C574.264 121.109 543.064 120.945 512.402 120.214C509.255 120.138 506.212 119.787 503.273 119.161ZM256.43 142.398C256.414 142.394 256.397 142.393 256.381 142.396C256.365 142.4 256.35 142.407 256.338 142.418C256.219 142.516 256.157 142.639 256.154 142.787C256.106 149.952 256.134 156.932 256.236 163.727C256.236 163.772 256.246 163.817 256.265 163.858C256.284 163.9 256.311 163.937 256.346 163.969C256.38 164 256.42 164.025 256.464 164.042C256.509 164.058 256.556 164.067 256.604 164.066C266.172 163.909 275.648 163.687 285.13 163.692C337.82 163.709 385.882 163.7 429.316 163.668C493.698 163.612 557.768 163.628 621.527 163.717C623.349 163.72 625.059 163.664 626.656 163.55C626.82 163.54 626.902 163.454 626.902 163.294L626.861 142.639C626.857 142.357 626.714 142.249 626.432 142.315C624.763 142.705 622.745 142.9 620.378 142.9C552.771 142.942 485.167 142.951 417.566 142.924C360.186 142.902 307.908 142.938 260.731 143.033C259.57 143.033 258.136 142.821 256.43 142.398ZM620.138 168.277C620.141 168.421 620.218 168.506 620.368 168.532C624.613 169.226 628.557 169.526 632.863 168.65C633.524 168.519 633.89 168.134 633.962 167.495C634.064 166.589 634.086 165.681 634.028 164.769C634.018 164.599 633.923 164.515 633.742 164.519L619.647 164.691C619.613 164.692 619.58 164.701 619.55 164.717C619.52 164.733 619.494 164.755 619.475 164.783C619.456 164.81 619.444 164.842 619.44 164.874C619.437 164.907 619.441 164.94 619.453 164.971C619.899 166.053 620.128 167.155 620.138 168.277ZM265.13 164.735L252.685 165.006C252.522 165.009 252.367 165.075 252.254 165.189C252.142 165.302 252.08 165.454 252.082 165.611L252.139 167.903C252.156 168.634 252.594 169.326 253.355 169.827C254.117 170.328 255.14 170.596 256.2 170.574L261.881 170.451C262.941 170.428 263.95 170.115 264.688 169.582C265.425 169.049 265.83 168.339 265.814 167.608L265.758 165.315C265.754 165.158 265.686 165.009 265.568 164.901C265.45 164.792 265.293 164.732 265.13 164.735ZM433.428 174.976C433.632 174.933 433.814 174.824 433.945 174.669C434.075 174.513 434.147 174.32 434.148 174.12L434.194 165.197C434.194 165.007 434.096 164.91 433.898 164.907L424.268 164.868C424.108 164.868 424.03 164.945 424.033 165.099L424.141 173.624C424.144 173.851 424.214 174.073 424.345 174.264C424.475 174.455 424.659 174.606 424.876 174.701C427.426 175.808 430.664 175.547 433.428 174.976ZM621.155 174.962C624.807 175.665 629.022 175.621 632.654 174.976C632.826 174.946 632.984 174.864 633.104 174.742C633.224 174.62 633.301 174.464 633.323 174.297L633.921 169.698C633.926 169.656 633.921 169.612 633.906 169.572C633.892 169.531 633.867 169.495 633.836 169.465C633.804 169.436 633.765 169.414 633.723 169.401C633.682 169.389 633.637 169.386 633.594 169.393C629.258 170.072 624.904 170.043 620.531 169.305C620.477 169.296 620.421 169.3 620.368 169.315C620.315 169.33 620.266 169.357 620.226 169.394C620.186 169.43 620.155 169.474 620.136 169.524C620.117 169.573 620.111 169.626 620.117 169.679L620.628 174.411C620.662 174.719 620.838 174.903 621.155 174.962ZM265.079 170.323C264.582 170.566 264.081 170.726 263.577 170.805C260.2 171.336 256.072 171.553 252.701 170.682C252.674 170.675 252.645 170.674 252.618 170.68C252.591 170.685 252.565 170.697 252.543 170.714C252.521 170.73 252.504 170.752 252.492 170.776C252.48 170.801 252.475 170.827 252.476 170.854C252.506 172.097 252.597 173.348 252.747 174.607C252.854 175.468 252.879 176.162 253.957 176.373C256.696 176.901 259.742 176.908 263.097 176.393C264.123 176.24 264.992 175.872 265.079 174.716C265.195 173.135 265.252 171.705 265.252 170.426C265.253 170.406 265.248 170.386 265.239 170.369C265.229 170.351 265.214 170.336 265.197 170.326C265.179 170.316 265.159 170.31 265.138 170.309C265.117 170.309 265.097 170.313 265.079 170.323ZM429.571 181.4C431.339 181.386 433.612 181.381 433.893 179.664C434.07 178.565 434.143 177.352 434.113 176.024C434.111 175.969 434.096 175.915 434.069 175.866C434.043 175.817 434.005 175.774 433.959 175.742C433.912 175.709 433.859 175.687 433.802 175.677C433.746 175.667 433.688 175.67 433.632 175.685C430.479 176.557 427.347 176.426 424.238 175.291C424.214 175.282 424.188 175.279 424.163 175.282C424.138 175.285 424.114 175.294 424.093 175.308C424.072 175.322 424.055 175.341 424.044 175.363C424.033 175.385 424.027 175.409 424.028 175.434L424.299 180.038C424.314 180.279 424.412 180.509 424.576 180.69C424.741 180.871 424.964 180.993 425.208 181.036C426.618 181.292 428.073 181.414 429.571 181.4ZM621.64 181.253C622.396 181.745 623.724 181.996 624.46 182.035C627.082 182.179 629.633 182.073 632.112 181.715C632.308 181.687 632.487 181.598 632.624 181.462C632.761 181.326 632.847 181.15 632.869 180.963L633.436 176.358C633.494 175.873 633.274 175.673 632.777 175.758C628.829 176.434 624.882 176.409 620.935 175.685C620.904 175.68 620.873 175.681 620.843 175.688C620.814 175.696 620.786 175.71 620.763 175.728C620.739 175.747 620.72 175.771 620.708 175.797C620.695 175.824 620.689 175.852 620.69 175.881C620.727 177.495 620.93 179.102 621.298 180.702C621.359 180.958 621.473 181.141 621.64 181.253ZM264.537 176.855C260.89 177.652 257.118 177.726 253.222 177.077C253.058 177.05 252.975 177.118 252.971 177.278C252.934 178.974 253.085 180.702 253.426 182.463C253.457 182.624 253.554 182.724 253.717 182.763C257.004 183.537 260.278 183.578 263.541 182.886C263.785 182.835 264.006 182.71 264.173 182.53C264.34 182.35 264.444 182.123 264.471 181.882L264.971 177.224C265.006 176.909 264.861 176.786 264.537 176.855ZM622.57 187.923C625.206 188.887 628.756 188.666 631.428 188.213C631.615 188.182 631.788 188.095 631.922 187.964C632.056 187.834 632.144 187.666 632.174 187.485C632.443 185.921 632.593 184.322 632.623 182.689C632.627 182.525 632.543 182.453 632.373 182.473C629.216 182.833 626.365 182.896 623.821 182.66C623.075 182.591 622.319 182.405 621.553 182.104C621.345 182.022 621.246 182.089 621.257 182.305C621.321 183.742 621.439 185.193 621.609 186.659C621.681 187.295 622.001 187.716 622.57 187.923ZM262.667 189.733C263.468 189.576 263.919 189.089 264.021 188.272C264.222 186.672 264.316 185.195 264.302 183.84C264.299 183.657 264.203 183.583 264.016 183.619C260.644 184.271 257.242 184.27 253.809 183.614C253.753 183.603 253.696 183.605 253.641 183.619C253.586 183.633 253.536 183.66 253.493 183.696C253.45 183.732 253.417 183.777 253.396 183.828C253.374 183.878 253.366 183.933 253.37 183.988L253.738 188.651C253.757 188.891 253.856 189.119 254.02 189.301C254.183 189.482 254.403 189.608 254.647 189.659C257.327 190.233 260.001 190.258 262.667 189.733ZM629.931 195.385C630.743 195.301 631.551 195.478 631.688 194.411C631.92 192.62 632.053 190.846 632.087 189.089C632.09 188.879 631.986 188.797 631.775 188.843C628.424 189.574 625.177 189.449 622.033 188.469C621.774 188.39 621.662 188.48 621.696 188.739C621.88 190.14 621.984 191.576 622.008 193.048C622.028 194.47 622.871 195.213 624.337 195.351C626.445 195.547 628.31 195.559 629.931 195.385ZM263.694 190.309C260.547 190.987 257.39 191.025 254.223 190.422C253.964 190.373 253.845 190.476 253.865 190.732C253.998 192.414 254.102 193.936 254.177 195.296C254.248 196.536 255.027 197.243 256.512 197.416C257.922 197.584 259.364 197.618 260.839 197.52C262.499 197.412 263.439 197.446 263.628 195.651C263.812 193.919 263.928 192.214 263.975 190.535C263.977 190.501 263.97 190.467 263.956 190.435C263.942 190.404 263.92 190.376 263.893 190.355C263.866 190.333 263.834 190.317 263.799 190.309C263.765 190.301 263.729 190.301 263.694 190.309Z" stroke="#3A3541" stroke-width="1.5"/>
<path d="M428.011 82.5826L424.093 82.7007C424.001 82.7036 423.909 82.6879 423.824 82.6545C423.738 82.6212 423.661 82.5708 423.597 82.5068C423.533 82.4428 423.483 82.3666 423.452 82.283C423.42 82.1995 423.407 82.1105 423.414 82.0218L423.557 79.9755C423.563 79.8875 423.588 79.8016 423.63 79.7233C423.673 79.645 423.731 79.5762 423.803 79.5211C423.875 79.466 423.958 79.4258 424.046 79.4033C424.135 79.3808 424.227 79.3763 424.318 79.3902L429.462 80.1871C429.586 80.2061 429.702 80.2589 429.796 80.3391C429.89 80.4194 429.958 80.5238 429.992 80.6401C430.027 80.7563 430.026 80.8797 429.99 80.9955C429.954 81.1113 429.884 81.2148 429.789 81.2938L428.425 82.4301C428.31 82.5254 428.164 82.5793 428.011 82.5826ZM427.244 81.1498C427.265 81.0474 427.223 80.9374 427.126 80.844C427.03 80.7507 426.888 80.6815 426.731 80.6519C426.574 80.6223 426.416 80.6346 426.29 80.686C426.164 80.7375 426.082 80.8239 426.061 80.9263C426.04 81.0287 426.083 81.1387 426.179 81.2321C426.275 81.3254 426.417 81.3946 426.574 81.4242C426.731 81.4538 426.89 81.4416 427.015 81.3901C427.141 81.3386 427.223 81.2522 427.244 81.1498Z" stroke="#3A3541" stroke-width="1.5"/>
<path d="M459.522 86.0266C459.147 85.7937 458.734 85.6626 458.281 85.633C458.107 85.6232 457.962 85.556 457.846 85.4314L456.252 83.754C455.752 83.2293 455.864 83.0358 456.59 83.1736C457.822 83.4097 458.841 84.3263 459.645 85.9233C459.73 86.0971 459.689 86.1315 459.522 86.0266Z" stroke="#3A3541" stroke-width="1.5"/>
<path d="M337.916 90.315C338.171 90.2216 338.35 90.079 338.636 90.0445C344.079 89.3985 349.969 89.2607 356.307 89.6313C358.221 89.7428 359.829 90.0297 361.13 90.4921C361.194 90.5148 361.248 90.5572 361.284 90.6125C361.32 90.6678 361.336 90.7327 361.329 90.7971L361.313 90.925C361.311 90.9467 361.303 90.9676 361.291 90.9862C361.279 91.0048 361.263 91.0206 361.244 91.0328C361.225 91.0449 361.204 91.0529 361.181 91.0564C361.159 91.0599 361.136 91.0587 361.114 91.0529C359.578 90.6167 357.966 90.3528 356.276 90.2609C349.673 89.8969 343.696 90.0478 338.345 90.7135C337.875 90.7725 337.734 91.0185 337.921 91.4513C338.034 91.7137 337.95 91.7973 337.671 91.7022C336.94 91.4563 337.083 90.5413 336.47 90.0199C336.337 89.9051 336.182 89.8494 336.005 89.8527C331.568 89.8724 326.91 89.7543 322.033 89.4985C320.027 89.3935 315.717 89.6313 309.103 90.2118C308.985 90.2221 308.865 90.2027 308.756 90.1553C308.646 90.1079 308.552 90.0342 308.48 89.9412C308.228 89.6165 308.199 89.3099 308.393 89.0214C308.816 88.4048 309.352 88.0261 310.003 87.8851C313.476 87.1227 316.01 86.5373 318.166 84.6386C318.544 84.3041 318.621 84.3599 318.396 84.8058C317.257 87.0489 312.092 87.8211 309.808 88.4114C309.383 88.5229 309.11 88.7836 308.991 89.1935C308.977 89.2394 308.965 89.2853 308.955 89.3312C308.946 89.3864 308.951 89.4428 308.968 89.4961C308.985 89.5494 309.015 89.5981 309.055 89.6386C309.095 89.679 309.144 89.71 309.199 89.7292C309.253 89.7484 309.311 89.7553 309.369 89.7493C315.21 89.1558 319.133 88.8869 321.139 88.9427C325.863 89.0804 330.299 89.1985 334.447 89.2968C335.055 89.3067 335.546 89.1837 336.113 89.0263C336.28 88.9836 336.429 89.0132 336.562 89.1148C336.95 89.4165 337.267 89.7707 337.512 90.1773C337.608 90.3314 337.742 90.3773 337.916 90.315Z" stroke="#3A3541" stroke-width="1.5"/>
<path d="M461.132 89.6466C461.077 89.909 461.075 90.1926 461.127 90.4976C461.13 90.5173 461.121 90.5288 461.101 90.5321L460.978 90.5616C460.89 90.5779 460.832 90.5452 460.805 90.4632C460.379 89.1974 460.074 87.8611 459.89 86.4542C459.88 86.3887 459.892 86.3854 459.926 86.4444C460.57 87.5954 460.8 88.7957 462.521 88.5596C466.094 88.0644 470.017 87.9841 474.291 88.3185C474.526 88.3382 474.736 88.4186 474.92 88.5596C475.073 88.6809 475.139 88.8334 475.119 89.017C475.117 89.0331 475.112 89.0488 475.104 89.063C475.096 89.0772 475.085 89.0897 475.072 89.0997C475.059 89.1098 475.045 89.1172 475.029 89.1216C475.014 89.126 474.997 89.1272 474.981 89.1253C470.407 88.5743 465.91 88.6382 461.489 89.317C461.288 89.3466 461.169 89.4564 461.132 89.6466Z" stroke="#3A3541" stroke-width="1.5"/>
<path d="M405.329 87.8274C405.326 87.8536 405.311 87.8667 405.283 87.8667C402.899 87.8339 400.536 87.8831 398.193 88.0143C398.169 88.0176 398.15 88.0077 398.136 87.9848L398.055 87.8323C398.043 87.8093 398.037 87.7842 398.038 87.7587C398.038 87.7332 398.044 87.7082 398.056 87.6854C398.068 87.6626 398.085 87.6427 398.106 87.6273C398.127 87.6118 398.151 87.6012 398.177 87.5962C400.469 87.1994 402.828 87.2388 405.253 87.7143C405.314 87.7274 405.339 87.7634 405.329 87.8225V87.8274Z" stroke="#3A3541" stroke-width="1.5"/>
<path d="M583.785 88.0578C584.15 87.8971 584.526 87.8004 584.914 87.7676C589.434 87.3675 593.885 87.3675 598.268 87.7676C598.341 87.7739 598.408 87.8067 598.456 87.859C598.504 87.9114 598.528 87.9791 598.524 88.0479L598.519 88.1857C598.512 88.2939 598.452 88.3431 598.34 88.3332C593.439 87.8971 588.623 87.9266 583.893 88.4218C583.072 88.507 583.036 88.3857 583.785 88.0578Z" stroke="#3A3541" stroke-width="1.5"/>
<path d="M439.846 88.4362C443.013 88.2755 446.288 88.1526 449.67 88.0673C452.254 88.005 454.669 88.2509 456.914 88.8051C457.527 88.9593 457.83 89.3331 457.823 89.9267C457.816 90.4579 457.656 90.5054 457.343 90.0693C456.944 89.5184 456.375 89.2118 455.636 89.1494C450.317 88.6903 445.048 88.6887 439.83 89.1445C439.667 89.1609 439.522 89.2167 439.396 89.3118C439.335 89.361 439.265 89.3921 439.187 89.4052C438.996 89.4348 438.897 89.3561 438.89 89.1691L438.86 88.3378C438.853 88.1181 438.955 88.0509 439.166 88.1362C439.228 88.1624 439.284 88.2001 439.335 88.2493C439.474 88.3838 439.645 88.4461 439.846 88.4362Z" stroke="#3A3541" stroke-width="1.5"/>
<path d="M300.153 90.7484C300.151 90.6226 300.101 90.5018 300.012 90.4092C299.924 90.3167 299.803 90.2588 299.673 90.2467C293.464 89.6826 287.139 89.6449 280.699 90.1336C280.597 90.1434 280.517 90.1073 280.459 90.0254L280.301 89.804C280.209 89.6729 280.244 89.6007 280.408 89.5876C286.603 89.053 292.772 89.0383 298.916 89.5433C299.529 89.5958 300.134 89.6958 300.73 89.8434C300.788 89.858 300.842 89.8852 300.888 89.9229C300.934 89.9605 300.97 90.0077 300.995 90.061C301.019 90.1142 301.031 90.1722 301.029 90.2308C301.028 90.2893 301.013 90.3468 300.985 90.3992C300.795 90.7501 300.522 91.0583 300.168 91.324C299.971 91.4715 299.928 91.4371 300.04 91.2206C300.115 91.0731 300.153 90.9157 300.153 90.7484Z" stroke="#3A3541" stroke-width="1.5"/>
<path d="M376.664 95.3966C374.232 97.1379 370.86 97.7971 367.892 97.8954C364.486 98.0069 361.079 98.0594 357.67 98.0528C333.574 98.0036 309.478 97.9889 285.383 98.0086C281 98.0118 276.146 97.9201 270.823 97.7331C268.531 97.6544 266.59 97.356 264.999 96.8379C264.928 96.8149 264.872 96.7723 264.831 96.71L264.345 95.9623C264.257 95.8278 264.286 95.7967 264.432 95.8688C265.682 96.4689 266.874 96.7919 268.008 96.8379C271.559 96.9707 275.063 97.1478 278.568 97.1527C308.215 97.2117 337.86 97.2593 367.504 97.2953C368.338 97.2986 369.467 97.1412 370.891 96.8231C373.471 96.2426 375.279 95.8786 376.929 94.3685C377.365 93.9685 377.512 94.0504 377.369 94.6145C377.314 94.8375 377.079 95.0982 376.664 95.3966Z" stroke="#3A3541" stroke-width="1.5"/>
<path d="M486.726 96.2187C489.209 96.0481 491.635 95.4431 494.006 94.4036C494.026 94.3938 494.041 94.3986 494.052 94.4183C494.215 94.6741 494.198 94.9053 494.001 95.1119C493.834 95.2824 493.64 95.4103 493.418 95.4956C488.749 97.3156 482.894 97.4287 478.23 97.4632C452.018 97.6501 426.868 97.8862 399.558 97.6353C396.356 97.6058 393.429 97.3697 390.776 96.927C388.824 96.6024 386.759 96.0006 384.579 95.1218C384.463 95.0726 384.426 94.9922 384.467 94.8807L384.513 94.7578C384.543 94.6791 384.6 94.6528 384.681 94.679C387.505 95.5743 389.931 96.1318 391.961 96.3515C395.271 96.7122 398.818 96.9008 402.602 96.9172C427.713 97.032 452.829 96.9434 477.949 96.6515C480.902 96.6171 483.84 96.4203 486.726 96.2187Z" stroke="#3A3541" stroke-width="1.5"/>
</svg>
