<svg width="80" height="39" viewBox="0 0 80 39" fill="none" xmlns="http://www.w3.org/2000/svg">
<path d="M13.9211 34.2929C15.4799 33.925 16.4453 32.3631 16.0774 30.8043C15.7095 29.2455 14.1476 28.2801 12.5888 28.648C11.03 29.0159 10.0646 30.5778 10.4325 32.1366C10.8004 33.6954 12.3623 34.6608 13.9211 34.2929Z" fill="#2352CB"/>
<path d="M23.81 9.87998H23.45C22.42 9.87998 21.53 10.45 21.07 11.28L16.19 16.9V12.4C16.19 10.89 14.97 9.66998 13.46 9.66998H13.1C12.07 9.66998 11.18 10.24 10.72 11.07L5.82 16.71V12.27C5.82 10.76 4.6 9.53998 3.09 9.53998H2.73C1.22 9.53998 0 10.76 0 12.27V24.65C0 26.16 1.22 27.38 2.73 27.38H3.09C4.12 27.38 5.01 26.81 5.47 25.98L10.35 20.36V24.86C10.35 26.37 11.57 27.59 13.08 27.59H13.44C14.47 27.59 15.36 27.02 15.82 26.19L20.72 20.55V24.99C20.72 26.5 21.94 27.72 23.45 27.72H23.81C25.32 27.72 26.54 26.5 26.54 24.99V12.61C26.54 11.1 25.32 9.87998 23.81 9.87998Z" fill="#2352CB"/>
<path d="M16.54 3H10C8.55302 3 7.38 4.17301 7.38 5.62V5.97C7.38 7.41699 8.55302 8.59 10 8.59H16.54C17.987 8.59 19.16 7.41699 19.16 5.97V5.62C19.16 4.17301 17.987 3 16.54 3Z" fill="#2352CB"/>
<path d="M43.1226 16.5766H42.9517C42.2627 16.5766 41.7046 16.0186 41.7046 15.3295V6.40059H41.6192L40.7024 15.4548C40.6398 16.0926 40.0988 16.5766 39.461 16.5766H38.9257C38.2879 16.5766 37.747 16.0926 37.6843 15.4548L36.7504 6.2924H36.665V15.3238C36.665 16.0129 36.107 16.5709 35.4179 16.5709H35.2471C34.5581 16.5709 34 16.0129 34 15.3238V1.24709C34.0057 0.558059 34.5638 0 35.2528 0H38.1228C38.1228 0 38.3164 0.0455558 38.3847 0.108195C38.4816 0.199307 38.5157 0.261946 38.5271 0.392919C38.5841 1.05348 38.641 1.69695 38.6923 2.31765C38.7549 3.06932 38.8118 3.80391 38.8574 4.53281C38.9086 5.2617 38.9542 5.99629 39.0054 6.73657C39.0567 7.47685 39.1023 8.23991 39.1421 9.02575H39.2275C39.2674 8.24561 39.3129 7.48255 39.3528 6.73657C39.3927 5.99059 39.4439 5.2617 39.5009 4.53281C39.5578 3.80391 39.6148 3.06932 39.6774 2.31765C39.7286 1.67987 39.8027 1.0307 39.8425 0.358752C39.8539 0.159445 39.8482 0 40.3095 0C41.0156 0 43.1226 0 43.1226 0C43.8116 0 44.3696 0.558059 44.3696 1.24709V15.3295C44.3696 16.0186 43.8116 16.5766 43.1226 16.5766Z" fill="#2352CB"/>
<path d="M49.0505 16.7873C48.4071 16.7873 47.8775 16.7702 47.4675 16.736C47.0575 16.7019 46.7272 16.6051 46.4937 16.4399C46.2546 16.2805 46.0894 16.0356 45.9983 15.7053C45.9072 15.3751 45.8616 14.9252 45.8616 14.35V11.3092C45.8616 10.5518 46.0097 9.99946 46.3115 9.6521C46.6133 9.30474 47.1486 9.12821 47.9173 9.12821H48.5039C48.726 9.12821 48.9025 9.12821 49.0278 9.1396C49.153 9.14529 49.2669 9.16237 49.3637 9.19085V6.79917C49.3637 6.61694 49.341 6.49736 49.3011 6.43472C49.2612 6.37208 49.1473 6.33791 48.9651 6.33791C48.7943 6.33791 48.6918 6.37208 48.6519 6.43472C48.6121 6.49736 48.5893 6.61694 48.5893 6.79917V7.95514H45.8616V6.46319C45.8616 5.87666 45.9015 5.40402 45.9869 5.04527C46.0723 4.68651 46.2261 4.41887 46.4596 4.23665C46.6873 4.05443 47.0062 3.93484 47.4162 3.8779C47.8262 3.82095 48.3444 3.79248 48.9879 3.79248C49.6712 3.79248 50.2293 3.82095 50.6564 3.8779C51.0835 3.93484 51.4137 4.05443 51.6529 4.24234C51.8921 4.43026 52.0572 4.6979 52.1483 5.05096C52.2395 5.39832 52.285 5.87097 52.285 6.4575V16.5709C52.1597 16.6108 51.9718 16.6449 51.7156 16.6734C51.465 16.7019 51.186 16.7246 50.8785 16.736C50.571 16.7474 50.2578 16.7588 49.9332 16.7702C49.6086 16.7816 49.3182 16.7816 49.0505 16.7816V16.7873ZM48.5893 13.8489C48.5893 14.0312 48.6121 14.1507 48.6519 14.2134C48.6918 14.276 48.8057 14.3045 48.9879 14.3045C49.1587 14.3045 49.284 14.2931 49.3637 14.2646V11.2636C49.2214 11.2352 49.0904 11.2238 48.9651 11.2238C48.7943 11.2238 48.6918 11.2522 48.6519 11.3149C48.6121 11.3775 48.5893 11.5028 48.5893 11.6793V13.8432V13.8489Z" fill="#2352CB"/>
<path d="M57.951 6.42336H56.8576V13.308C56.8576 13.7863 57.1025 14.0198 57.5922 14.0198H57.9282V16.5823H57.2164C55.9693 16.5823 55.098 16.3716 54.6026 15.9445C54.1072 15.5174 53.8566 14.8455 53.8566 13.9173V6.42906H53.1448V4.0146H53.8566V1.44069C53.8566 0.751662 54.4147 0.193604 55.1037 0.193604H55.6105C56.2996 0.193604 56.8576 0.751662 56.8576 1.44069V4.0089H57.951V6.42336Z" fill="#2352CB"/>
<path d="M62.1877 16.7873C61.5442 16.7873 61.0146 16.7702 60.6046 16.736C60.1946 16.7019 59.8643 16.6051 59.6309 16.4399C59.3917 16.2805 59.2266 16.0356 59.1354 15.7053C59.0443 15.3751 58.9988 14.9252 58.9988 14.35V11.3092C58.9988 10.5518 59.1468 9.99946 59.4486 9.6521C59.7505 9.30474 60.2857 9.12821 61.0545 9.12821H61.641C61.8631 9.12821 62.0396 9.12821 62.1649 9.1396C62.2902 9.14529 62.4041 9.16237 62.5009 9.19085V6.79917C62.5009 6.61694 62.4781 6.49736 62.4382 6.43472C62.3984 6.37208 62.2845 6.33791 62.1023 6.33791C61.9314 6.33791 61.8289 6.37208 61.7891 6.43472C61.7492 6.49736 61.7264 6.61694 61.7264 6.79917V7.95514H58.9988V6.46319C58.9988 5.87666 59.0386 5.40402 59.1241 5.04527C59.2095 4.68651 59.3632 4.41887 59.5967 4.23665C59.8245 4.05443 60.1434 3.93484 60.5534 3.8779C60.9634 3.82095 61.4816 3.79248 62.125 3.79248C62.8084 3.79248 63.3664 3.82095 63.7935 3.8779C64.2206 3.93484 64.5509 4.05443 64.7901 4.24234C65.0292 4.43026 65.1944 4.6979 65.2855 5.05096C65.3766 5.39832 65.4222 5.87097 65.4222 6.4575V16.5709C65.2969 16.6108 65.109 16.6449 64.8527 16.6734C64.6021 16.7019 64.3231 16.7246 64.0156 16.736C63.7081 16.7474 63.3949 16.7588 63.0703 16.7702C62.7457 16.7816 62.4553 16.7816 62.1877 16.7816V16.7873ZM61.7264 13.8489C61.7264 14.0312 61.7492 14.1507 61.7891 14.2134C61.8289 14.276 61.9428 14.3045 62.125 14.3045C62.2959 14.3045 62.4212 14.2931 62.5009 14.2646V11.2636C62.3585 11.2352 62.2275 11.2238 62.1023 11.2238C61.9314 11.2238 61.8289 11.2522 61.7891 11.3149C61.7492 11.3775 61.7264 11.5028 61.7264 11.6793V13.8432V13.8489Z" fill="#2352CB"/>
<path d="M71.0426 3.65016H74.1916V5.62045H74.9262V8.28547H74.1916V15.3238C74.1916 16.0129 73.6335 16.5709 72.9445 16.5709H70.6496C69.8638 16.5709 69.226 16.5311 68.7306 16.457C68.2352 16.383 67.848 16.2236 67.5632 15.9844C67.2785 15.7452 67.0963 15.4036 66.9938 14.9537C66.897 14.5038 66.8457 13.9116 66.8457 13.1713V9.81159C66.8457 9.29339 66.8799 8.86061 66.9482 8.50755C67.0166 8.16019 67.1191 7.88116 67.2443 7.67046C67.3696 7.45977 67.5234 7.30602 67.6942 7.19782C67.8707 7.09532 68.0586 7.0156 68.2693 6.95865V6.87324C68.127 6.84476 67.9732 6.79351 67.8081 6.71379C67.643 6.63407 67.4835 6.51448 67.3468 6.34934C67.2045 6.17851 67.0906 5.95643 66.9881 5.6774C66.8913 5.39837 66.84 5.03961 66.84 4.60683V3.37113C66.84 2.63085 66.8913 2.03862 66.9881 1.60015C67.0849 1.15598 67.2728 0.820005 67.5575 0.580837C67.8366 0.341669 68.2238 0.182223 68.7249 0.108195C69.2203 0.0398614 69.8638 0 70.6439 0H71.0426V2.92127H70.6439C70.4617 2.92127 70.3478 2.94974 70.308 3.01238C70.2681 3.07502 70.2453 3.1946 70.2453 3.37683V5.18198C70.2453 5.34712 70.2681 5.4667 70.308 5.52934C70.3478 5.59198 70.4617 5.62615 70.6439 5.62615H71.0426V3.65586V3.65016ZM71.0426 8.29116H70.6439C70.4617 8.29116 70.3478 8.32533 70.308 8.38797C70.2681 8.45061 70.2453 8.57019 70.2453 8.75241V13.177C70.2453 13.3592 70.2681 13.4845 70.308 13.5415C70.3478 13.6041 70.4617 13.6383 70.6439 13.6383H71.0426V8.28547V8.29116Z" fill="#2352CB"/>
<path d="M38.8061 25.2152H37.7128V32.0998C37.7128 32.5781 37.9577 32.8116 38.4474 32.8116H38.7834V35.3741H38.0716C36.8245 35.3741 35.9532 35.1634 35.4578 34.7363C34.9624 34.3093 34.7118 33.6373 34.7118 32.7091V25.2209H34V22.8064H34.7118V20.2325C34.7118 19.5435 35.2699 18.9854 35.9589 18.9854H36.4657C37.1547 18.9854 37.7128 19.5435 37.7128 20.2325V22.8007H38.8061V25.2152Z" fill="#2352CB"/>
<path d="M44.0166 30.0612C43.3276 30.0612 42.7695 30.6192 42.7695 31.3083V32.5553C42.7695 32.7376 42.7923 32.8628 42.8322 32.9198C42.872 32.9824 42.9802 33.0166 43.1454 33.0166C43.3276 33.0166 43.4415 32.9824 43.4813 32.9198C43.5212 32.8572 43.544 32.7376 43.544 32.5553V31.0862H46.2716V32.9141C46.2716 33.5006 46.2261 33.9733 46.135 34.332C46.0439 34.6908 45.8844 34.9584 45.6509 35.1406C45.4175 35.3229 45.0986 35.4424 44.6943 35.4994C44.29 35.5563 43.7661 35.5848 43.1226 35.5848C42.4393 35.5848 41.8812 35.5563 41.4541 35.4994C41.027 35.4424 40.6967 35.3229 40.4576 35.1349C40.2184 34.947 40.059 34.6737 39.9735 34.3263C39.8881 33.979 39.8483 33.5063 39.8483 32.9198V25.2607C39.8483 24.6742 39.8881 24.2072 39.9735 23.8542C40.059 23.5011 40.2184 23.2335 40.4576 23.0456C40.6967 22.8576 41.027 22.7324 41.4541 22.6811C41.8812 22.6242 42.4393 22.5957 43.1226 22.5957C43.7661 22.5957 44.29 22.6242 44.6943 22.6811C45.0986 22.7381 45.4175 22.8576 45.6509 23.0399C45.8787 23.2221 46.0439 23.4897 46.135 23.8485C46.2261 24.2072 46.2716 24.6742 46.2716 25.2664V28.8255C46.2716 29.5145 45.7136 30.0726 45.0245 30.0726H44.0166V30.0612ZM42.7695 27.7549H43.544V25.6764C43.544 25.4942 43.5212 25.3746 43.4813 25.312C43.4415 25.2493 43.3276 25.2209 43.1454 25.2209C42.9745 25.2209 42.872 25.2493 42.8322 25.312C42.7923 25.3746 42.7695 25.4999 42.7695 25.6764V27.7549Z" fill="#2352CB"/>
<path d="M49.5402 35.3684H49.0391C48.3501 35.3684 47.792 34.8104 47.792 34.1213V20.0389C47.7863 19.3499 48.3444 18.7918 49.0334 18.7918H49.5345C50.2236 18.7918 50.7816 19.3499 50.7816 20.0389V34.1213C50.7816 34.8104 50.2236 35.3684 49.5345 35.3684H49.5402Z" fill="#2352CB"/>
<path d="M55.491 20.9728H52.5128V18.7918H55.491V20.9728ZM54.2382 35.3684H53.7542C53.0651 35.3684 52.5071 34.8104 52.5071 34.1213V24.0478C52.5071 23.3588 53.0651 22.8007 53.7542 22.8007H54.2382C54.9272 22.8007 55.4853 23.3588 55.4853 24.0478V34.1213C55.4853 34.8104 54.9272 35.3684 54.2382 35.3684Z" fill="#2352CB"/>
<path d="M62.7799 35.3684H62.256C61.567 35.3684 61.009 34.8103 61.009 34.1213V25.8415C61.009 25.6764 60.9919 25.5568 60.9577 25.4828C60.9235 25.4088 60.8267 25.3803 60.673 25.3803C60.5306 25.3803 60.4338 25.4031 60.3712 25.4543C60.3085 25.5056 60.2573 25.5796 60.2117 25.6764V34.1213C60.2117 34.8103 59.6537 35.3684 58.9646 35.3684H58.4635C57.7745 35.3684 57.2164 34.8103 57.2164 34.1213V24.0478C57.2164 23.3587 57.7745 22.8007 58.4635 22.8007H60.0067V23.3701C60.1605 23.131 60.3826 22.9601 60.6787 22.8576C60.9748 22.7551 61.3563 22.6982 61.8347 22.6982C62.256 22.6982 62.6091 22.738 62.8938 22.8235C63.1786 22.9089 63.4063 23.0455 63.5772 23.2449C63.7423 23.4385 63.8619 23.7004 63.9359 24.0307C64.0043 24.361 64.0384 24.771 64.0384 25.2607V34.127C64.0384 34.816 63.4804 35.3741 62.7913 35.3741L62.7799 35.3684Z" fill="#2352CB"/>
<path d="M72.0619 35.5791C72.0619 36.5984 71.8227 37.3558 71.3387 37.8455C70.8547 38.3352 70.029 38.5801 68.8502 38.5801H67.0565C66.3674 38.5801 65.8094 38.022 65.8094 37.333C65.8094 36.644 66.3674 36.0859 67.0565 36.0859H68.5142C68.7079 36.0859 68.8445 36.0461 68.9242 35.972C69.004 35.898 69.0381 35.767 69.0381 35.5848V34.1555C68.8559 34.406 68.6338 34.5826 68.3662 34.6794C68.0986 34.7762 67.7626 34.8274 67.3583 34.8274C66.954 34.8274 66.6237 34.7819 66.3731 34.6908C66.1226 34.5997 65.929 34.4573 65.798 34.258C65.667 34.0644 65.5759 33.8024 65.5246 33.4722C65.4734 33.1419 65.4506 32.7433 65.4506 32.2649V25.255C65.4506 24.7653 65.4734 24.3553 65.5246 24.025C65.5759 23.6947 65.667 23.4328 65.8094 23.2392C65.9517 23.0456 66.151 22.9032 66.4187 22.8178C66.6863 22.7324 67.028 22.6925 67.4494 22.6925C67.9277 22.6925 68.3092 22.7438 68.594 22.852C68.8787 22.9601 69.1065 23.131 69.2773 23.3645V22.795H70.8205C71.5095 22.795 72.0676 23.3531 72.0676 24.0421V35.5734L72.0619 35.5791ZM68.3719 31.6784C68.3719 31.8492 68.389 31.9631 68.4231 32.0371C68.4573 32.1112 68.5541 32.1453 68.7079 32.1453C68.8217 32.1453 68.9072 32.1226 68.9698 32.0827C69.0324 32.0428 69.0894 31.9631 69.1463 31.8549V25.6878C69.0894 25.5739 69.0324 25.4999 68.9698 25.46C68.9072 25.4202 68.8217 25.3974 68.7079 25.3974C68.5541 25.3974 68.4573 25.4315 68.4231 25.4999C68.389 25.5682 68.3719 25.6878 68.3719 25.8586V31.6898V31.6784Z" fill="#2352CB"/>
<path d="M76.7656 35.5791C76.1221 35.5791 75.5925 35.562 75.1825 35.5278C74.7725 35.4937 74.4422 35.3969 74.2087 35.2317C73.9696 35.0723 73.8044 34.8274 73.7133 34.4971C73.6222 34.1669 73.5767 33.717 73.5767 33.1419V30.101C73.5767 29.3436 73.7247 28.7913 74.0265 28.4439C74.3283 28.0965 74.8636 27.92 75.6324 27.92H76.2189C76.441 27.92 76.6175 27.92 76.7428 27.9314C76.8681 27.9371 76.982 27.9542 77.0788 27.9827V25.591C77.0788 25.4088 77.056 25.2892 77.0161 25.2265C76.9763 25.1639 76.8624 25.1297 76.6801 25.1297C76.5093 25.1297 76.4068 25.1639 76.367 25.2265C76.3271 25.2892 76.3043 25.4088 76.3043 25.591V26.747H73.5767V25.255C73.5767 24.6685 73.6165 24.1958 73.7019 23.8371C73.7874 23.4783 73.9411 23.2107 74.1746 23.0285C74.4024 22.8462 74.7213 22.7267 75.1313 22.6697C75.5413 22.6128 76.0595 22.5843 76.7029 22.5843C77.3863 22.5843 77.9443 22.6128 78.3714 22.6697C78.7985 22.7267 79.1288 22.8462 79.3679 23.0342C79.6071 23.2221 79.7723 23.4897 79.8634 23.8428C79.9545 24.1901 80 24.6628 80 25.2493V35.3627C79.8748 35.4026 79.6868 35.4367 79.4306 35.4652C79.18 35.4937 78.901 35.5165 78.5935 35.5278C78.286 35.5392 77.9728 35.5506 77.6482 35.562C77.3236 35.5734 77.0332 35.5734 76.7656 35.5734V35.5791ZM76.3043 32.6407C76.3043 32.823 76.3271 32.9425 76.367 33.0052C76.4068 33.0678 76.5207 33.0963 76.7029 33.0963C76.8738 33.0963 76.999 33.0849 77.0788 33.0564V30.0554C76.9364 30.027 76.8054 30.0156 76.6801 30.0156C76.5093 30.0156 76.4068 30.0441 76.367 30.1067C76.3271 30.1693 76.3043 30.2946 76.3043 30.4711V32.635V32.6407Z" fill="#2352CB"/>
</svg>
