<svg width="405" height="391" viewBox="0 0 405 391" fill="none" xmlns="http://www.w3.org/2000/svg">
<path d="M363.197 110.544C363.197 46.8347 263.848 6.48442 223.163 53.367C185.388 96.8952 77.2755 150.807 77.2755 150.807C77.2755 150.807 15.3884 187.895 25.0174 233.984C40.8771 309.895 102.815 363.299 186.259 386.673C248.964 404.237 348.581 353.983 363.197 330.075C377.812 306.168 377.812 279.847 356.125 233.984C334.437 188.121 363.197 187.898 363.197 110.544Z" fill="#2352CB" fill-opacity="0.28"/>
<circle cx="341.915" cy="41.9153" r="41.4153" stroke="#2352CB" stroke-opacity="0.28"/>
<circle cx="355.464" cy="320.117" r="41.4153" stroke="#FF8EB7" stroke-opacity="0.32"/>
<circle cx="344.093" cy="66.9557" r="32.1169" fill="#2352CB" fill-opacity="0.28"/>
<circle cx="363.085" cy="287.456" r="41.9153" fill="#FF8EB7" fill-opacity="0.32"/>
<circle cx="26.129" cy="213.968" r="25.629" stroke="#3EAFBE" stroke-opacity="0.32"/>
<circle cx="40.2822" cy="219.411" r="26.129" fill="#3EAFBE" fill-opacity="0.32"/>
<circle cx="37.5" cy="317.5" r="4.5" fill="#2352CB" fill-opacity="0.28"/>
<ellipse cx="66" cy="317.5" rx="4" ry="4.5" fill="#2352CB" fill-opacity="0.28"/>
<circle cx="94.5" cy="317.5" r="4.5" fill="#2352CB" fill-opacity="0.28"/>
<ellipse cx="37.5" cy="339" rx="4.5" ry="4" fill="#2352CB" fill-opacity="0.28"/>
<circle cx="66" cy="339" r="4" fill="#2352CB" fill-opacity="0.28"/>
<ellipse cx="94.5" cy="339" rx="4.5" ry="4" fill="#2352CB" fill-opacity="0.28"/>
<circle cx="37.5" cy="360.5" r="4.5" fill="#2352CB" fill-opacity="0.28"/>
<ellipse cx="66" cy="360.5" rx="4" ry="4.5" fill="#2352CB" fill-opacity="0.28"/>
<circle cx="94.5" cy="360.5" r="4.5" fill="#2352CB" fill-opacity="0.28"/>
</svg>
