<svg width="20" height="21" viewBox="0 0 20 21" fill="none" xmlns="http://www.w3.org/2000/svg">
<path d="M19.2036 17.0877H17.9536V8.33773C17.9536 8.00621 17.8219 7.68826 17.5875 7.45384C17.3531 7.21942 17.0351 7.08773 16.7036 7.08773H11.7036V3.33773C11.7038 3.11137 11.6424 2.88922 11.5262 2.69499C11.41 2.50076 11.2432 2.34174 11.0436 2.23491C10.844 2.12807 10.6192 2.07742 10.3931 2.08838C10.167 2.09933 9.94816 2.17147 9.75986 2.2971L3.50986 6.46273C3.33841 6.57712 3.1979 6.73213 3.10085 6.91396C3.0038 7.09579 2.95322 7.2988 2.95361 7.50491V17.0877H1.70361C1.53785 17.0877 1.37888 17.1536 1.26167 17.2708C1.14446 17.388 1.07861 17.547 1.07861 17.7127C1.07861 17.8785 1.14446 18.0375 1.26167 18.1547C1.37888 18.2719 1.53785 18.3377 1.70361 18.3377H19.2036C19.3694 18.3377 19.5283 18.2719 19.6456 18.1547C19.7628 18.0375 19.8286 17.8785 19.8286 17.7127C19.8286 17.547 19.7628 17.388 19.6456 17.2708C19.5283 17.1536 19.3694 17.0877 19.2036 17.0877ZM16.7036 8.33773V17.0877H11.7036V8.33773H16.7036ZM4.20361 7.50491L10.4536 3.33773V17.0877H4.20361V7.50491ZM9.20361 9.58773V10.8377C9.20361 11.0035 9.13776 11.1625 9.02056 11.2797C8.90334 11.3969 8.74437 11.4627 8.57861 11.4627C8.41285 11.4627 8.25388 11.3969 8.13667 11.2797C8.01946 11.1625 7.95361 11.0035 7.95361 10.8377V9.58773C7.95361 9.42197 8.01946 9.263 8.13667 9.14578C8.25388 9.02857 8.41285 8.96273 8.57861 8.96273C8.74437 8.96273 8.90334 9.02857 9.02056 9.14578C9.13776 9.263 9.20361 9.42197 9.20361 9.58773ZM6.70361 9.58773V10.8377C6.70361 11.0035 6.63777 11.1625 6.52056 11.2797C6.40334 11.3969 6.24437 11.4627 6.07861 11.4627C5.91285 11.4627 5.75388 11.3969 5.63667 11.2797C5.51946 11.1625 5.45361 11.0035 5.45361 10.8377V9.58773C5.45361 9.42197 5.51946 9.263 5.63667 9.14578C5.75388 9.02857 5.91285 8.96273 6.07861 8.96273C6.24437 8.96273 6.40334 9.02857 6.52056 9.14578C6.63777 9.263 6.70361 9.42197 6.70361 9.58773ZM6.70361 13.9627V15.2127C6.70361 15.3785 6.63777 15.5375 6.52056 15.6547C6.40334 15.7719 6.24437 15.8377 6.07861 15.8377C5.91285 15.8377 5.75388 15.7719 5.63667 15.6547C5.51946 15.5375 5.45361 15.3785 5.45361 15.2127V13.9627C5.45361 13.797 5.51946 13.638 5.63667 13.5208C5.75388 13.4036 5.91285 13.3377 6.07861 13.3377C6.24437 13.3377 6.40334 13.4036 6.52056 13.5208C6.63777 13.638 6.70361 13.797 6.70361 13.9627ZM9.20361 13.9627V15.2127C9.20361 15.3785 9.13776 15.5375 9.02056 15.6547C8.90334 15.7719 8.74437 15.8377 8.57861 15.8377C8.41285 15.8377 8.25388 15.7719 8.13667 15.6547C8.01946 15.5375 7.95361 15.3785 7.95361 15.2127V13.9627C7.95361 13.797 8.01946 13.638 8.13667 13.5208C8.25388 13.4036 8.41285 13.3377 8.57861 13.3377C8.74437 13.3377 8.90334 13.4036 9.02056 13.5208C9.13776 13.638 9.20361 13.797 9.20361 13.9627Z" fill="#FB3131"/>
</svg>
