<svg width="43" height="41" viewBox="0 0 43 41" fill="none" xmlns="http://www.w3.org/2000/svg">
<circle cx="18.5" cy="18.5" r="18.5" fill="#3EAFBE" fill-opacity="0.32"/>
<circle cx="29" cy="27" r="13.75" stroke="#3EAFBE" stroke-opacity="0.32" stroke-width="0.5"/>
<path d="M15.5458 20.2711C14.2137 20.3567 13.0048 20.8641 12.3189 22.6716C12.2408 22.8778 12.0532 23.003 11.8344 23.003C11.4656 23.003 10.3251 22.0843 10 21.8625C10.0003 24.5968 11.2597 27 14.2502 27C16.769 27 18.5002 25.5467 18.5002 23.0093C18.5002 22.9061 18.4786 22.8074 18.468 22.7062L15.5458 20.2711ZM25.2034 10C24.7001 10 24.2283 10.2228 23.8683 10.5462C17.0814 16.6091 16.3752 16.7515 16.3752 18.5362C16.3752 18.9911 16.4831 19.4247 16.6651 19.8212L18.784 21.5869C19.0234 21.6467 19.2701 21.6875 19.5275 21.6875C21.5897 21.6875 22.7849 20.1778 26.5385 13.1722C26.7835 12.6958 27 12.1811 27 11.6452C27 10.6853 26.1367 10 25.2034 10Z" fill="#3EAFBE"/>
</svg>
