<svg width="27" height="27" viewBox="0 0 27 27" fill="none" xmlns="http://www.w3.org/2000/svg">
<path d="M10.9688 4.42969H5.90625C5.51464 4.42969 5.13907 4.58525 4.86216 4.86216C4.58525 5.13907 4.42969 5.51464 4.42969 5.90625V10.9688C4.42969 11.1627 4.46788 11.3547 4.54208 11.5338C4.61629 11.713 4.72505 11.8757 4.86216 12.0128C4.99927 12.1499 5.16205 12.2587 5.34119 12.3329C5.52034 12.4071 5.71235 12.4453 5.90625 12.4453H10.9688C11.1627 12.4453 11.3547 12.4071 11.5338 12.3329C11.713 12.2587 11.8757 12.1499 12.0128 12.0128C12.1499 11.8757 12.2587 11.713 12.3329 11.5338C12.4071 11.3547 12.4453 11.1627 12.4453 10.9688V5.90625C12.4453 5.71235 12.4071 5.52034 12.3329 5.34119C12.2587 5.16205 12.1499 4.99927 12.0128 4.86216C11.8757 4.72505 11.713 4.61629 11.5338 4.54208C11.3547 4.46788 11.1627 4.42969 10.9688 4.42969ZM11.1797 10.9688C11.1797 11.0247 11.1575 11.0783 11.1179 11.1179C11.0783 11.1575 11.0247 11.1797 10.9688 11.1797H5.90625C5.85031 11.1797 5.79665 11.1575 5.75709 11.1179C5.71754 11.0783 5.69531 11.0247 5.69531 10.9688V5.90625C5.69531 5.85031 5.71754 5.79665 5.75709 5.75709C5.79665 5.71754 5.85031 5.69531 5.90625 5.69531H10.9688C11.0247 5.69531 11.0783 5.71754 11.1179 5.75709C11.1575 5.79665 11.1797 5.85031 11.1797 5.90625V10.9688ZM21.0938 4.42969H16.0312C15.6396 4.42969 15.2641 4.58525 14.9872 4.86216C14.7103 5.13907 14.5547 5.51464 14.5547 5.90625V10.9688C14.5547 11.1627 14.5929 11.3547 14.6671 11.5338C14.7413 11.713 14.8501 11.8757 14.9872 12.0128C15.1243 12.1499 15.287 12.2587 15.4662 12.3329C15.6453 12.4071 15.8373 12.4453 16.0312 12.4453H21.0938C21.2877 12.4453 21.4797 12.4071 21.6588 12.3329C21.838 12.2587 22.0007 12.1499 22.1378 12.0128C22.2749 11.8757 22.3837 11.713 22.4579 11.5338C22.5321 11.3547 22.5703 11.1627 22.5703 10.9688V5.90625C22.5703 5.51464 22.4147 5.13907 22.1378 4.86216C21.8609 4.58525 21.4854 4.42969 21.0938 4.42969ZM21.3047 10.9688C21.3047 11.0247 21.2825 11.0783 21.2429 11.1179C21.2033 11.1575 21.1497 11.1797 21.0938 11.1797H16.0312C15.9753 11.1797 15.9217 11.1575 15.8821 11.1179C15.8425 11.0783 15.8203 11.0247 15.8203 10.9688V5.90625C15.8203 5.85031 15.8425 5.79665 15.8821 5.75709C15.9217 5.71754 15.9753 5.69531 16.0312 5.69531H21.0938C21.1497 5.69531 21.2033 5.71754 21.2429 5.75709C21.2825 5.79665 21.3047 5.85031 21.3047 5.90625V10.9688ZM10.9688 14.5547H5.90625C5.51464 14.5547 5.13907 14.7103 4.86216 14.9872C4.58525 15.2641 4.42969 15.6396 4.42969 16.0312V21.0938C4.42969 21.4854 4.58525 21.8609 4.86216 22.1378C5.13907 22.4147 5.51464 22.5703 5.90625 22.5703H10.9688C11.1627 22.5703 11.3547 22.5321 11.5338 22.4579C11.713 22.3837 11.8757 22.2749 12.0128 22.1378C12.1499 22.0007 12.2587 21.838 12.3329 21.6588C12.4071 21.4797 12.4453 21.2877 12.4453 21.0938V16.0312C12.4453 15.8373 12.4071 15.6453 12.3329 15.4662C12.2587 15.287 12.1499 15.1243 12.0128 14.9872C11.8757 14.8501 11.713 14.7413 11.5338 14.6671C11.3547 14.5929 11.1627 14.5547 10.9688 14.5547ZM11.1797 21.0938C11.1797 21.1497 11.1575 21.2033 11.1179 21.2429C11.0783 21.2825 11.0247 21.3047 10.9688 21.3047H5.90625C5.85031 21.3047 5.79665 21.2825 5.75709 21.2429C5.71754 21.2033 5.69531 21.1497 5.69531 21.0938V16.0312C5.69531 15.9753 5.71754 15.9217 5.75709 15.8821C5.79665 15.8425 5.85031 15.8203 5.90625 15.8203H10.9688C11.0247 15.8203 11.0783 15.8425 11.1179 15.8821C11.1575 15.9217 11.1797 15.9753 11.1797 16.0312V21.0938ZM21.0938 14.5547H16.0312C15.6396 14.5547 15.2641 14.7103 14.9872 14.9872C14.7103 15.2641 14.5547 15.6396 14.5547 16.0312V21.0938C14.5547 21.4854 14.7103 21.8609 14.9872 22.1378C15.2641 22.4147 15.6396 22.5703 16.0312 22.5703H21.0938C21.4854 22.5703 21.8609 22.4147 22.1378 22.1378C22.4147 21.8609 22.5703 21.4854 22.5703 21.0938V16.0312C22.5703 15.6396 22.4147 15.2641 22.1378 14.9872C21.8609 14.7103 21.4854 14.5547 21.0938 14.5547ZM21.3047 21.0938C21.3047 21.1497 21.2825 21.2033 21.2429 21.2429C21.2033 21.2825 21.1497 21.3047 21.0938 21.3047H16.0312C15.9753 21.3047 15.9217 21.2825 15.8821 21.2429C15.8425 21.2033 15.8203 21.1497 15.8203 21.0938V16.0312C15.8203 15.9753 15.8425 15.9217 15.8821 15.8821C15.9217 15.8425 15.9753 15.8203 16.0312 15.8203H21.0938C21.1497 15.8203 21.2033 15.8425 21.2429 15.8821C21.2825 15.9217 21.3047 15.9753 21.3047 16.0312V21.0938Z" fill="#FB3131"/>
</svg>
