<svg width="40" height="40" viewBox="0 0 40 40" fill="none" xmlns="http://www.w3.org/2000/svg">
<path d="M38.75 32.8125H35.9375V14.6875H36.25C36.4986 14.6875 36.7371 14.5887 36.9129 14.4129C37.0887 14.2371 37.1875 13.9986 37.1875 13.75C37.1875 13.5014 37.0887 13.2629 36.9129 13.0871C36.7371 12.9113 36.4986 12.8125 36.25 12.8125H28.4375V7.1875H28.75C28.9986 7.1875 29.2371 7.08873 29.4129 6.91291C29.5887 6.7371 29.6875 6.49864 29.6875 6.25C29.6875 6.00136 29.5887 5.7629 29.4129 5.58709C29.2371 5.41127 28.9986 5.3125 28.75 5.3125H6.25C6.00136 5.3125 5.7629 5.41127 5.58709 5.58709C5.41127 5.7629 5.3125 6.00136 5.3125 6.25C5.3125 6.49864 5.41127 6.7371 5.58709 6.91291C5.7629 7.08873 6.00136 7.1875 6.25 7.1875H6.5625V32.8125H3.75C3.50136 32.8125 3.2629 32.9113 3.08709 33.0871C2.91127 33.2629 2.8125 33.5014 2.8125 33.75C2.8125 33.9986 2.91127 34.2371 3.08709 34.4129C3.2629 34.5887 3.50136 34.6875 3.75 34.6875H38.75C38.9986 34.6875 39.2371 34.5887 39.4129 34.4129C39.5887 34.2371 39.6875 33.9986 39.6875 33.75C39.6875 33.5014 39.5887 33.2629 39.4129 33.0871C39.2371 32.9113 38.9986 32.8125 38.75 32.8125ZM34.0625 14.6875V32.8125H28.4375V14.6875H34.0625ZM8.4375 7.1875H26.5625V32.8125H22.1875V25C22.1875 24.7514 22.0887 24.5129 21.9129 24.3371C21.7371 24.1613 21.4986 24.0625 21.25 24.0625H13.75C13.5014 24.0625 13.2629 24.1613 13.0871 24.3371C12.9113 24.5129 12.8125 24.7514 12.8125 25V32.8125H8.4375V7.1875ZM20.3125 32.8125H14.6875V25.9375H20.3125V32.8125ZM11.5625 12.5C11.5625 12.2514 11.6613 12.0129 11.8371 11.8371C12.0129 11.6613 12.2514 11.5625 12.5 11.5625H15C15.2486 11.5625 15.4871 11.6613 15.6629 11.8371C15.8387 12.0129 15.9375 12.2514 15.9375 12.5C15.9375 12.7486 15.8387 12.9871 15.6629 13.1629C15.4871 13.3387 15.2486 13.4375 15 13.4375H12.5C12.2514 13.4375 12.0129 13.3387 11.8371 13.1629C11.6613 12.9871 11.5625 12.7486 11.5625 12.5ZM19.0625 12.5C19.0625 12.2514 19.1613 12.0129 19.3371 11.8371C19.5129 11.6613 19.7514 11.5625 20 11.5625H22.5C22.7486 11.5625 22.9871 11.6613 23.1629 11.8371C23.3387 12.0129 23.4375 12.2514 23.4375 12.5C23.4375 12.7486 23.3387 12.9871 23.1629 13.1629C22.9871 13.3387 22.7486 13.4375 22.5 13.4375H20C19.7514 13.4375 19.5129 13.3387 19.3371 13.1629C19.1613 12.9871 19.0625 12.7486 19.0625 12.5ZM12.5 19.6875C12.2514 19.6875 12.0129 19.5887 11.8371 19.4129C11.6613 19.2371 11.5625 18.9986 11.5625 18.75C11.5625 18.5014 11.6613 18.2629 11.8371 18.0871C12.0129 17.9113 12.2514 17.8125 12.5 17.8125H15C15.2486 17.8125 15.4871 17.9113 15.6629 18.0871C15.8387 18.2629 15.9375 18.5014 15.9375 18.75C15.9375 18.9986 15.8387 19.2371 15.6629 19.4129C15.4871 19.5887 15.2486 19.6875 15 19.6875H12.5ZM19.0625 18.75C19.0625 18.5014 19.1613 18.2629 19.3371 18.0871C19.5129 17.9113 19.7514 17.8125 20 17.8125H22.5C22.7486 17.8125 22.9871 17.9113 23.1629 18.0871C23.3387 18.2629 23.4375 18.5014 23.4375 18.75C23.4375 18.9986 23.3387 19.2371 23.1629 19.4129C22.9871 19.5887 22.7486 19.6875 22.5 19.6875H20C19.7514 19.6875 19.5129 19.5887 19.3371 19.4129C19.1613 19.2371 19.0625 18.9986 19.0625 18.75Z" fill="#888888"/>
</svg>
