<svg width="40" height="40" viewBox="0 0 40 40" fill="none" xmlns="http://www.w3.org/2000/svg">
<path d="M37.5 12.8125H16.8297L13.3391 5.83125C13.2612 5.67535 13.1415 5.54422 12.9933 5.45259C12.8451 5.36096 12.6742 5.31245 12.5 5.3125H7.5C7.25136 5.3125 7.0129 5.41127 6.83709 5.58709C6.66127 5.7629 6.5625 6.00136 6.5625 6.25V12.8125H3.75C3.50136 12.8125 3.2629 12.9113 3.08709 13.0871C2.91127 13.2629 2.8125 13.5014 2.8125 13.75C2.8125 13.9986 2.91127 14.2371 3.08709 14.4129C3.2629 14.5887 3.50136 14.6875 3.75 14.6875H6.5625V32.8125H3.75C3.50136 32.8125 3.2629 32.9113 3.08709 33.0871C2.91127 33.2629 2.8125 33.5014 2.8125 33.75C2.8125 33.9986 2.91127 34.2371 3.08709 34.4129C3.2629 34.5887 3.50136 34.6875 3.75 34.6875H20C20.2486 34.6875 20.4871 34.5887 20.6629 34.4129C20.8387 34.2371 20.9375 33.9986 20.9375 33.75C20.9375 33.5014 20.8387 33.2629 20.6629 33.0871C20.4871 32.9113 20.2486 32.8125 20 32.8125H17.1875V14.6875H32.8125V28.75C32.8125 28.8329 32.7796 28.9124 32.721 28.971C32.6624 29.0296 32.5829 29.0625 32.5 29.0625H30C29.9171 29.0625 29.8376 29.0296 29.779 28.971C29.7204 28.9124 29.6875 28.8329 29.6875 28.75V27.5C29.6875 27.2514 29.5887 27.0129 29.4129 26.8371C29.2371 26.6613 28.9986 26.5625 28.75 26.5625C28.5014 26.5625 28.2629 26.6613 28.0871 26.8371C27.9113 27.0129 27.8125 27.2514 27.8125 27.5V28.75C27.8125 29.3302 28.043 29.8866 28.4532 30.2968C28.8634 30.707 29.4198 30.9375 30 30.9375H32.5C33.0802 30.9375 33.6366 30.707 34.0468 30.2968C34.457 29.8866 34.6875 29.3302 34.6875 28.75V14.6875H37.5C37.7486 14.6875 37.9871 14.5887 38.1629 14.4129C38.3387 14.2371 38.4375 13.9986 38.4375 13.75C38.4375 13.5014 38.3387 13.2629 38.1629 13.0871C37.9871 12.9113 37.7486 12.8125 37.5 12.8125ZM8.4375 7.1875H11.9203L14.7328 12.8125H8.4375V7.1875ZM8.4375 32.8125V24.6875H15.3125V32.8125H8.4375ZM15.3125 22.8125H8.4375V14.6875H15.3125V22.8125Z" fill="#888888"/>
</svg>
