<svg width="42" height="42" viewBox="0 0 42 42" fill="none" xmlns="http://www.w3.org/2000/svg">
<path d="M35.1091 14.8444V11.8125C35.1091 10.159 34.4523 8.5733 33.2831 7.40413C32.114 6.23496 30.5282 5.57813 28.8748 5.57812H13.1248C11.4713 5.57813 9.88557 6.23496 8.7164 7.40413C7.54723 8.5733 6.89039 10.159 6.89039 11.8125V14.8444C5.42579 15.0781 4.09251 15.8264 3.12996 16.9548C2.16742 18.0831 1.63867 19.5177 1.63867 21.0008C1.63867 22.484 2.16742 23.9185 3.12996 25.0469C4.09251 26.1752 5.42579 26.9235 6.89039 27.1573V32.8125C6.89039 33.4217 7.13238 34.0059 7.56313 34.4366C7.99388 34.8674 8.5781 35.1094 9.18727 35.1094H32.8123C33.4214 35.1094 34.0057 34.8674 34.4364 34.4366C34.8671 34.0059 35.1091 33.4217 35.1091 32.8125V27.1573C36.5684 26.9182 37.8952 26.1682 38.8525 25.0412C39.8099 23.9142 40.3355 22.4836 40.3355 21.0049C40.3355 19.5262 39.8099 18.0956 38.8525 16.9686C37.8952 15.8417 36.5684 15.0917 35.1091 14.8526V14.8444ZM13.1248 7.54688H28.8748C30.0061 7.54688 31.0911 7.99629 31.891 8.79625C32.691 9.59621 33.1404 10.6812 33.1404 11.8125V14.8444C31.677 15.0801 30.3451 15.8288 29.3833 16.9566C28.4214 18.0844 27.8922 19.5177 27.8904 21V21.3281H14.1091V21C14.1074 19.5177 13.5782 18.0844 12.6163 16.9566C11.6544 15.8288 10.3226 15.0801 8.85914 14.8444V11.8125C8.85914 10.6812 9.30855 9.59621 10.1085 8.79625C10.9085 7.99629 11.9935 7.54688 13.1248 7.54688ZM34.1822 25.2656H34.1248C33.8637 25.2656 33.6133 25.3693 33.4287 25.5539C33.2441 25.7385 33.1404 25.9889 33.1404 26.25V32.8125C33.1404 32.8995 33.1058 32.983 33.0443 33.0445C32.9828 33.1061 32.8993 33.1406 32.8123 33.1406H9.18727C9.10024 33.1406 9.01678 33.1061 8.95525 33.0445C8.89371 32.983 8.85914 32.8995 8.85914 32.8125V26.25C8.85914 25.9889 8.75543 25.7385 8.57082 25.5539C8.38622 25.3693 8.13584 25.2656 7.87477 25.2656H7.81734C6.97622 25.2543 6.15722 24.9945 5.46334 24.519C4.76946 24.0434 4.23167 23.3734 3.9176 22.593C3.60353 21.8126 3.52721 20.9568 3.69822 20.1332C3.86924 19.3095 4.27997 18.5549 4.87875 17.964C5.47753 17.3732 6.23763 16.9726 7.06348 16.8126C7.88932 16.6526 8.74404 16.7404 9.52014 17.0649C10.2962 17.3893 10.9591 17.936 11.4253 18.6362C11.8915 19.3364 12.1403 20.1588 12.1404 21V27.5625C12.1404 27.8236 12.2441 28.074 12.4287 28.2586C12.6133 28.4432 12.8637 28.5469 13.1248 28.5469C13.3858 28.5469 13.6362 28.4432 13.8208 28.2586C14.0054 28.074 14.1091 27.8236 14.1091 27.5625V23.2969H27.8904V27.5625C27.8904 27.8236 27.9941 28.074 28.1787 28.2586C28.3633 28.4432 28.6137 28.5469 28.8748 28.5469C29.1358 28.5469 29.3862 28.4432 29.5708 28.2586C29.7554 28.074 29.8591 27.8236 29.8591 27.5625V21C29.8592 20.1588 30.108 19.3364 30.5742 18.6362C31.0405 17.936 31.7033 17.3893 32.4794 17.0649C33.2555 16.7404 34.1102 16.6526 34.9361 16.8126C35.7619 16.9726 36.522 17.3732 37.1208 17.964C37.7196 18.5549 38.1303 19.3095 38.3013 20.1332C38.4723 20.9568 38.396 21.8126 38.0819 22.593C37.7679 23.3734 37.2301 24.0434 36.5362 24.519C35.8423 24.9945 35.0233 25.2543 34.1822 25.2656Z" fill="#FB3131"/>
</svg>
