<svg width="41" height="40" viewBox="0 0 41 40" fill="none" xmlns="http://www.w3.org/2000/svg">
<path fill-rule="evenodd" clip-rule="evenodd" d="M6 2.8572C6 2.38378 6.38378 2 6.8572 2H33.5257C33.9991 2 34.3829 2.38378 34.3829 2.8572V34.526C34.3829 34.9994 33.9991 35.3832 33.5257 35.3832H6.8572C6.38378 35.3832 6 34.9994 6 34.526V2.8572ZM7.7144 3.7144V33.6688H32.6685V3.7144H7.7144Z" fill="#888888"/>
<path fill-rule="evenodd" clip-rule="evenodd" d="M19.334 34.526V2.85721H21.0484V34.526H19.334Z" fill="#888888"/>
<path fill-rule="evenodd" clip-rule="evenodd" d="M24.3801 20.3679C24.3819 20.3638 24.3824 20.3601 24.3824 20.3583C24.3824 20.3566 24.3819 20.3529 24.3801 20.3488C24.3787 20.3453 24.3769 20.343 24.3754 20.3415C24.3739 20.34 24.3716 20.3382 24.3681 20.3368C24.3641 20.335 24.3603 20.3345 24.3586 20.3345C24.3569 20.3345 24.3531 20.335 24.349 20.3368C24.3456 20.3382 24.3433 20.34 24.3417 20.3415C24.3402 20.343 24.3384 20.3453 24.337 20.3488C24.3353 20.3529 24.3347 20.3566 24.3347 20.3583C24.3347 20.3601 24.3353 20.3638 24.337 20.3679C24.3384 20.3713 24.3402 20.3737 24.3417 20.3752C24.3433 20.3767 24.3456 20.3785 24.349 20.3799C24.3531 20.3816 24.3569 20.3822 24.3586 20.3822C24.3603 20.3822 24.3641 20.3816 24.3681 20.3799C24.3716 20.3785 24.3739 20.3767 24.3754 20.3752C24.3769 20.3737 24.3787 20.3713 24.3801 20.3679ZM22.668 20.3583C22.668 19.4247 23.4249 18.6678 24.3586 18.6678C25.2922 18.6678 26.0492 19.4247 26.0492 20.3583C26.0492 21.292 25.2922 22.0489 24.3586 22.0489C23.4249 22.0489 22.668 21.292 22.668 20.3583Z" fill="#888888"/>
<path fill-rule="evenodd" clip-rule="evenodd" d="M16.0462 20.3679C16.0479 20.3638 16.0484 20.3601 16.0484 20.3583C16.0484 20.3566 16.0479 20.3529 16.0462 20.3488C16.0447 20.3453 16.0429 20.343 16.0414 20.3415C16.0399 20.34 16.0376 20.3382 16.0341 20.3368C16.0301 20.335 16.0263 20.3345 16.0246 20.3345C16.0229 20.3345 16.0191 20.335 16.015 20.3368C16.0116 20.3382 16.0093 20.34 16.0077 20.3415C16.0062 20.343 16.0045 20.3453 16.003 20.3488C16.0013 20.3529 16.0008 20.3566 16.0008 20.3583C16.0008 20.3601 16.0013 20.3638 16.003 20.3679C16.0045 20.3713 16.0062 20.3737 16.0077 20.3752C16.0093 20.3767 16.0116 20.3785 16.015 20.3799C16.0191 20.3816 16.0229 20.3822 16.0246 20.3822C16.0263 20.3822 16.0301 20.3816 16.0341 20.3799C16.0376 20.3785 16.0399 20.3767 16.0414 20.3752C16.0429 20.3737 16.0447 20.3713 16.0462 20.3679ZM14.334 20.3583C14.334 19.4247 15.0909 18.6678 16.0246 18.6678C16.9583 18.6678 17.7152 19.4247 17.7152 20.3583C17.7152 21.292 16.9583 22.0489 16.0246 22.0489C15.0909 22.0489 14.334 21.292 14.334 20.3583Z" fill="#888888"/>
<path fill-rule="evenodd" clip-rule="evenodd" d="M11.8577 33.6687C12.3311 33.6687 12.7149 34.0525 12.7149 34.5259V36.1927C12.7149 36.6661 12.3311 37.0499 11.8577 37.0499C11.3843 37.0499 11.0005 36.6661 11.0005 36.1927V34.5259C11.0005 34.0525 11.3843 33.6687 11.8577 33.6687ZM30.1923 33.6687C30.6657 33.6687 31.0495 34.0525 31.0495 34.5259V36.1927C31.0495 36.6661 30.6657 37.0499 30.1923 37.0499C29.7188 37.0499 29.3351 36.6661 29.3351 36.1927V34.5259C29.3351 34.0525 29.7188 33.6687 30.1923 33.6687Z" fill="#888888"/>
</svg>
