<svg width="25" height="25" viewBox="0 0 25 25" fill="none" xmlns="http://www.w3.org/2000/svg">
<path d="M22.4609 13.3292C22.2982 15.2218 21.5984 17.0287 20.4437 18.5371C19.289 20.0455 17.7275 21.1927 15.9429 21.8438C14.1583 22.4949 12.2249 22.6227 10.3701 22.2123C8.51537 21.8018 6.81642 20.8701 5.47317 19.5269C4.12992 18.1836 3.19827 16.4847 2.78782 14.6299C2.37737 12.7752 2.5052 10.8417 3.15628 9.05717C3.80735 7.27259 4.95459 5.71108 6.46299 4.55638C7.9714 3.40168 9.77823 2.70182 11.6709 2.53914C11.8263 2.52619 11.9805 2.5755 12.0995 2.67623C12.2186 2.77696 12.2927 2.92085 12.3057 3.07625C12.3186 3.23165 12.2693 3.38583 12.1686 3.50487C12.0678 3.62391 11.9239 3.69807 11.7685 3.71102C10.0979 3.85408 8.50288 4.47138 7.17119 5.49025C5.83949 6.50913 4.82654 7.88719 4.25152 9.46227C3.67651 11.0374 3.56336 12.7439 3.9254 14.3811C4.28744 16.0183 5.1096 17.5181 6.29512 18.7038C7.48065 19.8896 8.98021 20.7121 10.6173 21.0744C12.2545 21.4368 13.9611 21.324 15.5363 20.7493C17.1115 20.1746 18.4897 19.162 19.5089 17.8305C20.528 16.499 21.1456 14.9041 21.2891 13.2335C21.2955 13.1565 21.317 13.0816 21.3523 13.013C21.3877 12.9443 21.4363 12.8833 21.4952 12.8335C21.6142 12.7327 21.7684 12.6834 21.9238 12.6964C22.0008 12.7028 22.0757 12.7243 22.1443 12.7597C22.213 12.795 22.274 12.8436 22.3238 12.9025C22.3737 12.9615 22.4115 13.0296 22.435 13.1032C22.4585 13.1767 22.4673 13.2542 22.4609 13.3311V13.3292ZM11.9141 7.03133V12.5001C11.9141 12.6555 11.9758 12.8045 12.0857 12.9144C12.1956 13.0243 12.3446 13.086 12.5 13.086H17.9687C18.1241 13.086 18.2732 13.0243 18.3831 12.9144C18.4929 12.8045 18.5547 12.6555 18.5547 12.5001C18.5547 12.3447 18.4929 12.1956 18.3831 12.0858C18.2732 11.9759 18.1241 11.9141 17.9687 11.9141H13.0859V7.03133C13.0859 6.87593 13.0242 6.72689 12.9143 6.61701C12.8044 6.50712 12.6554 6.44539 12.5 6.44539C12.3446 6.44539 12.1956 6.50712 12.0857 6.61701C11.9758 6.72689 11.9141 6.87593 11.9141 7.03133ZM15.625 4.49227C15.8181 4.49227 16.0069 4.43499 16.1675 4.32769C16.3281 4.22038 16.4533 4.06786 16.5272 3.88942C16.6011 3.71098 16.6205 3.51462 16.5828 3.32519C16.5451 3.13575 16.4521 2.96175 16.3155 2.82517C16.1789 2.6886 16.0049 2.59559 15.8155 2.55791C15.6261 2.52023 15.4297 2.53956 15.2513 2.61348C15.0728 2.68739 14.9203 2.81256 14.813 2.97316C14.7057 3.13375 14.6484 3.32256 14.6484 3.5157C14.6484 3.64395 14.6737 3.77094 14.7228 3.88942C14.7718 4.0079 14.8438 4.11556 14.9345 4.20624C15.1176 4.38938 15.366 4.49227 15.625 4.49227ZM19.1406 6.83602C19.3338 6.83602 19.5226 6.77874 19.6832 6.67144C19.8438 6.56413 19.9689 6.41161 20.0428 6.23317C20.1168 6.05473 20.1361 5.85837 20.0984 5.66894C20.0607 5.4795 19.9677 5.3055 19.8311 5.16892C19.6946 5.03235 19.5206 4.93934 19.3311 4.90166C19.1417 4.86398 18.9453 4.88331 18.7669 4.95723C18.5885 5.03114 18.4359 5.15631 18.3286 5.31691C18.2213 5.4775 18.1641 5.66631 18.1641 5.85945C18.1641 6.11845 18.2669 6.36685 18.4501 6.54999C18.6332 6.73313 18.8816 6.83602 19.1406 6.83602ZM21.4844 10.3516C21.6775 10.3516 21.8663 10.2944 22.0269 10.1871C22.1875 10.0798 22.3127 9.92724 22.3866 9.74879C22.4605 9.57035 22.4798 9.374 22.4422 9.18456C22.4045 8.99513 22.3115 8.82112 22.1749 8.68455C22.0383 8.54797 21.8643 8.45496 21.6749 8.41728C21.4854 8.3796 21.2891 8.39894 21.1106 8.47285C20.9322 8.54677 20.7797 8.67194 20.6724 8.83253C20.5651 8.99313 20.5078 9.18193 20.5078 9.37508C20.5078 9.63408 20.6107 9.88247 20.7938 10.0656C20.977 10.2488 21.2254 10.3516 21.4844 10.3516Z" fill="#FB3131"/>
</svg>
