<svg width="25" height="25" viewBox="0 0 25 25" fill="none" xmlns="http://www.w3.org/2000/svg">
<path d="M22.6562 5.66406H6.83594V3.90625C6.83594 3.75085 6.7742 3.60181 6.66432 3.49193C6.55444 3.38204 6.4054 3.32031 6.25 3.32031H4.6875C3.9105 3.32031 3.16532 3.62898 2.6159 4.1784C2.06648 4.72782 1.75781 5.473 1.75781 6.25V17.1875C1.75781 17.9645 2.06648 18.7097 2.6159 19.2591C3.16532 19.8085 3.9105 20.1172 4.6875 20.1172H22.6562C22.8117 20.1172 22.9607 20.0555 23.0706 19.9456C23.1805 19.8357 23.2422 19.6867 23.2422 19.5312V6.25C23.2422 6.0946 23.1805 5.94556 23.0706 5.83568C22.9607 5.7258 22.8117 5.66406 22.6562 5.66406ZM2.92969 6.25C2.92969 5.7838 3.11489 5.33669 3.44454 5.00704C3.77419 4.67739 4.2213 4.49219 4.6875 4.49219H5.66406V14.2578H4.6875C4.05345 14.2569 3.43637 14.4626 2.92969 14.8438V6.25ZM22.0703 18.9453H4.6875C4.2213 18.9453 3.77419 18.7601 3.44454 18.4305C3.11489 18.1008 2.92969 17.6537 2.92969 17.1875C2.92969 16.7213 3.11489 16.2742 3.44454 15.9445C3.77419 15.6149 4.2213 15.4297 4.6875 15.4297H6.25C6.4054 15.4297 6.55444 15.368 6.66432 15.2581C6.7742 15.1482 6.83594 14.9992 6.83594 14.8438V6.83594H22.0703V18.9453ZM10.1562 13.4766C10.0008 13.4766 9.85181 13.5383 9.74193 13.6482C9.63205 13.7581 9.57031 13.9071 9.57031 14.0625C9.57031 14.2179 9.63205 14.3669 9.74193 14.4768C9.85181 14.5867 10.0008 14.6484 10.1562 14.6484H11.9141V15.625C11.9141 15.7804 11.9758 15.9294 12.0857 16.0393C12.1956 16.1492 12.3446 16.2109 12.5 16.2109C12.6554 16.2109 12.8044 16.1492 12.9143 16.0393C13.0242 15.9294 13.0859 15.7804 13.0859 15.625V14.6484H15.8203V15.625C15.8203 15.7804 15.882 15.9294 15.9919 16.0393C16.1018 16.1492 16.2508 16.2109 16.4062 16.2109C16.5617 16.2109 16.7107 16.1492 16.8206 16.0393C16.9305 15.9294 16.9922 15.7804 16.9922 15.625V14.6484H18.75C18.9054 14.6484 19.0544 14.5867 19.1643 14.4768C19.2742 14.3669 19.3359 14.2179 19.3359 14.0625C19.3359 13.9071 19.2742 13.7581 19.1643 13.6482C19.0544 13.5383 18.9054 13.4766 18.75 13.4766H16.9922V11.5234H18.75C18.9054 11.5234 19.0544 11.4617 19.1643 11.3518C19.2742 11.2419 19.3359 11.0929 19.3359 10.9375C19.3359 10.7821 19.2742 10.6331 19.1643 10.5232C19.0544 10.4133 18.9054 10.3516 18.75 10.3516H16.9922V9.375C16.9922 9.2196 16.9305 9.07056 16.8206 8.96068C16.7107 8.8508 16.5617 8.78906 16.4062 8.78906C16.2508 8.78906 16.1018 8.8508 15.9919 8.96068C15.882 9.07056 15.8203 9.2196 15.8203 9.375V10.3516H13.0859V9.375C13.0859 9.2196 13.0242 9.07056 12.9143 8.96068C12.8044 8.8508 12.6554 8.78906 12.5 8.78906C12.3446 8.78906 12.1956 8.8508 12.0857 8.96068C11.9758 9.07056 11.9141 9.2196 11.9141 9.375V10.3516H10.1562C10.0008 10.3516 9.85181 10.4133 9.74193 10.5232C9.63205 10.6331 9.57031 10.7821 9.57031 10.9375C9.57031 11.0929 9.63205 11.2419 9.74193 11.3518C9.85181 11.4617 10.0008 11.5234 10.1562 11.5234H11.9141V13.4766H10.1562ZM13.0859 11.5234H15.8203V13.4766H13.0859V11.5234Z" fill="#FB3131"/>
</svg>
