<svg width="40" height="40" viewBox="0 0 40 40" fill="none" xmlns="http://www.w3.org/2000/svg">
<path d="M37.5 32.8125H34.6875V20.4953L35.5875 21.3953C35.7639 21.5687 36.0017 21.6653 36.249 21.6642C36.4963 21.663 36.7331 21.5642 36.9079 21.3892C37.0827 21.2142 37.1812 20.9772 37.1821 20.7299C37.183 20.4826 37.0861 20.245 36.9125 20.0688L21.5469 4.70157C21.3437 4.49842 21.1026 4.33727 20.8372 4.22733C20.5718 4.11738 20.2873 4.06079 20 4.06079C19.7127 4.06079 19.4282 4.11738 19.1628 4.22733C18.8974 4.33727 18.6563 4.49842 18.4531 4.70157L3.0875 20.0688C2.91394 20.245 2.81703 20.4826 2.81789 20.7299C2.81875 20.9772 2.9173 21.2142 3.09208 21.3892C3.26686 21.5642 3.50371 21.663 3.75103 21.6642C3.99835 21.6653 4.2361 21.5687 4.4125 21.3953L5.3125 20.4953V32.8125H2.5C2.25136 32.8125 2.0129 32.9113 1.83709 33.0871C1.66127 33.2629 1.5625 33.5014 1.5625 33.75C1.5625 33.9987 1.66127 34.2371 1.83709 34.4129C2.0129 34.5887 2.25136 34.6875 2.5 34.6875H37.5C37.7486 34.6875 37.9871 34.5887 38.1629 34.4129C38.3387 34.2371 38.4375 33.9987 38.4375 33.75C38.4375 33.5014 38.3387 33.2629 38.1629 33.0871C37.9871 32.9113 37.7486 32.8125 37.5 32.8125ZM7.1875 18.6203L19.7781 6.02814C19.8072 5.99885 19.8417 5.9756 19.8798 5.95973C19.9179 5.94387 19.9587 5.9357 20 5.9357C20.0413 5.9357 20.0821 5.94387 20.1202 5.95973C20.1583 5.9756 20.1928 5.99885 20.2219 6.02814L32.8125 18.6203V32.8125H24.6875V23.75C24.6875 23.5014 24.5887 23.2629 24.4129 23.0871C24.2371 22.9113 23.9986 22.8125 23.75 22.8125H16.25C16.0014 22.8125 15.7629 22.9113 15.5871 23.0871C15.4113 23.2629 15.3125 23.5014 15.3125 23.75V32.8125H7.1875V18.6203ZM22.8125 32.8125H17.1875V24.6875H22.8125V32.8125Z" fill="#888888"/>
</svg>
