<svg width="41" height="40" viewBox="0 0 41 40" fill="none" xmlns="http://www.w3.org/2000/svg">
<g clip-path="url(#clip0_88_1669)">
<path fill-rule="evenodd" clip-rule="evenodd" d="M2.09961 18.7374C2.09961 18.2403 2.50255 17.8374 2.99961 17.8374H38.6898C39.1869 17.8374 39.5898 18.2403 39.5898 18.7374V34.798C39.5898 35.2951 39.1869 35.698 38.6898 35.698H2.99961C2.50255 35.698 2.09961 35.2951 2.09961 34.798V18.7374ZM3.89961 19.6374V33.898H37.7898V19.6374H3.89961Z" fill="#888888"/>
<path fill-rule="evenodd" clip-rule="evenodd" d="M2.09961 4.46128C2.09961 3.96422 2.50255 3.56128 2.99961 3.56128H10.1377C10.6347 3.56128 11.0377 3.96422 11.0377 4.46128V9.81481C11.0377 10.3119 10.6347 10.7148 10.1377 10.7148H2.99961C2.50255 10.7148 2.09961 10.3119 2.09961 9.81481V4.46128ZM3.89961 5.36128V8.91481H9.23765V5.36128H3.89961Z" fill="#888888"/>
<path fill-rule="evenodd" clip-rule="evenodd" d="M28.8672 4.46128C28.8672 3.96422 29.2701 3.56128 29.7672 3.56128H38.6897C39.1868 3.56128 39.5897 3.96422 39.5897 4.46128V9.81481C39.5897 10.3119 39.1868 10.7148 38.6897 10.7148H29.7672C29.2701 10.7148 28.8672 10.3119 28.8672 9.81481V4.46128ZM30.6672 5.36128V8.91481H37.7897V5.36128H30.6672Z" fill="#888888"/>
<path fill-rule="evenodd" clip-rule="evenodd" d="M22.6138 27.6754H17.2912V31.2134H22.6138V27.6754ZM15.4912 25.8754V33.0134H24.4138V25.8754H15.4912Z" fill="#888888"/>
<path fill-rule="evenodd" clip-rule="evenodd" d="M12.8066 34.798L12.8066 18.7374L14.6066 18.7374L14.6066 34.798L12.8066 34.798Z" fill="#888888"/>
<path d="M17.2757 21.4141C17.2757 21.9069 16.8762 22.3064 16.3835 22.3064C15.8907 22.3064 15.4912 21.9069 15.4912 21.4141C15.4912 20.9214 15.8907 20.5219 16.3835 20.5219C16.8762 20.5219 17.2757 20.9214 17.2757 21.4141Z" fill="#888888"/>
<path d="M20.8446 21.4141C20.8446 21.9069 20.4451 22.3064 19.9523 22.3064C19.4595 22.3064 19.0601 21.9069 19.0601 21.4141C19.0601 20.9214 19.4595 20.5219 19.9523 20.5219C20.4451 20.5219 20.8446 20.9214 20.8446 21.4141Z" fill="#888888"/>
<path d="M24.4139 21.4141C24.4139 21.9069 24.0144 22.3064 23.5216 22.3064C23.0289 22.3064 22.6294 21.9069 22.6294 21.4141C22.6294 20.9214 23.0289 20.5219 23.5216 20.5219C24.0144 20.5219 24.4139 20.9214 24.4139 21.4141Z" fill="#888888"/>
<path fill-rule="evenodd" clip-rule="evenodd" d="M25.2983 34.798L25.2983 18.7374L27.0983 18.7374L27.0983 34.798L25.2983 34.798Z" fill="#888888"/>
<path fill-rule="evenodd" clip-rule="evenodd" d="M26.1984 23.1909H38.6899V24.9909H26.1984V23.1909Z" fill="#888888"/>
<path fill-rule="evenodd" clip-rule="evenodd" d="M2.99997 23.1909H13.707V24.9909H2.99997V23.1909Z" fill="#888888"/>
<path fill-rule="evenodd" clip-rule="evenodd" d="M2.99997 28.5444H13.707V30.3444H2.99997V28.5444Z" fill="#888888"/>
<path fill-rule="evenodd" clip-rule="evenodd" d="M16.3834 -0.899994C16.8805 -0.899994 17.2834 -0.49705 17.2834 6.07967e-06V4.46128C17.2834 4.69998 17.1886 4.9289 17.0198 5.09768L14.6066 7.51084V8.91481H25.2982V7.51084L22.8851 5.09768C22.7163 4.9289 22.6214 4.69998 22.6214 4.46128V6.07967e-06C22.6214 -0.49705 23.0244 -0.899994 23.5214 -0.899994C24.0185 -0.899994 24.4214 -0.49705 24.4214 6.07967e-06V4.08849L26.8346 6.50165C27.0034 6.67043 27.0982 6.89935 27.0982 7.13805V9.81481C27.0982 10.3119 26.6953 10.7148 26.1982 10.7148H13.7066C13.2096 10.7148 12.8066 10.3119 12.8066 9.81481V7.13805C12.8066 6.89935 12.9015 6.67043 13.0702 6.50165L15.4834 4.08849V6.07967e-06C15.4834 -0.49705 15.8864 -0.899994 16.3834 -0.899994Z" fill="#888888"/>
</g>
<defs>
<clipPath id="clip0_88_1669">
<rect width="40.7273" height="40" fill="white" transform="translate(0.13623)"/>
</clipPath>
</defs>
</svg>
