<svg width="20" height="21" viewBox="0 0 20 21" fill="none" xmlns="http://www.w3.org/2000/svg">
<path d="M18.9585 16.7495H17.7085V11.1245L17.8913 11.3073C18.0088 11.4246 18.168 11.4904 18.334 11.4902C18.5 11.4901 18.6592 11.424 18.7765 11.3065C18.8937 11.189 18.9595 11.0298 18.9594 10.8638C18.9592 10.6978 18.8932 10.5386 18.7757 10.4213L11.0921 2.74009C10.8577 2.50585 10.5399 2.37427 10.2085 2.37427C9.87712 2.37427 9.5593 2.50585 9.3249 2.74009L1.64131 10.4213C1.52414 10.5386 1.45835 10.6976 1.45842 10.8634C1.4585 11.0292 1.52442 11.1882 1.6417 11.3053C1.75897 11.4225 1.91799 11.4883 2.08377 11.4882C2.24955 11.4881 2.40851 11.4222 2.52568 11.3049L2.7085 11.1245V16.7495H1.4585C1.29274 16.7495 1.13376 16.8153 1.01655 16.9325C0.899344 17.0497 0.833496 17.2087 0.833496 17.3745C0.833496 17.5402 0.899344 17.6992 1.01655 17.8164C1.13376 17.9336 1.29274 17.9995 1.4585 17.9995H18.9585C19.1243 17.9995 19.2832 17.9336 19.4004 17.8164C19.5176 17.6992 19.5835 17.5402 19.5835 17.3745C19.5835 17.2087 19.5176 17.0497 19.4004 16.9325C19.2832 16.8153 19.1243 16.7495 18.9585 16.7495ZM3.9585 9.87447L10.2085 3.62447L16.4585 9.87447V16.7495H12.7085V12.3745C12.7085 12.2087 12.6426 12.0497 12.5254 11.9325C12.4082 11.8153 12.2493 11.7495 12.0835 11.7495H8.3335C8.16774 11.7495 8.00876 11.8153 7.89155 11.9325C7.77434 12.0497 7.7085 12.2087 7.7085 12.3745V16.7495H3.9585V9.87447ZM11.4585 16.7495H8.9585V12.9995H11.4585V16.7495Z" fill="#FB3131"/>
</svg>
