<svg width="20" height="21" viewBox="0 0 20 21" fill="none" xmlns="http://www.w3.org/2000/svg">
<path d="M18.083 7.53662H16.833V5.66162C16.833 5.3301 16.7013 5.01216 16.4669 4.77774C16.2325 4.54332 15.9145 4.41162 15.583 4.41162H3.70801C3.37649 4.41162 3.05854 4.54332 2.82412 4.77774C2.5897 5.01216 2.45801 5.3301 2.45801 5.66162V7.53662H1.20801C1.04225 7.53662 0.883276 7.60247 0.766066 7.71968C0.648856 7.83689 0.583008 7.99586 0.583008 8.16162C0.583008 8.32738 0.648856 8.48635 0.766066 8.60356C0.883276 8.72077 1.04225 8.78662 1.20801 8.78662H2.45801V10.6616C2.45801 10.9931 2.5897 11.3111 2.82412 11.5455C3.05854 11.7799 3.37649 11.9116 3.70801 11.9116H15.583C15.9145 11.9116 16.2325 11.7799 16.4669 11.5455C16.7013 11.3111 16.833 10.9931 16.833 10.6616V8.78662H18.083V12.6929L10.2393 14.9312C9.97904 15.0065 9.75017 15.164 9.58683 15.3801C9.4235 15.5963 9.33446 15.8595 9.33301 16.1304V18.7866C9.33301 18.9524 9.39886 19.1114 9.51607 19.2286C9.63328 19.3458 9.79225 19.4116 9.95801 19.4116C10.1238 19.4116 10.2827 19.3458 10.4 19.2286C10.5172 19.1114 10.583 18.9524 10.583 18.7866V16.1304L18.4268 13.8897C18.6866 13.8145 18.9152 13.6574 19.0785 13.4417C19.2418 13.226 19.3311 12.9634 19.333 12.6929V8.78662C19.333 8.4551 19.2013 8.13716 18.9669 7.90274C18.7325 7.66832 18.4145 7.53662 18.083 7.53662ZM15.583 10.6616H3.70801V5.66162H15.583V10.6616Z" fill="#FB3131"/>
</svg>
