<svg width="25" height="25" viewBox="0 0 25 25" fill="none" xmlns="http://www.w3.org/2000/svg">
<path d="M19.5312 22.0703H14.1816C15.1331 21.2548 16.0244 20.3717 16.8486 19.4277C19.498 16.3809 20.8984 13.1777 20.8984 10.1562C20.8984 7.92885 20.0136 5.79267 18.4386 4.21766C16.8636 2.64265 14.7274 1.75781 12.5 1.75781C10.2726 1.75781 8.13642 2.64265 6.56141 4.21766C4.9864 5.79267 4.10156 7.92885 4.10156 10.1562C4.10156 13.1748 5.50195 16.3809 8.15137 19.4277C8.97555 20.3717 9.86687 21.2548 10.8184 22.0703H5.46875C5.31335 22.0703 5.16431 22.132 5.05443 22.2419C4.94454 22.3518 4.88281 22.5008 4.88281 22.6562C4.88281 22.8117 4.94454 22.9607 5.05443 23.0706C5.16431 23.1805 5.31335 23.2422 5.46875 23.2422H19.5312C19.6867 23.2422 19.8357 23.1805 19.9456 23.0706C20.0555 22.9607 20.1172 22.8117 20.1172 22.6562C20.1172 22.5008 20.0555 22.3518 19.9456 22.2419C19.8357 22.132 19.6867 22.0703 19.5312 22.0703ZM5.27344 10.1562C5.27344 8.23965 6.0348 6.40154 7.39005 5.0463C8.74529 3.69106 10.5834 2.92969 12.5 2.92969C14.4166 2.92969 16.2547 3.69106 17.61 5.0463C18.9652 6.40154 19.7266 8.23965 19.7266 10.1562C19.7266 15.9785 13.9648 20.7939 12.5 21.9248C11.0352 20.7939 5.27344 15.9785 5.27344 10.1562ZM16.2109 10.1562C16.2109 9.4223 15.9933 8.70482 15.5855 8.09456C15.1778 7.4843 14.5982 7.00866 13.9201 6.72779C13.242 6.44692 12.4959 6.37343 11.776 6.51662C11.0562 6.6598 10.395 7.01324 9.87597 7.53222C9.35699 8.05121 9.00355 8.71243 8.86037 9.43228C8.71718 10.1521 8.79067 10.8983 9.07154 11.5764C9.35241 12.2544 9.82805 12.834 10.4383 13.2418C11.0486 13.6495 11.766 13.8672 12.5 13.8672C13.4842 13.8672 14.4281 13.4762 15.124 12.7803C15.82 12.0843 16.2109 11.1405 16.2109 10.1562ZM9.96094 10.1562C9.96094 9.65407 10.1099 9.16317 10.3888 8.74562C10.6678 8.32808 11.0644 8.00264 11.5283 7.81046C11.9923 7.61829 12.5028 7.568 12.9953 7.66597C13.4879 7.76395 13.9403 8.00577 14.2954 8.36086C14.6505 8.71596 14.8923 9.16837 14.9903 9.6609C15.0882 10.1534 15.038 10.664 14.8458 11.1279C14.6536 11.5919 14.3282 11.9884 13.9106 12.2674C13.4931 12.5464 13.0022 12.6953 12.5 12.6953C11.8266 12.6953 11.1808 12.4278 10.7046 11.9516C10.2284 11.4755 9.96094 10.8297 9.96094 10.1562Z" fill="#FB3131"/>
</svg>
