<svg width="43" height="41" viewBox="0 0 43 41" fill="none" xmlns="http://www.w3.org/2000/svg">
<circle cx="18.5" cy="18.5" r="18.5" fill="#2352CB" fill-opacity="0.28"/>
<circle cx="29" cy="27" r="13.75" stroke="#2352CB" stroke-opacity="0.28" stroke-width="0.5"/>
<path d="M14.8023 14.8794C14.4492 14.9792 14.1259 15.1638 13.8605 15.4172C13.5951 15.6706 13.3957 15.985 13.2797 16.3331L10 26.1719L10.5164 26.6883L15.7937 21.411C15.6886 21.191 15.625 20.9477 15.625 20.6875C15.625 19.7555 16.3805 19 17.3125 19C18.2445 19 19 19.7555 19 20.6875C19 21.6195 18.2445 22.375 17.3125 22.375C17.0523 22.375 16.809 22.3114 16.589 22.2063L11.3117 27.4836L11.8281 28L21.6669 24.7203C22.015 24.6043 22.3294 24.4049 22.5828 24.1395C22.8362 23.8741 23.0208 23.5508 23.1206 23.1977L24.6249 17.875L20.125 13.3751L14.8023 14.8794ZM27.5056 12.6076L25.3924 10.4944C24.7332 9.83521 23.6641 9.83521 23.0049 10.4944L21.0169 12.4825L25.5175 16.9831L27.5056 14.9951C28.1648 14.3359 28.1648 13.2671 27.5056 12.6076Z" fill="#2352CB"/>
</svg>
