<svg width="40" height="40" viewBox="0 0 40 40" fill="none" xmlns="http://www.w3.org/2000/svg">
<path d="M37.5 32.8125H35.9375V11.25C35.9375 11.0014 35.8387 10.7629 35.6629 10.5871C35.4871 10.4113 35.2486 10.3125 35 10.3125H28.4375V6.25C28.4375 6.00136 28.3387 5.7629 28.1629 5.58709C27.9871 5.41127 27.7486 5.3125 27.5 5.3125H12.5C12.2514 5.3125 12.0129 5.41127 11.8371 5.58709C11.6613 5.7629 11.5625 6.00136 11.5625 6.25V15.3125H5C4.75136 15.3125 4.5129 15.4113 4.33709 15.5871C4.16127 15.7629 4.0625 16.0014 4.0625 16.25V32.8125H2.5C2.25136 32.8125 2.0129 32.9113 1.83709 33.0871C1.66127 33.2629 1.5625 33.5014 1.5625 33.75C1.5625 33.9986 1.66127 34.2371 1.83709 34.4129C2.0129 34.5887 2.25136 34.6875 2.5 34.6875H37.5C37.7486 34.6875 37.9871 34.5887 38.1629 34.4129C38.3387 34.2371 38.4375 33.9986 38.4375 33.75C38.4375 33.5014 38.3387 33.2629 38.1629 33.0871C37.9871 32.9113 37.7486 32.8125 37.5 32.8125ZM5.9375 17.1875H12.5C12.7486 17.1875 12.9871 17.0887 13.1629 16.9129C13.3387 16.7371 13.4375 16.4986 13.4375 16.25V7.1875H26.5625V11.25C26.5625 11.4986 26.6613 11.7371 26.8371 11.9129C27.0129 12.0887 27.2514 12.1875 27.5 12.1875H34.0625V32.8125H23.4375V26.25C23.4375 26.0014 23.3387 25.7629 23.1629 25.5871C22.9871 25.4113 22.7486 25.3125 22.5 25.3125H17.5C17.2514 25.3125 17.0129 25.4113 16.8371 25.5871C16.6613 25.7629 16.5625 26.0014 16.5625 26.25V32.8125H5.9375V17.1875ZM21.5625 32.8125H18.4375V27.1875H21.5625V32.8125ZM17.8125 11.25C17.8125 11.0014 17.9113 10.7629 18.0871 10.5871C18.2629 10.4113 18.5014 10.3125 18.75 10.3125H21.25C21.4986 10.3125 21.7371 10.4113 21.9129 10.5871C22.0887 10.7629 22.1875 11.0014 22.1875 11.25C22.1875 11.4986 22.0887 11.7371 21.9129 11.9129C21.7371 12.0887 21.4986 12.1875 21.25 12.1875H18.75C18.5014 12.1875 18.2629 12.0887 18.0871 11.9129C17.9113 11.7371 17.8125 11.4986 17.8125 11.25ZM17.8125 16.25C17.8125 16.0014 17.9113 15.7629 18.0871 15.5871C18.2629 15.4113 18.5014 15.3125 18.75 15.3125H21.25C21.4986 15.3125 21.7371 15.4113 21.9129 15.5871C22.0887 15.7629 22.1875 16.0014 22.1875 16.25C22.1875 16.4986 22.0887 16.7371 21.9129 16.9129C21.7371 17.0887 21.4986 17.1875 21.25 17.1875H18.75C18.5014 17.1875 18.2629 17.0887 18.0871 16.9129C17.9113 16.7371 17.8125 16.4986 17.8125 16.25ZM26.5625 16.25C26.5625 16.0014 26.6613 15.7629 26.8371 15.5871C27.0129 15.4113 27.2514 15.3125 27.5 15.3125H30C30.2486 15.3125 30.4871 15.4113 30.6629 15.5871C30.8387 15.7629 30.9375 16.0014 30.9375 16.25C30.9375 16.4986 30.8387 16.7371 30.6629 16.9129C30.4871 17.0887 30.2486 17.1875 30 17.1875H27.5C27.2514 17.1875 27.0129 17.0887 26.8371 16.9129C26.6613 16.7371 26.5625 16.4986 26.5625 16.25ZM13.4375 21.25C13.4375 21.4986 13.3387 21.7371 13.1629 21.9129C12.9871 22.0887 12.7486 22.1875 12.5 22.1875H10C9.75136 22.1875 9.5129 22.0887 9.33709 21.9129C9.16127 21.7371 9.0625 21.4986 9.0625 21.25C9.0625 21.0014 9.16127 20.7629 9.33709 20.5871C9.5129 20.4113 9.75136 20.3125 10 20.3125H12.5C12.7486 20.3125 12.9871 20.4113 13.1629 20.5871C13.3387 20.7629 13.4375 21.0014 13.4375 21.25ZM13.4375 26.25C13.4375 26.4986 13.3387 26.7371 13.1629 26.9129C12.9871 27.0887 12.7486 27.1875 12.5 27.1875H10C9.75136 27.1875 9.5129 27.0887 9.33709 26.9129C9.16127 26.7371 9.0625 26.4986 9.0625 26.25C9.0625 26.0014 9.16127 25.7629 9.33709 25.5871C9.5129 25.4113 9.75136 25.3125 10 25.3125H12.5C12.7486 25.3125 12.9871 25.4113 13.1629 25.5871C13.3387 25.7629 13.4375 26.0014 13.4375 26.25ZM17.8125 21.25C17.8125 21.0014 17.9113 20.7629 18.0871 20.5871C18.2629 20.4113 18.5014 20.3125 18.75 20.3125H21.25C21.4986 20.3125 21.7371 20.4113 21.9129 20.5871C22.0887 20.7629 22.1875 21.0014 22.1875 21.25C22.1875 21.4986 22.0887 21.7371 21.9129 21.9129C21.7371 22.0887 21.4986 22.1875 21.25 22.1875H18.75C18.5014 22.1875 18.2629 22.0887 18.0871 21.9129C17.9113 21.7371 17.8125 21.4986 17.8125 21.25ZM26.5625 21.25C26.5625 21.0014 26.6613 20.7629 26.8371 20.5871C27.0129 20.4113 27.2514 20.3125 27.5 20.3125H30C30.2486 20.3125 30.4871 20.4113 30.6629 20.5871C30.8387 20.7629 30.9375 21.0014 30.9375 21.25C30.9375 21.4986 30.8387 21.7371 30.6629 21.9129C30.4871 22.0887 30.2486 22.1875 30 22.1875H27.5C27.2514 22.1875 27.0129 22.0887 26.8371 21.9129C26.6613 21.7371 26.5625 21.4986 26.5625 21.25ZM26.5625 26.25C26.5625 26.0014 26.6613 25.7629 26.8371 25.5871C27.0129 25.4113 27.2514 25.3125 27.5 25.3125H30C30.2486 25.3125 30.4871 25.4113 30.6629 25.5871C30.8387 25.7629 30.9375 26.0014 30.9375 26.25C30.9375 26.4986 30.8387 26.7371 30.6629 26.9129C30.4871 27.0887 30.2486 27.1875 30 27.1875H27.5C27.2514 27.1875 27.0129 27.0887 26.8371 26.9129C26.6613 26.7371 26.5625 26.4986 26.5625 26.25Z" fill="#888888"/>
</svg>
