<svg width="22" height="23" viewBox="0 0 22 23" fill="none" xmlns="http://www.w3.org/2000/svg">
<circle cx="11" cy="11.5" r="11" fill="#2CCA67"/>
<mask id="mask0_208_2139" style="mask-type:luminance" maskUnits="userSpaceOnUse" x="5" y="6" width="12" height="11">
<path d="M5.5 6H16.5V17H5.5V6Z" fill="white"/>
</mask>
<g mask="url(#mask0_208_2139)">
<path d="M12.0363 6.08104L11.7063 6.03472C10.7145 5.89152 9.70249 6.03319 8.78815 6.44321C7.87382 6.85322 7.09486 7.5147 6.54211 8.35051C5.95398 9.14945 5.60339 10.0982 5.53067 11.0876C5.45795 12.077 5.66606 13.0668 6.13105 13.9431C6.17864 14.031 6.20827 14.1274 6.21821 14.2268C6.22815 14.3262 6.2182 14.4266 6.18895 14.5221C5.95158 15.3384 5.73158 16.1605 5.5 17.0231L5.78947 16.9363C6.57105 16.7279 7.35263 16.5195 8.13421 16.3284C8.29918 16.2941 8.47065 16.3102 8.62632 16.3747C9.32754 16.7169 10.0938 16.9052 10.8738 16.9269C11.6538 16.9486 12.4294 16.8032 13.1485 16.5005C13.8677 16.1978 14.5138 15.7447 15.0434 15.1717C15.5731 14.5988 15.974 13.9191 16.2194 13.1784C16.4648 12.4377 16.5489 11.6531 16.4661 10.8773C16.3832 10.1014 16.1354 9.35223 15.7392 8.68002C15.343 8.00782 14.8077 7.42813 14.169 6.97987C13.5303 6.53161 12.8032 6.22514 12.0363 6.08104ZM13.4953 13.6768C13.2848 13.8652 13.0283 13.9945 12.7516 14.0514C12.475 14.1084 12.1882 14.091 11.9205 14.001C10.7074 13.6594 9.65488 12.8983 8.95053 11.8531C8.68148 11.4835 8.4652 11.0782 8.30789 10.6489C8.2227 10.3999 8.20734 10.1322 8.26347 9.87502C8.31961 9.61783 8.44509 9.38092 8.62632 9.18999C8.71454 9.07739 8.83463 8.99397 8.97094 8.9506C9.10725 8.90723 9.25346 8.90591 9.39053 8.94683C9.50632 8.97577 9.58737 9.14367 9.69158 9.27104C9.77611 9.51014 9.87511 9.74404 9.98684 9.97156C10.0716 10.0876 10.107 10.2326 10.0853 10.3746C10.0636 10.5167 9.9866 10.6445 9.87105 10.73C9.61053 10.9616 9.65105 11.1526 9.83632 11.4131C10.2459 12.0032 10.811 12.4681 11.4689 12.7563C11.6542 12.8374 11.7932 12.8547 11.9147 12.6637C11.9668 12.5884 12.0363 12.5247 12.0942 12.4552C12.43 12.0326 12.3258 12.0384 12.8584 12.27C13.0281 12.3412 13.1925 12.4246 13.3505 12.5189C13.5068 12.6116 13.7442 12.71 13.7789 12.8489C13.8124 12.9997 13.8036 13.1567 13.7535 13.3028C13.7035 13.4488 13.6141 13.5783 13.4953 13.6768Z" fill="white"/>
</g>
</svg>
