<svg width="41" height="30" viewBox="0 0 41 30" fill="none" xmlns="http://www.w3.org/2000/svg">
<path d="M36.7191 11.0313C34.8496 10.0371 32.3368 9.3218 29.5703 8.98547V7.78125C29.5703 5.79281 27.9612 3.99141 25.0352 2.7068C22.3745 1.53539 18.8539 0.890625 15.125 0.890625C11.3961 0.890625 7.87547 1.53539 5.21484 2.7068C2.28883 3.99141 0.679688 5.79281 0.679688 7.78125V14.3438C0.679688 16.3322 2.28883 18.1336 5.21484 19.4182C6.97684 20.1926 9.1134 20.7307 11.4297 21.0145V22.2188C11.4297 24.2072 13.0388 26.0086 15.9648 27.2932C18.6255 28.4646 22.1461 29.1094 25.875 29.1094C29.6039 29.1094 33.1245 28.4646 35.7852 27.2932C38.7061 26.0086 40.3203 24.2072 40.3203 22.2188V15.6562C40.3203 13.909 39.0421 12.2667 36.7191 11.0313ZM35.7549 12.7605C37.3993 13.635 38.3047 14.6719 38.3047 15.6562C38.3047 17.9843 33.2001 20.5781 25.875 20.5781C24.6839 20.5788 23.4939 20.5054 22.3124 20.3583C23.2435 20.1143 24.1539 19.8 25.0352 19.4182C27.9561 18.1336 29.5703 16.3322 29.5703 14.3438V10.969C31.9891 11.2856 34.1559 11.9091 35.7549 12.7605ZM17.1675 19.1967C16.5091 19.241 15.8237 19.2656 15.125 19.2656C14.2348 19.2656 13.3781 19.2262 12.5584 19.1557C12.5378 19.154 12.517 19.154 12.4963 19.1557C11.895 19.1016 11.3205 19.0294 10.7578 18.9424V14.3634C12.2039 14.5704 13.6635 14.6735 15.125 14.6719C16.5865 14.6735 18.0461 14.5704 19.4922 14.3634V18.9375C18.7632 19.0507 17.9956 19.1377 17.1927 19.1934L17.1675 19.1967ZM27.5547 11.3726V14.3438C27.5547 15.9089 25.2451 17.5922 21.5078 18.529V13.991C22.7182 13.7241 23.8994 13.3439 25.0352 12.8557C25.9385 12.4725 26.7858 11.9738 27.5547 11.3726ZM15.125 2.85938C22.4501 2.85938 27.5547 5.4532 27.5547 7.78125C27.5547 10.1093 22.4501 12.7031 15.125 12.7031C7.79988 12.7031 2.69531 10.1093 2.69531 7.78125C2.69531 5.4532 7.79988 2.85938 15.125 2.85938ZM2.69531 14.3438V11.3726C3.46459 11.9715 4.31183 12.468 5.21484 12.8491C6.35056 13.3374 7.5318 13.7176 8.74219 13.9845V18.5224C5.00488 17.5922 2.69531 15.9089 2.69531 14.3438ZM13.4453 22.2188V21.1884C13.9996 21.218 14.5589 21.2344 15.125 21.2344C15.7868 21.2344 16.4396 21.2141 17.0835 21.1737C17.8714 21.4513 18.6757 21.682 19.4922 21.8644V26.404C15.7549 25.4672 13.4453 23.7839 13.4453 22.2188ZM21.5078 26.8125V22.2352C22.9538 22.4433 24.4134 22.5475 25.875 22.5469C27.3365 22.5485 28.7961 22.4454 30.2422 22.2384V26.8125C27.348 27.25 24.402 27.25 21.5078 26.8125ZM32.2578 26.404V21.866C33.4682 21.5991 34.6494 21.2189 35.7852 20.7307C36.6882 20.3495 37.5354 19.853 38.3047 19.2541V22.2188C38.3047 23.7839 35.9951 25.4672 32.2578 26.404Z" fill="#FB3131"/>
</svg>
