<svg width="42" height="42" viewBox="0 0 42 42" fill="none" xmlns="http://www.w3.org/2000/svg">
<path d="M39.8147 12.244L32.1316 8.40328C31.2851 6.74133 29.003 5.57812 26.25 5.57812C22.7538 5.57812 20.0156 7.45172 20.0156 9.84375C20.0166 10.2676 20.1036 10.6867 20.2716 11.0759L16.6622 12.8805C15.5503 12.3815 14.3436 12.1291 13.125 12.1406C9.62883 12.1406 6.89062 14.0142 6.89062 16.4062C6.89156 16.8301 6.97864 17.2492 7.14656 17.6384L2.18531 20.119C2.02162 20.2007 1.88393 20.3264 1.78772 20.4821C1.69151 20.6377 1.64057 20.817 1.64063 21V31.5C1.64057 31.683 1.69151 31.8623 1.78772 32.0179C1.88393 32.1736 2.02162 32.2993 2.18531 32.381L12.6853 37.631C12.8219 37.6992 12.9724 37.7347 13.125 37.7347C13.2776 37.7347 13.4281 37.6992 13.5647 37.631L39.8147 24.506C39.9784 24.4243 40.1161 24.2986 40.2123 24.1429C40.3085 23.9873 40.3594 23.808 40.3594 23.625V13.125C40.3594 12.942 40.3085 12.7627 40.2123 12.6071C40.1161 12.4514 39.9784 12.3257 39.8147 12.244ZM13.125 25.1491L4.82672 21L8.39836 19.215C9.53203 20.1124 11.2153 20.6719 13.125 20.6719C16.6212 20.6719 19.3594 18.7983 19.3594 16.4062C19.348 15.579 19.0306 14.7853 18.4685 14.1783L21.5234 12.6525C22.657 13.5499 24.3403 14.1094 26.25 14.1094C29.3065 14.1094 31.7855 12.6771 32.358 10.7182L37.1733 13.125L13.125 25.1491ZM26.25 7.54687C28.7634 7.54687 30.5156 8.75766 30.5156 9.84375C30.5156 10.9298 28.7634 12.1406 26.25 12.1406C23.7366 12.1406 21.9844 10.9298 21.9844 9.84375C21.9844 8.75766 23.7366 7.54687 26.25 7.54687ZM13.125 14.1094C15.6384 14.1094 17.3906 15.3202 17.3906 16.4062C17.3906 17.4923 15.6384 18.7031 13.125 18.7031C10.6116 18.7031 8.85938 17.4923 8.85938 16.4062C8.85938 15.3202 10.6116 14.1094 13.125 14.1094ZM3.60938 22.593L12.1406 26.8587V35.1569L3.60938 30.8913V22.593ZM14.1094 35.1569V26.8587L38.3906 14.718V23.0163L14.1094 35.1569Z" fill="#FB3131"/>
</svg>
